<?xml version="1.0" encoding="UTF-8"?><svg id="a" xmlns="http://www.w3.org/2000/svg" viewBox="0 0 135 45"><defs><style>.b{fill:#fffde9;}</style></defs><path class="b" d="M12.56,30.22v-9.95c0-.64-.06-1.16-.18-1.54-.12-.39-.29-.68-.51-.89-.22-.21-.46-.34-.74-.41s-.56-.1-.86-.1c-.46,0-.91,.13-1.33,.41-.42,.27-.8,.64-1.12,1.1-.33,.46-.59,1.01-.8,1.64-.2,.63-.31,1.29-.31,1.99v7.75H1.4V2.82H6.68V14.62c.68-.72,1.42-1.23,2.21-1.54,.79-.31,1.68-.46,2.68-.46,.79,0,1.56,.1,2.31,.31,.75,.21,1.42,.54,2.01,.99,.59,.46,1.07,1.06,1.44,1.81,.37,.75,.55,1.67,.55,2.76v11.72h-5.32Z"/><path class="b" d="M39.6,17.46c0,.91-.24,1.73-.71,2.48-.47,.75-1.14,1.38-2.01,1.9-.86,.52-1.9,.93-3.12,1.22-1.21,.29-2.57,.44-4.08,.44-.14,0-.3,0-.48-.02-.18-.01-.4-.02-.65-.02,.14,1.01,.54,1.81,1.2,2.38s1.52,.86,2.59,.86c1.85,0,3.82-.6,5.89-1.8v4.2c-.99,.59-1.95,1.01-2.9,1.26-.95,.25-1.99,.38-3.14,.38-1.33,0-2.54-.2-3.62-.6s-1.99-.98-2.74-1.74c-.75-.76-1.32-1.67-1.72-2.72-.4-1.05-.6-2.25-.6-3.58,0-1.47,.23-2.81,.7-4.02,.47-1.21,1.12-2.26,1.96-3.14,.84-.88,1.85-1.56,3.02-2.04,1.17-.48,2.47-.72,3.88-.72,1.97,0,3.55,.48,4.74,1.44s1.78,2.24,1.78,3.84Zm-5.32,.4c0-.43-.18-.79-.55-1.1-.37-.31-.83-.46-1.38-.46-.88,0-1.64,.31-2.28,.94-.64,.63-1.05,1.49-1.23,2.58,.26,.05,.48,.08,.64,.08h.59c2.81,0,4.21-.68,4.21-2.04Z"/><path class="b" d="M56.28,30.22c0-.19-.01-.41-.04-.68-.03-.21-.05-.47-.06-.76-.01-.29-.04-.6-.06-.92-.67,.91-1.54,1.59-2.61,2.06-1.07,.47-2.21,.7-3.41,.7-2.19,0-3.9-.72-5.11-2.16-1.22-1.44-1.82-3.49-1.82-6.16,0-3.23,.98-5.71,2.94-7.46,1.96-1.75,4.75-2.62,8.38-2.62,.59,0,1.13,.01,1.62,.04,.49,.03,.97,.07,1.46,.14,.49,.07,.99,.15,1.5,.26s1.08,.25,1.7,.44v11.36c0,.61,.01,1.26,.04,1.94,.03,.68,.07,1.3,.12,1.86,.05,.67,.11,1.32,.16,1.96h-4.8Zm-.84-13.04c-.46-.11-.88-.17-1.26-.2-.38-.03-.73-.04-1.06-.04-1.47,0-2.61,.47-3.42,1.42-.81,.95-1.22,2.26-1.22,3.94,0,1.12,.24,1.97,.73,2.56,.49,.59,1.18,.88,2.08,.88,.57,0,1.11-.12,1.61-.36,.5-.24,.94-.58,1.32-1.02,.38-.44,.68-.96,.9-1.56,.22-.6,.33-1.27,.33-2.02v-3.6Z"/><path class="b" d="M78.68,17.54c-.37-.08-.67-.13-.88-.16-.21-.03-.45-.04-.72-.04-1.52,0-2.67,.52-3.46,1.56-.79,1.04-1.18,2.59-1.18,4.65v6.67h-5.32v-11.55c0-.65,0-1.22-.02-1.7-.01-.48-.05-.93-.1-1.35-.05-.42-.13-.83-.22-1.23-.09-.4-.22-.87-.38-1.39h5.05c.08,.33,.16,.61,.23,.84,.07,.23,.12,.45,.14,.66,.03,.21,.05,.42,.08,.66,.03,.23,.04,.51,.04,.84,.78-1.23,1.54-2.1,2.28-2.61,.73-.51,1.58-.76,2.54-.76,.37,0,.69,.03,.94,.1,.25,.07,.61,.2,1.06,.39l-.08,4.43Z"/><path class="b" d="M88.32,7.79c0,.7-.31,1.29-.92,1.78-.61,.49-1.35,.73-2.2,.73s-1.63-.25-2.24-.75c-.61-.5-.93-1.11-.96-1.83-.03-.72,.27-1.33,.88-1.83,.61-.5,1.39-.75,2.32-.75,.4,0,.79,.07,1.18,.2,.39,.14,.72,.32,1,.56,.28,.24,.51,.52,.68,.85,.17,.33,.26,.67,.26,1.04Zm-6,22.43V12.62h5.32V30.22h-5.32Z"/><path class="b" d="M105.04,30.22v-9.99c0-.69-.09-1.23-.26-1.62-.17-.39-.38-.68-.62-.87-.24-.19-.49-.31-.76-.35-.27-.04-.49-.06-.68-.06-.16,0-.44,.05-.84,.15-.4,.1-.81,.35-1.22,.73-.41,.39-.78,.95-1.1,1.7s-.48,1.75-.48,3.01v7.29h-5.32v-11.63c0-.99-.08-2-.24-3.04-.16-1.04-.37-1.85-.64-2.45h5.32c.16,.37,.27,.68,.34,.92,.07,.24,.14,.59,.22,1.04,.84-.83,1.75-1.44,2.74-1.84,.99-.4,1.99-.6,2.98-.6,.84,0,1.61,.16,2.33,.47,.72,.31,1.34,.75,1.86,1.3s.93,1.25,1.23,2.06c.3,.82,.45,1.73,.45,2.75v11.02h-5.32Z"/><path class="b" d="M133.6,30.78c0,2.16-.22,3.97-.67,5.42-.45,1.45-1.06,2.62-1.84,3.5-.78,.88-1.69,1.51-2.75,1.9s-2.22,.58-3.47,.58c-1.17,0-2.36-.07-3.57-.22-1.21-.15-2.33-.43-3.37-.86v-4.04c1.05,.37,2.07,.66,3.06,.86,.99,.2,1.85,.3,2.58,.3s1.34-.13,1.91-.4c.58-.27,1.07-.69,1.49-1.28,.42-.59,.74-1.36,.97-2.32,.23-.96,.34-2.12,.34-3.48v-1.76c-.8,.69-1.56,1.14-2.28,1.34-.72,.2-1.55,.3-2.48,.3-1.15,0-2.19-.2-3.12-.6-.93-.4-1.73-.96-2.38-1.68s-1.16-1.59-1.52-2.62c-.36-1.03-.54-2.17-.54-3.42,0-1.55,.28-2.94,.83-4.18,.55-1.24,1.34-2.3,2.37-3.18s2.27-1.55,3.73-2.02,3.11-.7,4.95-.7c.57,0,1.07,0,1.5,.02,.43,.01,.86,.05,1.28,.1s.87,.13,1.34,.22c.47,.09,1.02,.22,1.64,.38V30.78Zm-5.32-13.36c-.47-.08-.82-.13-1.05-.16s-.54-.04-.93-.04c-1.57,0-2.79,.43-3.69,1.3-.89,.87-1.34,2.06-1.34,3.58,0,1.09,.29,1.93,.88,2.52s1.32,.88,2.2,.88c.49,0,.97-.05,1.44-.16,.47-.11,.88-.35,1.25-.72,.37-.37,.67-.91,.89-1.62,.22-.71,.33-1.66,.33-2.86v-2.72Z"/></svg>