<?xml version="1.0" encoding="UTF-8"?><svg id="a" xmlns="http://www.w3.org/2000/svg" viewBox="0 0 48 48"><defs><style>.b{fill:#84173b;}</style></defs><path class="b" d="M26.49,3.09l3.81,11.73c.35,1.08,1.36,1.81,2.49,1.81h12.33c2.54,0,3.59,3.25,1.54,4.74l-9.98,7.25c-.92,.67-1.3,1.85-.95,2.93l3.81,11.73c.78,2.41-1.98,4.42-4.03,2.93l-9.98-7.25c-.92-.67-2.16-.67-3.08,0l-9.98,7.25c-2.05,1.49-4.82-.52-4.03-2.93l3.81-11.73c.35-1.08-.03-2.26-.95-2.93L1.34,21.37c-2.05-1.49-1-4.74,1.54-4.74H15.21c1.14,0,2.14-.73,2.49-1.81l3.81-11.73c.78-2.41,4.2-2.41,4.98,0Z"/></svg>