<?xml version="1.0" encoding="UTF-8"?><svg id="a" xmlns="http://www.w3.org/2000/svg" viewBox="0 0 135 45"><defs><style>.b{fill:#fffde9;}</style></defs><path class="b" d="M22.58,36.14V8.26h5.32v27.88h-5.32Z"/><path class="b" d="M40.3,13.71c0,.7-.31,1.3-.92,1.78-.61,.49-1.35,.73-2.2,.73s-1.63-.25-2.24-.75c-.61-.5-.93-1.11-.96-1.83-.03-.72,.27-1.33,.88-1.83,.61-.5,1.39-.75,2.32-.75,.4,0,.79,.07,1.18,.2,.39,.14,.72,.32,1,.56,.28,.24,.51,.52,.68,.85,.17,.33,.26,.67,.26,1.04Zm-6,22.43V18.54h5.32v17.6h-5.32Z"/><path class="b" d="M58.34,31.26c0,1.68-.56,3.01-1.69,4-1.13,.99-2.72,1.48-4.77,1.48-1.42,0-2.77-.13-4.06-.4-1.29-.27-2.35-.63-3.2-1.08l.68-4.08c2.32,1.2,4.35,1.8,6.08,1.8,.59,0,1.01-.13,1.26-.38s.38-.54,.38-.86c0-.4-.1-.73-.3-.98-.2-.25-.69-.57-1.46-.94-1.09-.48-2.03-.96-2.82-1.44-.79-.48-1.43-.98-1.92-1.5-.49-.52-.85-1.07-1.08-1.66-.23-.59-.34-1.25-.34-2,0-1.68,.64-2.98,1.93-3.9,1.29-.92,2.97-1.38,5.05-1.38,1.11,0,2.1,.09,2.98,.26,.88,.17,1.88,.51,2.99,1.02l-.64,4.04c-.92-.53-1.83-.9-2.75-1.1s-1.79-.3-2.63-.3c-.62,0-1.05,.11-1.27,.34-.23,.23-.34,.53-.34,.9,0,.45,.18,.82,.55,1.1,.37,.28,1.08,.65,2.13,1.1,.95,.48,1.76,.94,2.43,1.38s1.21,.89,1.64,1.36c.42,.47,.73,.96,.91,1.48s.27,1.1,.27,1.74Z"/><path class="b" d="M64.34,36.14v-13.8h-3.52v-3.8h3.52v-4.44h5.24v4.44h4.52v3.8h-4.52v13.8h-5.24Z"/><path class="b" d="M91.38,23.38c0,.91-.24,1.73-.71,2.48-.47,.75-1.14,1.38-2.01,1.9s-1.9,.93-3.12,1.22c-1.21,.29-2.57,.44-4.08,.44-.14,0-.3,0-.48-.02-.18-.01-.4-.02-.65-.02,.14,1.01,.54,1.81,1.2,2.38,.66,.57,1.52,.86,2.59,.86,1.85,0,3.82-.6,5.89-1.8v4.2c-.99,.59-1.95,1.01-2.9,1.26-.95,.25-1.99,.38-3.14,.38-1.33,0-2.54-.2-3.62-.6s-1.99-.98-2.74-1.74c-.75-.76-1.32-1.67-1.72-2.72-.4-1.05-.6-2.25-.6-3.58,0-1.47,.23-2.81,.7-4.02,.47-1.21,1.12-2.26,1.96-3.14,.84-.88,1.85-1.56,3.02-2.04,1.17-.48,2.47-.72,3.88-.72,1.97,0,3.55,.48,4.74,1.44s1.78,2.24,1.78,3.84Zm-5.32,.4c0-.43-.18-.79-.55-1.1-.37-.31-.83-.46-1.38-.46-.88,0-1.64,.31-2.28,.94-.64,.63-1.05,1.49-1.23,2.58,.26,.05,.48,.08,.64,.08h.59c2.81,0,4.21-.68,4.21-2.04Z"/><path class="b" d="M107.1,36.14v-9.99c0-.69-.09-1.23-.26-1.62s-.38-.67-.62-.87c-.24-.19-.49-.31-.76-.35-.27-.04-.49-.06-.68-.06-.16,0-.44,.05-.84,.15-.4,.1-.81,.35-1.22,.73-.41,.39-.78,.95-1.1,1.7-.32,.75-.48,1.75-.48,3.01v7.29h-5.32v-11.63c0-.99-.08-2-.24-3.04-.16-1.04-.37-1.85-.64-2.45h5.32c.16,.37,.27,.68,.34,.92,.07,.24,.14,.59,.22,1.04,.84-.83,1.75-1.44,2.74-1.84,.99-.4,1.99-.6,2.98-.6,.84,0,1.61,.16,2.33,.47,.72,.31,1.34,.75,1.86,1.3s.93,1.25,1.23,2.06c.3,.82,.45,1.73,.45,2.74v11.02h-5.32Z"/></svg>