<?xml version="1.0" encoding="utf-8"?>
<!-- Generator: Adobe Illustrator 26.2.1, SVG Export Plug-In . SVG Version: 6.00 Build 0)  -->
<svg version="1.1" id="Layer_1" xmlns="http://www.w3.org/2000/svg" xmlns:xlink="http://www.w3.org/1999/xlink" x="0px" y="0px"
	 viewBox="0 0 229.8 229.3" style="enable-background:new 0 0 229.8 229.3;" xml:space="preserve">
<style type="text/css">
	.st0{fill:#B0C2ED;}
	.st1{clip-path:url(#SVGID_00000098917964642232866270000013282854465182201488_);}
	.st2{fill:#5EC6FF;}
	.st3{fill:#48B5D3;}
	.st4{opacity:0.28;fill:#3C78AA;enable-background:new    ;}
	.st5{fill:#912E3B;}
	.st6{fill:#FFCB41;stroke:#937435;stroke-width:0.75;stroke-miterlimit:10;}
	.st7{fill:#00C9CB;stroke:#358E74;stroke-miterlimit:10;}
	.st8{opacity:0.51;fill:#00A7C1;enable-background:new    ;}
	.st9{fill:#B53A47;}
	.st10{fill:#E8906B;}
	.st11{opacity:0.47;fill:#FFB100;enable-background:new    ;}
	.st12{fill:#3D4356;}
	.st13{opacity:0.5;fill:#383D4D;enable-background:new    ;}
	.st14{fill:#FCB072;}
	.st15{opacity:0.9;fill:#F59B76;enable-background:new    ;}
	.st16{fill:#4A4F64;}
	.st17{fill:#FFBF7E;stroke:#A06937;stroke-miterlimit:10;}
	.st18{fill:#2A3244;}
	.st19{fill:#FFFFFF;}
	.st20{opacity:0.32;fill:#EE547D;enable-background:new    ;}
	.st21{opacity:0.61;fill:#B53A47;enable-background:new    ;}
	.st22{fill:#FFBF7E;}
	.st23{fill:#F59B76;}
	.st24{fill:#E7C764;}
	.st25{fill:#87633C;}
	.st26{opacity:0.5;fill:#3C78AA;enable-background:new    ;}
	.st27{fill:#3F4458;}
	.st28{fill:#383D4D;}
	.st29{clip-path:url(#SVGID_00000084495798458616958850000001894487581676041624_);}
	.st30{opacity:0.23;fill:#3B2127;enable-background:new    ;}
	.st31{fill:#350B02;}
	.st32{opacity:0.12;fill:#FFFFFF;enable-background:new    ;}
	.st33{clip-path:url(#SVGID_00000165207994503297659970000005189550800602224551_);}
	.st34{fill:#F3AE6A;}
	.st35{fill:#5F3441;}
	.st36{fill:#BF5557;}
	.st37{fill:#FF8E00;}
	.st38{fill:#F6F6B0;}
	.st39{fill:#F5A622;}
	.st40{fill:#00A7C1;}
	.st41{fill:#D0EFFF;}
	.st42{fill:#FF9AAB;}
	.st43{opacity:0.58;fill:#FFE4E9;enable-background:new    ;}
	.st44{clip-path:url(#SVGID_00000025429747327279324250000010961863369464644743_);}
	.st45{fill:#FF6162;}
	.st46{fill:#49442E;}
	.st47{fill:none;stroke:#0C4196;stroke-width:5;stroke-miterlimit:10;}
</style>
<g>
	<circle class="st0" cx="114.9" cy="115" r="112.1"/>
	<g>
		<defs>
			<circle id="SVGID_1_" cx="114.9" cy="115" r="112.1"/>
		</defs>
		<clipPath id="SVGID_00000022518281234045745410000016043726189210603191_">
			<use xlink:href="#SVGID_1_"  style="overflow:visible;"/>
		</clipPath>
		<g style="clip-path:url(#SVGID_00000022518281234045745410000016043726189210603191_);">
			<g>
				<g>
					<path class="st2" d="M119.7,180.1c0,0,44-0.1,72.5,2.2c12.8,1,37,5.2,38.2,17.8c0.7,7.3-26.9,6.4-30.3,10.4
						c-1.6,1.9,2.5,5.7-16.7,8.3s-28.4,5.3-60.2,2.1c-21.9-2.2-14.8-5.1-21-7.2c-19.7-6.7-69.6-1.2-70.7-13.7
						c-1.2-13.3,24.8-13.4,43.5-15.6c11.8-1.3,10.6-6.9,21.8-7.9S119.7,180.1,119.7,180.1z"/>
					<path class="st3" d="M119.7,177.8c0,0,44-0.1,72.5,2.2c12.8,1.1,37,5.2,38.2,17.8c0.7,7.3-26.9,6.4-30.3,10.4
						c-1.6,1.9,2.5,5.7-16.7,8.3s-28.4,5.3-60.2,2.1c-21.9-2.2-14.8-5.1-21-7.2c-19.7-6.7-69.6-1.2-70.7-13.7
						c-1.2-13.3,24.8-13.4,43.5-15.6c11.8-1.4,10.6-6.9,21.8-7.9S119.7,177.8,119.7,177.8z"/>
					<path class="st4" d="M87.1,187c7.8-1.2,8-3.7,17.8-4.2c7.7-0.2,15.4,0.5,22.8,2.2c0,0,15.2,0,33.5,0.2l-0.1,0.1
						c4.4,0.3,8.8,1,13.1,1.9c7,1.9,4.6,7-4.2,7.9c-6.1,0.6-8.2-0.8-22.2-0.9s-15.1,0.7-26.2,0.5s-10.8-0.7-21.1-1.5
						s-19.6,1-19.3-2.5s5.3-3.7,5.3-3.7H87.1z"/>
					<path class="st5" d="M154,175.3c0,0-0.9-2.2-6.1-2.4c-2.3,0.1-4.5,0.7-6.6,1.7c2.3,0.9,4.7,1.4,7.1,1.7
						C150.4,176.4,152.3,176,154,175.3z"/>
					<path class="st6" d="M107.8,122.2c0,0-3.6-1.2-10.7,7.3S83.5,147.6,81,152.7c-3.2,6.6-4.3,15.9,5.1,18.1c4.2,1,9.2-2.2,9.2-2.2
						l16.8-8.2c0,0,3.8,2.5,12.1,3.1c6.4,0.5,16.4-1.4,16.4-1.4l13.8-0.5c0,0,2.4-6.7,2-20.2c-0.4-6.7-1.7-13.3-3.9-19.6
						L107.8,122.2z"/>
					<path class="st7" d="M95.4,138c0,0,4.8-0.6,11,9.5c2.4,4,4.4,8.2,6.3,12.4c4,1.9,8.3,3,12.7,3.3c4.2,0.2,8.4-0.1,12.4-1
						c2.6-4.7,5.6-9.1,9-13.2c5.8-7.2,15.3-12.1,20.9-10.9c7.2,1.4,8.9,7.4,2.6,21.3c-2.9,6.2-6.3,12.3-10,18.1l-7.8-2.2
						c0,0-12.3,3-22.9,3.2c-13.1,0.3-19.1-3-19.1-3L95.4,138z"/>
					<path class="st8" d="M165.7,144.8c0,0,1.9,11.8-1.9,20.5c-7.7,17.6-17.8,15.5-17.8,15.5L165.7,144.8z"/>
					<path class="st9" d="M151.5,174.7c2.2,0.6,4.4,0.9,6.7,1.1c2,0.1,4-0.1,5.9-0.6l-7,11.6c0,0,3.9,0,5.2,1.2
						c2.3,2-0.8,4.2-0.8,4.2l-14-0.5c-1,0-1.8-0.9-1.7-1.8c0-0.1,0-0.2,0-0.4c0.3-1.3,0.9-3.3,1.6-5.9
						C148.6,180.5,149.9,177.5,151.5,174.7z"/>
					<path class="st5" d="M99,175.6c0,0,0.4-1,6-1.5c2.1-0.2,4.3-0.1,6.3,0.3c0,0-2.1,3.4-5.2,3.8C100.7,178.9,99,175.6,99,175.6z"
						/>
					<path class="st10" d="M119.5,122.1c0,0,1.5,3.6,6.5,3.7c5,0,6.6-3.4,6.6-3.4L119.5,122.1z"/>
					<path class="st8" d="M105.7,153.7c2.2,4.1,4.1,8.3,5.7,12.7c1.1,3.3,1.9,6.7,2.1,10.1c-0.5-0.1-0.9-0.2-1.4-0.4
						c-0.4-0.2-0.9-0.4-1.3-0.6c0,0-0.9-5.3-2.2-10.8S105.7,153.7,105.7,153.7z"/>
					<path class="st11" d="M107.1,119.3c-0.5,0.1-1,0.3-1.5,0.5c-0.5,0.2-1,0.5-1.5,0.8c2.4,1.1,5,1.9,7.6,2.4
						c5.6,0.8,8.2-0.7,8.2-0.7L107.1,119.3z"/>
					<path class="st11" d="M132.7,123.2l-1.1-0.1c3.4,1.4,7,1.8,10.7,1.4c3.7-0.7,7.2-2.3,10.1-4.7L132.7,123.2z"/>
					<path class="st12" d="M73.1,60.8c-0.1,2.4,0,4.8,0.3,7.1c0.3,1.7,1,3.2,1.9,4.7l0.8,15.3c0,0-0.8,5.9,0.7,9.4
						c2.6,6.5,7.3,5.5,7.3,5.5l6-39.6L73.1,60.8z"/>
					<path class="st13" d="M73.1,63v1.4c1.3,3.1,4.1,5.3,7.3,5.8c3.7,0.6,5.4-1.2,5.4-1.2l0.4-2.3L73.1,63z"/>
					<path class="st14" d="M85.1,72.3c0,0-10.7-3.9-13.2,4.8c-3.8,12.8,9.3,13,9.3,13s3.5-4.5,4.5-8.9C86.2,78.2,86,75.2,85.1,72.3z
						"/>
					<path class="st15" d="M80.7,76.9c-3.4-1.9-6.4,3.8-3.4,6C80.7,85.4,83.8,78.6,80.7,76.9z"/>
					<path class="st16" d="M177.9,91.4c0.8,3.3,0.6,6.8-0.5,10c-3.6,9.2-10.6,8.8-10.6,8.8l4.3-18.8L177.9,91.4z"/>
					<path class="st14" d="M168.7,77.1c0,0,10.8-6.2,13.6,2.7c2.2,7.2-1.9,10.8-4.8,11.8c-1.8,0.6-3.7,0.8-5.6,0.7
						c0,0-2.7-5.8-3.3-8.8C168.3,81.4,168.3,79.2,168.7,77.1z"/>
					<path class="st15" d="M171.9,81.3c2.1-2.8,6.7,0.8,4.9,3.8C174,89.6,170.1,83.8,171.9,81.3z"/>
					<path class="st17" d="M86.9,63.5c0,0-0.8,4.8-2,11.9c-0.8,4.6-5.6,9.6-4.3,19.3c4.7,33.5,44,39.8,74.2,27.2
						c26-10.9,14.3-36.9,13.9-41.5c-0.4-5.7-0.7-13.8-0.7-13.8s-18.6-24.8-39.2-24.8S86.9,63.5,86.9,63.5z"/>
					<path class="st15" d="M86.2,66.8l-0.3,2.3c0,0,1.7,2.4,6.2,2.3c4.1-0.1,8.2-1.3,11.8-3.4c2.3,2.5,5.6,4.1,9,4.2
						c4.9,0.1,9.7-1.9,12.9-5.6c0,0,2.2,3.7,8.2,2.9c8.6-1,15.9-7.5,15.9-7.5c1.1,2.6,3,4.8,5.4,6.1c8.8,5.1,12.4,0.6,12.4,0.6
						s-8.5-28.7-40.4-28.7C93.3,40.1,86.2,66.8,86.2,66.8z"/>
					<path class="st18" d="M98.8,59.6c0,0-10.4,12.5-23.7,5c-8.2-4.6-8.2-15.9-3.7-22.8c2.4-3.3,5.6-6,9.2-7.9
						c-2.1-0.7-4-1.9-5.5-3.6c-2.7-3.1-4.6-8.3-0.8-13.5c8.8-11.9,31.5-2.4,31.5-2.4s-0.2-6.5,8.8-7.4c13.8-1.4,26.8,12.4,26.8,12.4
						s0.9-5.3,6.9-3.4c7.5,2.4,9.2,12.9,9.2,12.9s8.3-7.6,13.2-0.3c2.7,4-3.8,6.7-3.8,6.7s11.3,2.5,15.1,16.6
						c2.3,8.2,1.5,16.9-2.1,24.6c0,0-1.1-1.1-4.5-1.2c-2.6-0.1-7.1,2.1-7.1,2.1l-0.4-8.4c0,0-3.1,1.2-7.6-2
						c-8.6-5.9-7.5-12.7-7.5-12.7s-9.1,7.2-19,7.5s-8.4-5.4-8.4-5.4s-6.9,7.2-14.8,7.6C100.5,64.4,98.8,59.6,98.8,59.6z"/>
					<path class="st13" d="M89.6,35c0,0-1.2,2.2-6.2,4.4c-3.1,1.4-6.7,1.3-9.8-0.2c1-1.1,2.2-2.1,3.3-3c1.2-0.9,2.4-1.7,3.6-2.3
						c1.3,0.5,2.6,0.9,4,1C86.3,35,87.9,35.1,89.6,35z"/>
					<path class="st13" d="M102.7,13.2c0,0-3.7,1.4-1.9,6c3.3,8.1,13.8,7.4,13.8,7.4c-2.7-1.3-5.1-3.3-6.8-5.8
						c-1.2-1.9-1.9-4.2-1.9-6.5c0,0-0.8-0.3-1.6-0.6L102.7,13.2z"/>
					<path class="st13" d="M169.5,54.6c0,0,10,7,5.7,14.6c-2.2,3.9-6.7,3.2-6.7,3.2l-0.2-3.5c0,0,3.6-1.1,4.5-4.5
						C174.1,59.2,169.5,54.6,169.5,54.6z"/>
					<path class="st13" d="M104.3,46.7c0,0-7.4-0.3-11.2,4.9c-5.9,8.1,0,12.5,0,12.5c1.1-0.6,2.1-1.2,3-1.9c1-0.8,1.9-1.7,2.7-2.6
						c0,0-1.4-2.3,0.1-6.2C100.2,50.1,104.3,46.7,104.3,46.7z"/>
					<path class="st13" d="M128.9,51c-2-0.1-3.9,0.8-5.2,2.4c-2.6,3.6-0.6,5.3-0.6,5.3s0.8-0.5,1.4-1.1c0.4-0.4,0.8-0.8,1.2-1.2
						c0.3-1.1,0.7-2.2,1.2-3.2C127.5,52.3,128.1,51.6,128.9,51z"/>
					<path class="st13" d="M141.4,19.2l-1.9-1.8c-1.5-0.1-2.9,1-3,2.5c0,0,0,0.1,0,0.1c-0.5,6.3,7.7,7,7.7,7c-1.1-1-2-2.2-2.4-3.6
						C141.5,22.1,141.4,20.7,141.4,19.2z"/>
					<path class="st13" d="M167.2,35.1l1.5,0.5c-0.3,1-1.2,1.6-2.2,1.5c-1.2,0-2.8-1.5-2.8-1.5c0.7,0,1.4-0.1,2.1-0.2
						C166.2,35.5,166.7,35.3,167.2,35.1z"/>
					<path class="st13" d="M141.1,35.5c-2.7-2-7.9,1.5-9.5,3.7c-0.9,1.2-1.3,3.4-0.1,4.6C135.5,47.5,147.5,40.3,141.1,35.5z"/>
					<path class="st13" d="M148.6,43.9c-1.9-0.9-5.3,2.1-3.5,3.3C147.4,48.6,150.9,44.9,148.6,43.9z"/>
					<path class="st13" d="M92.7,41.5c-3.5-0.5-6.4,1.3-8.5,3.9c-0.6,0.7-2,2.8-1.1,3.8c2.5,2.8,10-1.9,11.3-4.4
						c0.6-1.1,0.1-2.5-1-3.1C93.2,41.6,92.9,41.5,92.7,41.5z"/>
					<path class="st19" d="M137.8,93.1c-1-1.5,0.6-9.2,5.1-11.6c6.2-3.2,13.4-0.2,13.9,1s0.7,8.2-5.9,11.8
						C146.3,96.8,139,95,137.8,93.1z"/>
					<path class="st19" d="M109.5,93.2c1.3-1.9,1.2-9.7-5.1-12.9c-6.8-3.5-12.6,0.2-13.2,2c-0.5,1.4,0.6,6.8,6.8,10.7
						C103.2,96.3,108.2,95,109.5,93.2z"/>
					<path class="st16" d="M149.3,69.6c-2.5-1.3-5.7-0.6-7.9,1.1c-1.3,1-2.5,3.1-0.4,4c0.6,0.2,1.2,0.2,1.8-0.1
						c0.9-0.5,1.6-1.3,2.6-1.8s2.5-0.3,3.6-1C149.9,71.2,150.2,70.1,149.3,69.6z"/>
					<path class="st16" d="M110,71.4c-0.4-1.4-1.5-2.6-2.9-3.2c-0.9-0.4-1.8-0.6-2.8-0.7c-1.1-0.1-4.3,1.3-2.7,2.6
						c1,0.8,2.4,0.4,3.5,0.7s1.8,1.5,3.1,1.7C109.2,72.7,110.2,72.3,110,71.4z"/>
					<path class="st20" d="M95.3,99c-0.6-2.3-3.6-4.3-5.9-4.6c-1.3,0-2.5,0.9-2.7,2.2c-0.2,1.8,2.3,4.1,4.8,4.7
						C93.1,101.7,95.9,101.2,95.3,99z"/>
					<path class="st21" d="M127.5,136c0.1,0.9,0.1,1.8,0.1,2.7s0,1.8,0,2.7c0,1.8-0.1,3.6-0.2,5.3s-0.2,3.5-0.4,5.3l-0.2,2.7
						c-0.1,0.9-0.2,1.8-0.3,2.6c0,0.3-0.3,0.5-0.6,0.5c-0.3,0-0.5-0.3-0.5-0.5c0-0.9,0.1-1.8,0.1-2.7l0.1-2.6
						c0.1-1.8,0.1-3.5,0.2-5.3l0.3-5.3c0.1-0.9,0.1-1.8,0.1-2.6l0.1-1.3c0-0.4,0-0.9,0.1-1.3c0-0.3,0.3-0.5,0.6-0.5
						C127.2,135.5,127.5,135.7,127.5,136z"/>
					<path class="st7" d="M111.1,176.7c0,0-5.4-29.9-11.8-37s-15.5-2.7-13.5,7.2c2.3,11.7,15.6,30.5,15.6,30.5L111.1,176.7z"/>
					<path class="st8" d="M101.2,177.3l-2-3.2c0,0,1.2,1.1,5.5,0.3c4.6-0.8,5.3-3.3,5.3-3.3l1.2,5.6L101.2,177.3z"/>
					<path class="st22" d="M82.2,161.4c-0.9-6.2,5-9.7,5-9.7l1.4,3.3l3.2-0.9c1-0.2,2.1-0.2,3.1,0c0.9,0.4,0.4,1.6,0.4,1.6
						s1.3-0.1,1.8,0.7s-0.5,2.2-0.5,2.2s1.3,0.2,1.3,1.1c0.1,1.2-1.5,2.6-1.5,2.6c0.5,0.1,0.8,0.6,0.6,1.1c0,0.1-0.1,0.2-0.2,0.3
						c-1.5,2.1-4,3.4-6.6,3.6C86.5,167.7,82.7,165.1,82.2,161.4z"/>
					<path class="st23" d="M89.3,159c-0.1,0-0.2-0.1-0.3-0.1c-0.1-0.1-0.1-0.3,0.1-0.4c0,0,0,0,0,0c1.9-1.2,4-2.2,6.1-3.1
						c0.2-0.1,0.3,0,0.4,0.2c0,0,0,0,0,0c0.1,0.2,0,0.3-0.2,0.4c-2.1,0.8-4.1,1.8-6,3C89.4,158.9,89.3,159,89.3,159z"/>
					<path class="st23" d="M91.7,161.7c-0.1,0-0.2-0.1-0.3-0.2c-0.1-0.2,0-0.3,0.1-0.4c0,0,0,0,0,0c0,0,3.5-1.6,4.7-2.9
						c0.1-0.1,0.3-0.1,0.4,0c0.1,0.1,0.1,0.3,0,0.4c0,0,0,0,0,0c-1.2,1.4-4.7,3-4.9,3.1L91.7,161.7z"/>
					<path class="st23" d="M93.8,164.3c-0.1,0-0.2-0.1-0.3-0.2c-0.1-0.2,0-0.3,0.1-0.4c0.9-0.5,1.7-1.1,2.5-1.7
						c0.1-0.1,0.3-0.1,0.4,0.1c0,0,0,0,0,0c0.1,0.1,0.1,0.3-0.1,0.4c-0.8,0.6-1.7,1.2-2.6,1.7L93.8,164.3z"/>
					<path class="st24" d="M158.1,178.8c-2.7,0-5.4-0.6-7.7-2c-0.1-0.1-0.2-0.3-0.1-0.4c0,0,0,0,0,0c0.1-0.1,0.3-0.2,0.4-0.1
						c0,0,0,0,0,0c3.6,2,7.7,2.4,11.6,1.3c0.2,0,0.3,0,0.4,0.2c0,0,0,0,0,0c0,0.2-0.1,0.3-0.2,0.4
						C161.1,178.6,159.6,178.8,158.1,178.8z"/>
					<path class="st17" d="M132.9,182c0,0-5.2,0.8-7.5,4.4c-1.4,2-1.6,4.5-0.6,6.7c-0.8,0.9-1.5,1.9-1.9,3c-1.2,2.9-0.8,4.2,0.1,4.4
						c1.5,0.4,3.1-3,3.1-3c0,0.9,0.6,1.6,1.5,1.8c0.7,0,1.3-0.3,1.8-0.7c0,0-0.1,0.9,1.3,1.2c0.8,0.1,1.6-0.2,2.1-0.8
						c2.1-0.3,4-1.5,5.1-3.2c2-2.9,2.5-6.6,1.4-10L132.9,182z"/>
					<path class="st25" d="M126.3,196.9c0,0-0.1,0-0.1,0c-0.2-0.1-0.2-0.3-0.1-0.4c0,0,0,0,0,0c0.7-1.3,1.5-2.4,2.5-3.5
						c0.1-0.1,0.3-0.1,0.4,0c0.1,0.1,0.1,0.3,0,0.4c-0.9,1-1.7,2.2-2.4,3.4C126.5,196.9,126.4,196.9,126.3,196.9z"/>
					<path class="st25" d="M125.4,193c-0.1,0-0.1,0-0.2,0c-0.1-0.1-0.2-0.3-0.1-0.4c0.4-0.6,0.9-1.1,1.4-1.6c0.1-0.1,0.3-0.1,0.4,0
						c0.1,0.1,0.1,0.3,0,0.4c-0.5,0.5-0.9,0.9-1.3,1.5C125.6,193,125.5,193,125.4,193z"/>
					<path class="st25" d="M129.1,199.2c-0.1,0-0.1,0-0.1-0.1c-0.1-0.1-0.2-0.3-0.1-0.4c0.6-1.1,1.4-2.2,2.1-3.1
						c0.1-0.1,0.3-0.1,0.4,0c0.1,0.1,0.1,0.3,0,0.4c0,0,0,0,0,0c-0.8,1-1.5,2-2.1,3.1C129.3,199.2,129.2,199.2,129.1,199.2z"/>
					<path class="st25" d="M132.2,199.6c-0.1,0-0.2,0-0.2-0.1c-0.1-0.1-0.1-0.3,0-0.4c0,0,0,0,0,0c0.7-0.6,1.3-1.3,1.7-2.1
						c0.1-0.2,0.3-0.2,0.4-0.2s0.2,0.3,0.2,0.4l0,0c-0.5,0.9-1.1,1.7-1.9,2.3C132.3,199.6,132.3,199.6,132.2,199.6z"/>
					<path class="st15" d="M132.7,181.9c0,0-2,2.9,2.4,5c1.5,0.7,3.3,0.3,4.4-1L132.7,181.9z"/>
					<path class="st26" d="M126.1,204.1l-19-0.8c-0.6,0.1-1.2,0.2-1.8,0.4c-4.7,1.8,0.7,4.4,3.1,4.6c2.7,0.2,5.4-0.8,8.1-0.6
						c3.5,0.2,7,1.6,10.5,2.1c2.8,0.4,5.6-0.5,8.4-0.6c2.6-0.1,5.1,0.6,7.6,0.8c0.7,0.1,1.4,0.1,2.1,0c2.3-0.2,6.1-1,5.3-4
						c-0.5-1.8-4.4-2.3-6.1-2.3L126.1,204.1z"/>
					<path class="st26" d="M202.8,201.3c-0.4,0-6.7,0.8-3.9,1.6c1.3,0.3,2.6,0.2,3.9-0.1C204.2,202.3,204.4,201.4,202.8,201.3z"/>
					<path class="st26" d="M208.1,193.3c-1.8-1.5-5.1-0.3-7.2-0.1c-0.7,0-2.8,0.1-1.9,1.2c0.4,0.5,1.9,0.2,2.3,0.2l5.3-0.1
						C207.2,194.5,208.8,194,208.1,193.3z"/>
					<path class="st26" d="M62.6,197.8c-0.1,0-1.2-0.5-1.3-0.6c-0.7-0.2-5.3-0.5-5.5,0.5c-0.2,0.9,1.4,1.1,1.9,1.3
						c1.4,0.3,2.8,0.4,4.2,0.1C62.5,199.1,63.7,198.4,62.6,197.8z"/>
					<path class="st26" d="M78.9,198.7c-0.4-0.7-4-0.3-3.7,0.5C75.3,199.5,79.8,200.5,78.9,198.7z"/>
					<path class="st26" d="M187.7,204.6c-0.6-0.7-2-0.6-2.8-0.5c-2.3,0.2-4.6,0.2-6.9,0.2c-0.6,0-2.4-0.1-2.6,0.7
						c-0.2,1.2,2.4,1.1,3.1,1.2c2.5,0.2,5,0.2,7.6-0.1C186.8,206.1,188.6,205.7,187.7,204.6z"/>
					<path class="st27" d="M166.7,69.7c-2.3-0.1-4.6-0.9-6.5-2.3c-6.6-4.5-7.7-9.6-7.8-12c-2.7,1.9-10.1,6.6-18.3,6.8
						c-4,0.1-6.8-0.7-8.2-2.5c-0.5-0.6-0.8-1.3-0.9-2c-2.3,2.1-7.9,6.4-14.1,6.8c-8.2,0.4-11.3-2.4-12.3-3.9c-1.9,1.9-4,3.4-6.4,4.6
						c-5.5,2.8-12,2.6-17.3-0.5c-0.3-0.2-0.4-0.6-0.2-0.9c0.2-0.3,0.6-0.4,0.9-0.2l0,0c12.6,7.1,22.6-4.3,22.7-4.4
						c0.2-0.3,0.6-0.3,0.9-0.1c0.1,0.1,0.1,0.2,0.2,0.3c0,0,1.8,4.4,11.5,3.9c7.5-0.4,14.3-7.4,14.4-7.4c0.2-0.3,0.6-0.3,0.9,0
						c0.2,0.2,0.2,0.4,0.2,0.6c-0.2,0.9,0,1.9,0.6,2.6c1.1,1.4,3.6,2.1,7.1,2c9.6-0.3,18.5-7.3,18.6-7.3c0.2-0.1,0.5-0.1,0.7,0
						c0.2,0.1,0.3,0.4,0.3,0.6c0,0.3-0.9,6.5,7.3,12.1c4.2,2.9,7,2,7.1,1.9c0.3-0.1,0.7,0.1,0.8,0.4c0.1,0.3-0.1,0.7-0.4,0.8
						C167.9,69.7,167.3,69.7,166.7,69.7z"/>
					<g>
						<path class="st28" d="M126,30.4L126,30.4c-11.2-1.3-16.3-5.5-18.5-8.8c-1.5-2-2.3-4.5-2.3-7c0-0.3,0.3-0.6,0.6-0.6
							c0,0,0.1,0,0.1,0c0.3,0,0.6,0.3,0.6,0.7c0,2.3,0.8,4.5,2.1,6.3c3,4.4,9.1,7.2,17.5,8.2c0.3,0,0.6,0.3,0.6,0.7
							C126.7,30.2,126.4,30.5,126,30.4L126,30.4z"/>
						<path class="st28" d="M87.3,35.7c-2.4,0-4.7-0.4-6.9-1.2c-0.3-0.1-0.5-0.4-0.5-0.8c0.1-0.3,0.4-0.5,0.8-0.5c0,0,0.1,0,0.1,0
							c5.4,1.9,11.3,1.3,16.2-1.5c0.3-0.1,0.7,0.1,0.8,0.4c0.1,0.2,0,0.4-0.1,0.6C94.6,34.7,91,35.7,87.3,35.7z"/>
						<path class="st28" d="M98.9,60.4c-0.2,0-0.5-0.1-0.6-0.4c-1.4-3-0.7-6.7,2.2-10.3s7.2-6.6,9.3-6.2c0.3,0.1,0.6,0.4,0.5,0.7
							c-0.1,0.3-0.4,0.6-0.7,0.5c0,0,0,0,0,0c-1.2-0.2-5.2,2.1-8,5.8c-1.4,1.9-3.7,5.6-2,9c0.1,0.3,0,0.7-0.3,0.8c0,0,0,0,0,0
							C99.1,60.4,99,60.4,98.9,60.4z"/>
						<path class="st28" d="M125.7,57h-0.1c-0.3-0.1-0.6-0.4-0.5-0.7c0.9-5,4.4-6.3,4.5-6.3c0.3-0.1,0.7,0.1,0.8,0.4
							c0.1,0.3-0.1,0.7-0.4,0.8c-0.1,0-3,1.1-3.7,5.4C126.3,56.8,126,57,125.7,57z"/>
						<path class="st28" d="M168.2,69.4c-0.3,0-0.6-0.2-0.6-0.5c-0.1-0.3,0.2-0.7,0.5-0.7c0,0,0,0,0,0c1.9-0.4,3.4-1.8,4-3.6
							c0.7-2.2,0.4-6.1-5.3-12.1c-0.3-0.2-0.3-0.6,0-0.9c0.2-0.3,0.6-0.3,0.9,0c0,0,0,0,0,0c6.1,6.4,6.4,10.8,5.6,13.4
							c-0.8,2.3-2.7,3.9-5,4.4L168.2,69.4z"/>
						<path class="st28" d="M150.8,31.4h-0.1c-0.1,0-10.7-2.4-9.8-12.1c0-0.3,0.3-0.6,0.7-0.6s0.6,0.3,0.6,0.7l0,0
							c-0.8,8.5,8.4,10.7,8.8,10.7c0.3,0.1,0.6,0.4,0.5,0.8C151.4,31.2,151.1,31.4,150.8,31.4z"/>
						<path class="st28" d="M157.4,32.8c-0.1,0-0.1,0-0.2,0c-0.3-0.1-0.5-0.5-0.4-0.8c0,0,0,0,0,0c0.2-1.1,0.3-2.2,0.2-3.3
							c0-0.3,0.3-0.6,0.6-0.7c0.3,0,0.6,0.3,0.7,0.6c0.1,1.3,0,2.5-0.3,3.8C157.9,32.6,157.7,32.8,157.4,32.8z"/>
						<path class="st28" d="M164.2,36.3c-0.6,0-1.1-0.1-1.7-0.2c-0.3-0.1-0.5-0.5-0.4-0.8c0.1-0.3,0.5-0.5,0.8-0.4
							c1.3,0.3,2.8,0.2,4-0.5c0.3-0.1,0.7,0,0.8,0.3c0,0,0,0,0,0c0.1,0.3,0,0.7-0.3,0.8c0,0,0,0,0,0
							C166.4,36.1,165.3,36.3,164.2,36.3z"/>
						<path class="st28" d="M104,33c-0.2,0-0.4-0.1-0.5-0.3c-0.2-0.3-0.1-0.7,0.2-0.9c1.3-0.8,2.9-1.1,4.4-0.7
							c0.3,0.1,0.5,0.4,0.5,0.7c0,0,0,0,0,0c-0.1,0.3-0.4,0.5-0.8,0.5c-1.2-0.3-2.4-0.1-3.4,0.5C104.2,33,104.1,33,104,33z"/>
						<path class="st28" d="M86.8,21.7c-0.2,0-0.5-0.1-0.6-0.3c-0.2-0.3,0-0.7,0.3-0.8c0,0,0,0,0,0c1.5-0.6,3.1-0.7,4.7-0.2
							c0.3,0.1,0.5,0.4,0.5,0.8c0,0,0,0,0,0c-0.1,0.3-0.4,0.5-0.8,0.5c-1.2-0.4-2.6-0.3-3.8,0.1C87,21.7,86.9,21.7,86.8,21.7z"/>
						<path class="st28" d="M125.1,20.3c-0.2,0-0.3-0.1-0.5-0.2c-0.9-0.9-2-1.4-3.2-1.7c-0.3-0.1-0.5-0.4-0.5-0.8
							c0.1-0.3,0.3-0.5,0.6-0.5c1.5,0.3,2.8,1,3.9,2c0.2,0.2,0.2,0.6,0,0.9C125.4,20.2,125.3,20.3,125.1,20.3z"/>
						<path class="st28" d="M116.1,48.4c-0.1,0-0.2,0-0.3-0.1c-0.3-0.2-0.4-0.6-0.2-0.9c1.1-1.8,2.9-3.1,5-3.6
							c0.3-0.1,0.7,0.1,0.8,0.5c0.1,0.3-0.1,0.7-0.5,0.8c-1.7,0.5-3.2,1.5-4.2,3C116.6,48.2,116.3,48.4,116.1,48.4z"/>
						<path class="st28" d="M163.5,54.7c-0.3,0-0.6-0.2-0.6-0.5c0,0-0.5-2.5-1.9-3.4c-0.3-0.2-0.4-0.6-0.2-0.9
							c0.2-0.3,0.6-0.4,0.8-0.2c1.9,1.2,2.4,4.1,2.5,4.2c0.1,0.3-0.1,0.7-0.5,0.7c0,0,0,0,0,0L163.5,54.7z"/>
						<path class="st28" d="M174.2,48.5c-0.3,0-0.5-0.2-0.6-0.4c-0.4-0.9-1.1-1.6-1.9-2.1c-0.3-0.2-0.4-0.5-0.3-0.8c0,0,0,0,0,0
							c0.2-0.3,0.5-0.4,0.9-0.3c1.1,0.6,2,1.6,2.5,2.8c0.1,0.3,0,0.7-0.3,0.8c0,0,0,0,0,0C174.4,48.5,174.3,48.5,174.2,48.5z"/>
					</g>
					<g>
						<defs>
							<path id="SVGID_00000005232769723562057930000015016342752585427875_" d="M137.8,93.1c-1-1.5,0.6-9.2,5.1-11.6
								c6.2-3.2,13.4-0.2,13.9,1s0.7,8.2-5.9,11.8C146.3,96.8,139,95,137.8,93.1z"/>
						</defs>
						<clipPath id="SVGID_00000124137632223478897960000014914332017063561637_">
							<use xlink:href="#SVGID_00000005232769723562057930000015016342752585427875_"  style="overflow:visible;"/>
						</clipPath>
						<g style="clip-path:url(#SVGID_00000124137632223478897960000014914332017063561637_);">
							<path class="st30" d="M137.6,92.8c0,0,1.3-5.6,6-8.3c4-2.3,8.7-3,13.2-2.1c0,0-6.3-5.1-14.8-0.3c-1.8,1-3.6,4.3-4,6.5
								C137.6,89.9,137.5,91.3,137.6,92.8z"/>
							<circle class="st31" cx="146.1" cy="93.1" r="6.1"/>
							<path class="st19" d="M145.1,87.8c0,0.9-0.7,1.7-1.7,1.7c-0.9,0-1.7-0.7-1.7-1.7c0-0.9,0.7-1.7,1.7-1.7c0,0,0,0,0,0
								C144.4,86.1,145.1,86.9,145.1,87.8L145.1,87.8z"/>
							<path class="st32" d="M152.6,84.9c0,1.6-1.3,2.9-2.9,2.8c-1.6,0-2.9-1.3-2.8-2.9c0-1.6,1.3-2.9,2.9-2.8
								C151.3,82,152.6,83.3,152.6,84.9C152.6,84.9,152.6,84.9,152.6,84.9z"/>
						</g>
					</g>
					<g>
						<defs>
							<path id="SVGID_00000143581287668004251620000016869013525989564295_" d="M109.5,93.2c1.3-1.9,1.2-9.7-5.1-12.9
								c-6.8-3.5-12.6,0.2-13.2,2c-0.5,1.4,0.6,6.8,6.8,10.7C103.2,96.3,108.2,95,109.5,93.2z"/>
						</defs>
						<clipPath id="SVGID_00000065058700099554454760000014088506908761958283_">
							<use xlink:href="#SVGID_00000143581287668004251620000016869013525989564295_"  style="overflow:visible;"/>
						</clipPath>
						<g style="clip-path:url(#SVGID_00000065058700099554454760000014088506908761958283_);">
							<path class="st30" d="M109.4,93.1c0,0,0.4-5.1-6.2-9.7c-3.5-2.5-8.1-3.1-12.1-1.5c3.6-3.5,9.1-4.2,13.4-1.6
								C112.7,84.8,109.4,93.1,109.4,93.1z"/>
							<circle class="st31" cx="101.2" cy="92.2" r="6.1"/>
							<path class="st19" d="M101,86.7c0,0.9-0.7,1.7-1.7,1.7c-0.9,0-1.7-0.7-1.7-1.7c0-0.9,0.7-1.7,1.7-1.7
								C100.2,85.1,101,85.8,101,86.7C101,86.7,101,86.7,101,86.7z"/>
							<path class="st32" d="M100,83.8c0,1.6-1.3,2.9-2.9,2.9s-2.9-1.3-2.9-2.9c0-1.6,1.3-2.9,2.9-2.9c0,0,0,0,0,0
								C98.7,80.9,100,82.2,100,83.8z"/>
						</g>
					</g>
					<path class="st34" d="M145.5,96c-3.7,0-7.2-1.3-8.1-2.7c-0.6-0.9-0.4-3.1,0.1-4.7c0.3-1.3,1.7-5.7,5.2-7.5
						c3.6-1.7,7.7-2,11.4-0.7c1.3,0.4,2.8,1.2,3.2,1.9c0.6,1.2,0.8,8.6-6.1,12.4C149.4,95.6,147.5,96,145.5,96z M138.2,92.8
						c1.1,1.6,8,3.6,12.5,1.1c6.3-3.5,6.1-10.2,5.7-11.2c-0.7-0.7-1.6-1.2-2.6-1.4c-3.5-1.2-7.3-1-10.7,0.6
						c-3.1,1.6-4.4,5.7-4.7,6.9C137.8,90.8,137.9,92.3,138.2,92.8L138.2,92.8z"/>
					<path class="st34" d="M104.5,95.5c-2.4,0-4.8-0.8-6.8-2.1c-6.4-4.1-7.6-9.7-7-11.3c0.4-1,2-2.3,3.9-3c3.3-1.2,6.9-0.9,10,0.7
						c2.9,1.5,4.9,4.2,5.7,7.3c0.7,2.8,0.3,5.3-0.4,6.3S107.1,95.5,104.5,95.5z M98.7,79.3c-1.3,0-2.6,0.2-3.8,0.7
						c-1.4,0.4-2.5,1.3-3.3,2.5c-0.4,1,0.4,6.2,6.6,10.2c5,3.2,9.8,1.9,10.9,0.3c0.6-0.8,0.8-3.2,0.2-5.5c-0.7-2.9-2.6-5.3-5.2-6.7
						C102.5,79.8,100.6,79.3,98.7,79.3z"/>
					<path class="st35" d="M158.9,83.1c-0.7,0.2-1.5,0.2-2.2,0c-0.3-0.1-0.7-0.2-1-0.4l-0.4-0.2l-0.4-0.2c-1.1-0.5-2.2-0.9-3.3-1.1
						c-2.3-0.5-4.6-0.3-6.8,0.4l-0.8,0.3c-0.3,0.1-0.5,0.2-0.8,0.4c-0.5,0.2-1,0.5-1.4,0.9c-0.9,0.7-1.6,1.6-2.1,2.6
						c-0.6,1-1,2.1-1.3,3.2c-0.1,0.6-0.3,1.2-0.4,1.8s-0.1,1.2-0.2,1.8l0,0c0,0.3-0.3,0.5-0.6,0.5c0,0,0,0,0,0
						c-0.3,0-0.5-0.2-0.5-0.5c0-0.6,0-1.3,0-1.9c0-0.6,0.1-1.3,0.2-1.9c0.2-1.3,0.7-2.5,1.2-3.6c0.6-1.2,1.4-2.3,2.5-3.2
						c0.5-0.4,1.1-0.8,1.7-1.1c0.3-0.2,0.6-0.3,0.9-0.4l0.9-0.4c2.5-0.9,5.2-1.1,7.9-0.5c1.3,0.3,2.5,0.7,3.7,1.3l0.4,0.2
						c0.1,0.1,0.3,0.2,0.4,0.2c0.2,0.2,0.5,0.3,0.7,0.4c0.4,0.2,0.9,0.4,1.4,0.5h0.1c0.3,0.1,0.5,0.3,0.4,0.7
						C159.2,82.9,159.1,83,158.9,83.1L158.9,83.1z"/>
					<path class="st35" d="M109.4,92.6c0.1-0.6,0.2-1.3,0.2-1.9c0-0.6,0-1.3-0.1-1.9c-0.1-1.3-0.5-2.5-1-3.6
						c-0.5-1.1-1.3-2.1-2.2-2.9c-0.5-0.4-1-0.8-1.5-1.1c-0.5-0.3-1.1-0.6-1.7-0.8c-1.1-0.5-2.3-0.7-3.6-0.7c-1.2,0-2.4,0.2-3.6,0.5
						c-0.6,0.2-1.2,0.4-1.7,0.7c-0.3,0.1-0.5,0.3-0.8,0.4l-0.2,0.1L93,81.4c-0.2,0.1-0.3,0.2-0.5,0.3c-0.7,0.3-1.5,0.5-2.3,0.5
						c-0.4,0-0.8-0.1-1.2-0.2c-0.4-0.2-0.7-0.4-1-0.7c-0.2-0.2-0.2-0.5,0-0.7c0.1-0.1,0.3-0.2,0.5-0.1l0,0c0.5,0.2,1,0.2,1.5,0.1
						c0.5-0.1,1.1-0.3,1.5-0.6l0.3-0.2l0.1-0.1l0.1-0.1l0.2-0.2c0.3-0.2,0.6-0.4,0.9-0.5c0.6-0.3,1.3-0.6,2-0.8
						c1.4-0.4,2.8-0.6,4.3-0.5c1.4,0.1,2.9,0.4,4.2,1c0.7,0.3,1.3,0.6,1.9,1c0.6,0.4,1.2,0.8,1.7,1.3c1,1,1.9,2.2,2.4,3.5
						c0.5,1.3,0.8,2.7,0.9,4.1c0,0.7,0,1.4,0,2.1c-0.1,0.7-0.2,1.4-0.3,2.1c-0.1,0.3-0.3,0.5-0.6,0.4
						C109.4,93.1,109.3,92.8,109.4,92.6L109.4,92.6L109.4,92.6z"/>
					<path class="st23" d="M80.7,89.9L80.7,89.9c-0.2,0-0.3-0.2-0.3-0.3c0,0,0,0,0,0c0.3-3.9,1.2-7.7,2.8-11.2
						c0.6-1.5,1.1-3,1.4-4.5l0.2-1.1c0-0.2,0.2-0.3,0.4-0.3c0.2,0,0.3,0.2,0.2,0.4l-0.2,1.1c-0.3,1.6-0.8,3.1-1.5,4.6
						c-1.5,3.5-2.4,7.2-2.7,11C81.1,89.7,81,89.9,80.7,89.9C80.8,89.9,80.8,89.9,80.7,89.9z"/>
					<path class="st23" d="M171.6,92.2c-0.2,0-0.3-0.1-0.3-0.3c-0.4-3.2-1-6.3-1.9-9.4c-0.5-1.7-0.8-3.4-1-5.1
						c0-0.2,0.1-0.3,0.3-0.3c0,0,0,0,0,0c0.2,0,0.3,0.1,0.3,0.3c0.2,1.7,0.5,3.4,1,5c0.9,3.1,1.5,6.3,1.9,9.5
						C171.9,92,171.8,92.2,171.6,92.2C171.6,92.2,171.6,92.2,171.6,92.2L171.6,92.2z"/>
					<g>
						<path class="st6" d="M153.1,122.6c8.3,5.4,13.1,14.9,12.7,24.8c-0.6,20.8-17.1,33.2-21,36c-3.1,2.3-6.6,3.5-9.6,1.6
							c-2.6-1.6-3.4-3.8-1.3-7.8c3.1-6.1,6.7-9.7,10.3-17.3c1.5-3.2,2.7-6.5,3.5-10c0.3-1.3,0.5-2.6,0.6-3.9c0,0-1-7.4,0.3-13.2
							C149.4,129.1,150.9,125.7,153.1,122.6z"/>
						<path class="st11" d="M104.4,125c0,0-1.7,4.5,7.6,7c6.1,1.6,13.2-1.8,13.2-1.8s-5,1.9-12.5,0C105.5,128.4,104.4,125,104.4,125
							z"/>
						<path class="st11" d="M131.9,132c0,0,3.8,3.9,11.1,1.3c4.1-1.3,7-4.8,7.6-9c0,0-2,4.1-8.5,6.6S131.9,132,131.9,132z"/>
						<path class="st9" d="M137.5,128.5c0-0.6,0.5-1.2,1.1-1.2c0.6,0,1.2,0.5,1.2,1.2c0,0.6-0.5,1.2-1.2,1.2
							C138.1,129.7,137.5,129.2,137.5,128.5z"/>
						<path class="st9" d="M111.4,128.1c0-0.7,0.5-1.3,1.2-1.3s1.3,0.5,1.3,1.2c0,0.7-0.5,1.3-1.2,1.3c0,0,0,0,0,0
							C112,129.3,111.4,128.8,111.4,128.1C111.4,128.1,111.4,128.1,111.4,128.1z"/>
						<path class="st36" d="M133.4,144.7c0-1.1,0.8-2,1.9-2.1c1.1,0,2,0.8,2.1,1.9c0,1.1-0.8,2-1.9,2.1c0,0-0.1,0-0.1,0
							C134.4,146.6,133.5,145.8,133.4,144.7z"/>
						<path class="st36" d="M113.3,142.4c0-1.2,1-2.1,2.2-2.1c1.2,0,2.1,1,2.1,2.2c0,1.2-1,2.1-2.1,2.1
							C114.2,144.6,113.2,143.6,113.3,142.4C113.3,142.4,113.3,142.4,113.3,142.4z"/>
						<g>
							<path class="st37" d="M144,176h-0.1l-4.2-1.5c-0.2-0.1-0.3-0.2-0.2-0.4c0.1-0.2,0.2-0.2,0.4-0.2c0,0,0,0,0,0l4.2,1.5
								c0.2,0.1,0.2,0.2,0.2,0.4C144.2,175.9,144.1,176,144,176z"/>
							<path class="st37" d="M151.9,150.1c-0.1,0-0.2-0.1-0.3-0.2c-0.1-0.2,0-0.3,0.2-0.4c0,0,0,0,0,0l4.1-1.6
								c0.2-0.1,0.3,0,0.4,0.2c0.1,0.2,0,0.3-0.2,0.4l-4.1,1.6C152,150.1,152,150.1,151.9,150.1z"/>
							<path class="st37" d="M153.9,133.3c0,0-0.1,0-0.1,0l-3.2-1.8c-0.2-0.1-0.3-0.2-0.2-0.4c0.1-0.2,0.2-0.3,0.4-0.2
								c0,0,0.1,0,0.1,0.1l3.2,1.8c0.2,0.1,0.2,0.3,0.1,0.4c0,0,0,0,0,0C154.1,133.3,154,133.3,153.9,133.3z"/>
							<path class="st37" d="M105.8,142.2L105.8,142.2c-0.2,0-0.3-0.2-0.3-0.3l0.3-3.6c0-0.2,0.2-0.3,0.3-0.3c0.2,0,0.3,0.2,0.3,0.3
								l0,0l-0.3,3.6C106.1,142,106,142.2,105.8,142.2C105.8,142.2,105.8,142.2,105.8,142.2z"/>
							<path class="st37" d="M116.5,152.1c-0.2,0-0.3-0.1-0.3-0.3c0-0.1,0.1-0.2,0.2-0.3l3.6-1.8c0.2-0.1,0.3,0,0.4,0.1
								c0.1,0.1,0,0.3-0.1,0.4c0,0,0,0,0,0l-3.6,1.8C116.6,152,116.5,152,116.5,152.1z"/>
						</g>
						<g>
							<path class="st38" d="M150.3,166.8C150.3,166.8,150.3,166.8,150.3,166.8c-0.1,0-0.2-0.1-0.2-0.1l0.4-7.3c0-0.1,0-0.1,0.1-0.1
								c0,0,0.1,0,0.1,0l6,3.6c0,0,0.1,0.1,0.1,0.1c0,0.1,0,0.1-0.1,0.1L150.3,166.8C150.4,166.8,150.4,166.8,150.3,166.8z
								 M150.8,159.6l-0.3,6.7l5.9-3.3L150.8,159.6z"/>
							<path class="st38" d="M163.8,157.3c-0.1,0-0.1,0-0.1-0.1l-2.6-5.5c0,0,0-0.1,0-0.1c0-0.1,0.1-0.1,0.1-0.1l4-0.2
								c0.1,0,0.2,0.1,0.2,0.1c0,0.1-0.1,0.2-0.1,0.2l-3.8,0.2l2.5,5.3C163.9,157.2,163.9,157.3,163.8,157.3
								C163.8,157.3,163.8,157.3,163.8,157.3L163.8,157.3z"/>
							<path class="st38" d="M130.5,157.6C130.5,157.7,130.4,157.7,130.5,157.6c-0.1,0-0.2-0.1-0.2-0.1v-7.6c0-0.1,0-0.1,0.1-0.1
								c0,0,0.1,0,0.2,0l6.6,4.8c0,0,0.1,0.1,0.1,0.1c0,0.1,0,0.1-0.1,0.1L130.5,157.6L130.5,157.6z M130.6,150.2v7.1l6.1-2.6
								L130.6,150.2z"/>
							<path class="st38" d="M143.1,144.6c-0.1,0-0.1,0-0.1-0.1l-2.9-6.9c0,0,0-0.1,0-0.2c0-0.1,0.1-0.1,0.2-0.1l6.6,1.6
								c0,0,0.1,0.1,0.1,0.1c0,0,0,0.1,0,0.1l-3.6,5.2C143.2,144.6,143.2,144.6,143.1,144.6z M140.5,137.8l2.7,6.3l3.3-4.8
								L140.5,137.8z"/>
						</g>
						<path class="st39" d="M118.9,131.2c-3.6,0-7.1-0.6-10.4-1.8c-5.1-1.9-4.8-4-4.8-4.1s0.3-0.3,0.6-0.3s0.5,0.2,0.5,0.4
							s-0.2,1.9,4.2,3.5c5,1.8,10.5,2.2,15.7,1.1c0.2-0.1,0.5,0,0.7,0.2c0.1,0.2,0,0.4-0.3,0.4C123.1,131,121,131.3,118.9,131.2z"/>
						<path class="st39" d="M134.9,132.4c-1.5,0.1-3.1-0.2-4.5-0.9c-0.2-0.1-0.2-0.3-0.1-0.5c0,0,0-0.1,0.1-0.1
							c0.2-0.2,0.5-0.2,0.7-0.1c0,0,2.4,1.3,7.5,0.4c9.9-1.9,12.4-7.5,12.4-7.6c0.1-0.2,0.4-0.3,0.6-0.2c0.2,0,0.3,0.2,0.3,0.4
							c0,0,0,0,0,0.1c-0.1,0.2-2.6,6.1-13.1,8.1C137.5,132.2,136.2,132.4,134.9,132.4z"/>
						<path class="st19" d="M135.6,143.9c-0.1,0-0.1,0-0.2,0c-0.2-0.1-0.3-0.4-0.2-0.6c0,0,0,0,0,0c0-0.1,4.3-8.5,3.1-14.6
							c0-0.2,0.1-0.5,0.4-0.5c0,0,0,0,0,0c0.2-0.1,0.5,0.1,0.5,0.4c0,0,0,0,0,0c1.3,6.4-3,14.8-3.2,15.1
							C135.9,143.8,135.8,143.9,135.6,143.9z"/>
						<path class="st19" d="M114.7,142.1c-0.1,0-0.3,0-0.3-0.1c-0.2-0.2-5.6-5.6-2.1-14.4c0.1-0.2,0.4-0.3,0.6-0.3
							c0.2,0.1,0.4,0.3,0.3,0.5c0,0,0,0,0,0c-3.3,8.3,1.9,13.5,1.9,13.5c0.2,0.1,0.2,0.4,0,0.6c0,0,0,0,0,0
							C115,142.1,114.9,142.1,114.7,142.1z"/>
					</g>
					<path class="st9" d="M99.1,175.8c1.9,0.4,3.9,0.6,5.9,0.6c4.9-0.1,6.3-1.9,6.3-1.9l1.6,12.5c0.1,1-0.6,1.9-1.5,2
						c0,0-0.1,0-0.1,0l-13.5,0.7c0,0-3.3-1.3-2.2-3.4c1.4-2.7,6.9-2.9,6.9-2.9L99.1,175.8z"/>
					<path class="st24" d="M104.8,178.7c-1.8,0-3.6-0.4-5.2-1.2c-0.2-0.1-0.2-0.3-0.2-0.4c0.1-0.2,0.2-0.2,0.4-0.2c0,0,0,0,0,0
						c3.7,1.7,8,1.4,11.3-0.8c0.1-0.1,0.3-0.1,0.4,0c0.1,0.1,0.1,0.3,0,0.4C109.7,178.1,107.3,178.8,104.8,178.7z"/>
					<path class="st39" d="M89.9,168c-1.6,0-3.2-0.4-4.6-1.2c-2-1.1-3.3-3.1-3.7-5.3c-0.9-6.5,4.3-10.2,4.6-10.3
						c0.2-0.2,0.6-0.2,0.8,0c0.2,0.2,0.2,0.6,0,0.8c0,0-0.1,0.1-0.1,0.1c0,0-4.9,3.5-4.1,9.3c0.3,1.9,1.5,3.6,3.2,4.5
						c1.5,0.9,4.2,1.7,8,0.3c0.3-0.1,0.6,0,0.7,0.3c0.1,0.3,0,0.6-0.3,0.7C92.9,167.7,91.4,168,89.9,168z"/>
					<path class="st40" d="M94.7,166.8c-0.2,0-0.3-0.1-0.4-0.2c-0.1-0.2-0.1-0.5,0.1-0.6c0,0,0,0,0,0c0.9-0.6,1.7-1.3,2.4-2.2
						c0.4-0.6-0.3-1.2-0.3-1.3c-0.1-0.1-0.2-0.3-0.2-0.4c0-0.2,0.1-0.3,0.2-0.4c0.8-0.4,1.3-1.2,1.3-2.1c-0.1-0.6-0.9-0.9-0.9-0.9
						c-0.1,0-0.2-0.1-0.3-0.3c-0.1-0.1-0.1-0.3,0-0.4c0.3-0.5,0.4-1.1,0.3-1.7c-0.2-0.4-0.6-0.6-1.1-0.7c-0.2,0-0.4-0.2-0.4-0.4
						c-0.1-0.5-0.4-0.8-0.8-1.1c-0.9-0.2-1.8-0.2-2.7,0.1l-3,1c-0.2,0.1-0.5-0.1-0.6-0.3c-0.1-0.2,0.1-0.5,0.3-0.6l3-1
						c0.2-0.1,2.2-0.7,3.4,0c0.6,0.3,1,0.8,1.2,1.4c0.6,0.1,1.1,0.5,1.4,1.1c0.3,0.7,0.2,1.4-0.1,2.1c0.6,0.3,1,0.8,1.1,1.4
						c0.1,1.1-0.4,2.1-1.3,2.7c0.5,0.6,0.5,1.4,0.1,2.1c-0.7,1-1.6,1.8-2.7,2.4C94.9,166.8,94.8,166.8,94.7,166.8z"/>
					<path class="st41" d="M230.8,197.8c0.1,0.6-0.1,1.2-0.4,1.8c-0.3,0.5-0.7,1-1.2,1.3c-0.9,0.7-1.9,1.2-3,1.6
						c-2.1,0.7-4.2,1.3-6.4,1.7c-4.3,0.9-8.7,1.4-13,2.2c-1.1,0.2-2.1,0.4-3.2,0.7c-0.5,0.1-1,0.3-1.5,0.5c-0.5,0.2-0.9,0.4-1.3,0.7
						c-0.2,0.1-0.3,0.3-0.4,0.5c-0.1,0.2-0.2,0.4-0.2,0.6c-0.1,0.6-0.2,1.1-0.4,1.7c-0.3,0.6-0.6,1.1-1.1,1.5
						c-0.4,0.4-0.9,0.7-1.4,1c-1,0.5-2,1-3.1,1.3c-1.1,0.3-2.1,0.6-3.2,0.9c-2.2,0.5-4.3,0.9-6.5,1.2l-6.5,0.9l-6.5,1
						c-4.4,0.6-8.7,1.2-13.1,1.5s-8.8,0.4-13.2,0.3s-8.8-0.3-13.2-0.7c-1.1-0.1-2.2-0.2-3.3-0.3l-3.3-0.3c-1.1-0.1-2.2-0.2-3.3-0.3
						l-1.6-0.2l-0.8-0.1l-0.8-0.1c-1.1-0.2-2.2-0.3-3.3-0.5l-1.6-0.3l-1.6-0.4c-0.6-0.1-1.1-0.3-1.6-0.4c-0.3-0.1-0.5-0.1-0.8-0.2
						l-0.8-0.3l-0.4-0.1l-0.4-0.2c-0.3-0.1-0.5-0.2-0.8-0.4c-0.2-0.2-0.5-0.3-0.8-0.5c-0.2-0.2-0.5-0.4-0.7-0.6
						c-0.4-0.4-0.8-0.9-1.1-1.3c-0.3-0.4-0.7-0.7-1.1-0.9l-0.3-0.2l-0.2-0.1l-0.2-0.1l-0.7-0.3c-0.5-0.2-1-0.3-1.5-0.5
						c-2.1-0.6-4.2-1.1-6.4-1.4c-4.3-0.7-8.7-1.1-13-1.5c-8.8-0.7-17.5-1-26.3-1.8c-4.4-0.4-8.8-1-13.1-1.9
						c-1.1-0.2-2.2-0.5-3.2-0.9c-1.1-0.3-2.1-0.7-3.1-1.2c-1-0.5-2-1.2-2.8-2c-0.4-0.4-0.7-0.9-1-1.4c-0.3-0.5-0.4-1.1-0.5-1.7
						l0.6-0.1c0.1,0.5,0.2,1,0.4,1.5c0.2,0.5,0.5,0.9,0.9,1.2c0.8,0.7,1.6,1.3,2.6,1.8c2,0.9,4,1.6,6.2,2c4.3,0.8,8.6,1.4,13,1.7
						c8.7,0.7,17.5,1,26.3,1.6c4.4,0.3,8.8,0.7,13.1,1.4c2.2,0.3,4.4,0.8,6.5,1.4c0.5,0.1,1.1,0.3,1.6,0.5l0.8,0.3l0.2,0.1l0.2,0.1
						l0.4,0.2c0.3,0.2,0.5,0.3,0.8,0.5c0.1,0.1,0.2,0.2,0.3,0.3l0.3,0.3c0.4,0.4,0.7,0.9,1.1,1.2c0.7,0.7,1.6,1.2,2.6,1.5l0.8,0.3
						c0.2,0.1,0.5,0.1,0.8,0.2c0.5,0.1,1,0.3,1.6,0.4l1.6,0.3l1.6,0.3c1.1,0.2,2.2,0.3,3.2,0.5l0.8,0.1l0.8,0.1l1.6,0.2
						c1.1,0.1,2.2,0.2,3.3,0.3l3.3,0.3c1.1,0.1,2.2,0.2,3.3,0.3c2.2,0.2,4.4,0.3,6.6,0.4c1.1,0.1,2.2,0.1,3.3,0.1l1.6,0.1h1.6
						c4.4,0.1,8.8,0,13.1-0.3c8.7-0.6,17.4-2.2,26.1-3.3c2.2-0.3,4.3-0.7,6.4-1.1c1.1-0.2,2.1-0.5,3.1-0.8c1-0.3,2-0.7,2.9-1.2
						c0.9-0.4,1.6-1.1,2.1-2c0.2-0.5,0.3-1,0.4-1.5c0.1-0.3,0.2-0.6,0.3-0.9c0.2-0.3,0.4-0.6,0.7-0.8c0.5-0.4,1-0.6,1.6-0.8
						c0.5-0.2,1.1-0.4,1.6-0.5c1.1-0.3,2.2-0.5,3.3-0.7c4.3-0.8,8.7-1.3,13-2c2.1-0.4,4.3-0.9,6.3-1.6c1-0.3,2-0.8,2.8-1.4
						c0.4-0.3,0.7-0.7,1-1.1c0.2-0.4,0.4-0.9,0.3-1.4L230.8,197.8z"/>
					<path class="st42" d="M145.1,208c-0.4,0-0.8-0.1-1.1-0.3c-1.2-0.7-5.1-2.6-8.1-2.4c-1.3,0.1-2.6,0.4-3.8,1
						c-1.9,0.9-3.9,1.4-6,1.3c-2.4,0-4.7-0.5-6.8-1.5c-1.3-0.7-2.7-1.1-4.2-1.2c-2.4,0-4.8,0.7-6.8,2c-1,0.7-2.4,0.5-3.1-0.4
						s-0.5-2.4,0.4-3.1l0,0c2.8-2,6.2-3,9.7-2.9c2,0.1,3.9,0.7,5.7,1.5c1.5,0.8,3.3,1.2,5,1.2c1.5,0,3-0.3,4.3-1
						c1.7-0.8,3.5-1.3,5.3-1.4c5-0.3,10.4,2.8,10.6,2.9c1,0.6,1.4,2,0.8,3C146.7,207.5,146,207.9,145.1,208L145.1,208z"/>
					<path class="st43" d="M144.8,207.7L144.8,207.7c-0.1,0-5.1-2.9-9.3-2.6c-1.6,0.1-3.1,0.5-4.5,1.2c-1.6,0.8-3.4,1.2-5.2,1.2
						c-2.1,0-4.1-0.4-6-1.4c-1.5-0.8-3.2-1.2-4.9-1.3c-2.9-0.1-5.8,0.8-8.1,2.4c-0.1,0.1-0.2,0-0.2,0c-0.1-0.1,0-0.2,0-0.2
						c2.5-1.7,5.4-2.6,8.3-2.5c1.7,0.1,3.4,0.6,5,1.4c1.8,0.9,3.8,1.4,5.8,1.3c1.8,0,3.5-0.4,5.1-1.1c1.5-0.7,3-1.1,4.6-1.2
						c4.3-0.3,9.4,2.6,9.4,2.7c0.1,0,0.1,0.1,0.1,0.2c0,0,0,0,0,0C144.9,207.7,144.9,207.7,144.8,207.7z"/>
					<g>
						<defs>
							<path id="SVGID_00000173156003631564345270000009052696281232829611_" d="M145.1,208c-0.4,0-0.8-0.1-1.1-0.3
								c-1.2-0.7-5.1-2.6-8.1-2.4c-1.3,0.1-2.6,0.4-3.8,1c-1.9,0.9-3.9,1.4-6,1.3c-2.4,0-4.7-0.5-6.8-1.5c-1.3-0.7-2.7-1.1-4.2-1.2
								c-2.4-0.1-4.8,0.6-6.8,2c-1,0.7-2.4,0.5-3.1-0.4c-0.7-1-0.5-2.4,0.4-3.1c2.8-2,6.2-3,9.7-2.9c2,0.1,3.9,0.7,5.7,1.5
								c1.5,0.8,3.3,1.2,5,1.2c1.5,0,3-0.3,4.3-1c1.7-0.8,3.5-1.3,5.3-1.4c5-0.3,10.4,2.8,10.6,2.9c1,0.6,1.4,2,0.8,3
								C146.7,207.5,146,207.9,145.1,208L145.1,208z"/>
						</defs>
						<clipPath id="SVGID_00000115515428189675148570000015700191630611598256_">
							<use xlink:href="#SVGID_00000173156003631564345270000009052696281232829611_"  style="overflow:visible;"/>
						</clipPath>
						<g style="clip-path:url(#SVGID_00000115515428189675148570000015700191630611598256_);">
							<path class="st45" d="M112.2,205.9c-0.1,0-0.1,0-0.2,0c-0.2-0.1-0.4-0.4-0.3-0.6c0,0,0,0,0,0c0,0,1.2-3.1-0.7-4.2
								c-0.2-0.1-0.3-0.4-0.2-0.6c0.1-0.2,0.4-0.3,0.6-0.2c2.1,1.2,1.7,4.1,1.1,5.4C112.5,205.8,112.4,205.9,112.2,205.9z"/>
							<path class="st45" d="M118.3,206.1c-0.1,0-0.2,0-0.2-0.1c-0.2-0.1-0.3-0.4-0.2-0.6c0,0,1.5-2.6,0.1-4.4
								c-0.2-0.2-0.1-0.5,0-0.6c0,0,0,0,0,0c0.2-0.2,0.5-0.1,0.6,0.1c0,0,0,0,0,0c1.9,2.3,0.1,5.3,0,5.5
								C118.6,206,118.4,206.1,118.3,206.1z"/>
							<path class="st45" d="M124.5,208.3c-0.3,0-0.5-0.2-0.5-0.5c0-0.1,0-0.2,0.1-0.2c0,0,1.4-2.5,0-4.2c-0.1-0.2-0.1-0.5,0.2-0.7
								c0.2-0.1,0.4-0.1,0.6,0.1c1.7,2.1,0.1,5.1,0,5.2C124.8,208.2,124.7,208.3,124.5,208.3z"/>
							<path class="st45" d="M130.9,207.5c-0.1,0-0.1,0-0.2,0c-0.2-0.1-0.3-0.4-0.2-0.6c0.6-1.4,0.3-3-0.6-4.2
								c-0.2-0.2-0.1-0.5,0.1-0.7c0.2-0.2,0.5-0.1,0.7,0.1l0,0c1.2,1.5,1.5,3.5,0.8,5.2C131.3,207.4,131.1,207.5,130.9,207.5z"/>
							<path class="st45" d="M137.4,206c-0.1,0-0.1,0-0.2,0c-0.2-0.1-0.3-0.4-0.2-0.6c0,0,0,0,0,0c0,0,1.3-2.9-0.5-4.3
								c-0.2-0.2-0.2-0.4-0.1-0.6c0,0,0,0,0,0c0.2-0.2,0.4-0.2,0.6-0.1c0,0,0,0,0,0c2.3,1.9,0.8,5.3,0.7,5.4
								C137.7,205.9,137.6,206,137.4,206z"/>
						</g>
					</g>
				</g>
				<path class="st46" d="M117,101c1.2,0.5,2.4,1,3.6,1.3c0.6,0.2,1.1,0.3,1.7,0.5c0.3,0.1,0.5,0.1,0.8,0.1h0.4h0.4
					c1.1-0.2,2.2-0.6,3.2-1.1l3.4-1.8c-0.6,1.2-1.5,2.2-2.5,3.1c-1.1,1-2.4,1.6-3.8,1.8c-0.4,0.1-0.8,0.1-1.2,0
					c-0.3-0.1-0.7-0.1-1-0.3c-0.7-0.2-1.3-0.5-1.9-0.9C118.8,103.1,117.7,102.1,117,101z"/>
				<path class="st17" d="M105.1,110.2c0,0,13.4,11.4,38.3,1.3"/>
				<path class="st17" d="M142.4,108.3c0,0,0.1,4.6,4,5.7"/>
				<path class="st17" d="M106.5,106.8c0,0-0.1,4.6-4,5.7"/>
			</g>
		</g>
	</g>
	<circle class="st47" cx="114.9" cy="115" r="112.1"/>
</g>
</svg>
