<?xml version="1.0" encoding="utf-8"?>
<!-- Generator: Adobe Illustrator 25.0.0, SVG Export Plug-In . SVG Version: 6.00 Build 0)  -->
<svg version="1.1" id="Layer_1" xmlns="http://www.w3.org/2000/svg" xmlns:xlink="http://www.w3.org/1999/xlink" x="0px" y="0px"
	 viewBox="0 0 512 400" style="enable-background:new 0 0 512 400;" xml:space="preserve">
<style type="text/css">
	.st0{fill:#A58159;}
	.st1{fill:#D8B888;stroke:#72572A;stroke-width:2;stroke-miterlimit:10;}
	.st2{fill:#D1AF82;}
	.st3{fill:#C6A379;}
	.st4{fill:#3DBBD8;}
	.st5{fill:#29B7CE;}
	.st6{fill:#45C7DD;}
	.st7{fill:#00A4BF;}
	.st8{fill:#06B7C9;}
	.st9{fill:#202435;}
	.st10{fill:#2D3344;}
	.st11{fill:#0299B2;}
	.st12{fill:#9AC644;}
	.st13{fill:#93BC2E;}
	.st14{fill:#AACE51;}
	.st15{fill:#79AA1A;}
	.st16{fill:#88B222;}
	.st17{fill:#76A00E;}
	.st18{fill:#EDC20F;}
	.st19{fill:#E2AD05;}
	.st20{fill:#F7CD1C;}
	.st21{fill:#E5A403;}
	.st22{fill:#F2B711;}
	.st23{fill:#DB9803;}
	.st24{fill:#E57B07;}
	.st25{fill:#D86D03;}
	.st26{fill:#EF8114;}
	.st27{fill:#D65E05;}
	.st28{fill:#E2620C;}
	.st29{fill:#C65305;}
	.st30{fill:#1767AA;}
	.st31{fill:#075F9B;}
	.st32{fill:#1D76B2;}
	.st33{fill:#034D84;}
	.st34{fill:#065C91;}
	.st35{fill:#034872;}
	.st36{fill:#E04C58;}
	.st37{fill:#D64355;}
	.st38{fill:#E55768;}
	.st39{fill:#CC1B31;}
	.st40{fill:#D82341;}
	.st41{fill:#BF1331;}
	.st42{opacity:0.31;fill:#423B32;enable-background:new    ;}
	.st43{fill:#DDBD92;}
	.st44{fill:#F8D63A;}
	.st45{fill:#BAA02A;}
	.st46{opacity:0.5;fill:#FFFFFF;enable-background:new    ;}
	.st47{opacity:0.1;enable-background:new    ;}
	.st48{fill:#212121;}
	.st49{fill:#B7CE63;}
	.st50{fill:#899A4B;}
	.st51{fill:#3FA9E0;}
	.st52{fill:#2D80A8;}
	.st53{fill:#9186B5;}
	.st54{fill:#6D6587;}
	.st55{fill:#E55F76;}
	.st56{fill:#AC4758;}
	.st57{fill:#F7883C;}
	.st58{fill:#81991D;}
	.st59{fill:#4D13BC;}
	.st60{fill:#DFDCEF;}
</style>
<rect x="104.4" y="125.3" class="st0" width="303" height="222.2"/>
<path class="st1" d="M104.4,43.8v81.5h302.8V43.8c0-3.7-2.5-6.6-6.1-6.6H111.1C107.4,37.1,104.4,40.1,104.4,43.8z M291.2,83.8h-70
	c-6.2,0-11.3-4.8-11.6-11c-0.2-6.3,4.8-11.5,11-11.6c0.1,0,0.2,0,0.3,0h21c0-0.1,0-0.2,0-0.3c0-7.8,6.3-14.2,14.2-14.2
	c7.8,0,14.2,6.3,14.2,14.2c0,0.1,0,0.2,0,0.3H291c6.2,0,11.3,4.8,11.6,11c0.2,6.3-4.8,11.5-11,11.6
	C291.4,83.8,291.3,83.8,291.2,83.8L291.2,83.8z"/>
<rect x="105" y="96.6" class="st2" width="301.8" height="28.7"/>
<rect x="105" y="121.2" class="st3" width="301.8" height="4"/>
<rect x="197.6" y="199.2" transform="matrix(3.577167e-02 -0.9994 0.9994 3.577167e-02 81.6942 526.3508)" class="st4" width="232" height="43.2"/>
<rect x="218" y="220.3" transform="matrix(3.577167e-02 -0.9994 0.9994 3.577167e-02 100.5949 547.3983)" class="st5" width="232" height="2.5"/>
<rect x="179.7" y="216.5" transform="matrix(3.577167e-02 -0.9994 0.9994 3.577167e-02 65.0134 507.7937)" class="st5" width="232" height="7.3"/>
<rect x="202.7" y="217.4" transform="matrix(3.577167e-02 -0.9994 0.9994 3.577167e-02 86.3546 531.5402)" class="st6" width="232" height="7.2"/>
<path class="st7" d="M335.5,97l-35-1.2c-0.3,0-0.5,0.2-0.5,0.5c0,0,0,0,0,0l-0.3,8l36,1.3l0.3-8C336,97.2,335.8,97,335.5,97z"/>
<path class="st7" d="M316.4,54.9l-14.4,41l32,1.2l-11.7-42C320.9,50.9,317.5,51.2,316.4,54.9z"/>
<path class="st8" d="M318.3,55.5c-1.2,13.6-2.3,27.2-3.4,40.8l11.8,0.4c-1.9-13.7-3.8-27.4-5.8-41.1c-0.1-0.7-0.8-1.2-1.5-1.1
	C318.8,54.6,318.4,55,318.3,55.5L318.3,55.5z"/>
<rect x="314.1" y="101.3" transform="matrix(3.577162e-02 -0.9994 0.9994 3.577162e-02 182.8571 435.4274)" class="st9" width="5.9" height="43.2"/>
<rect x="313.7" y="113.1" transform="matrix(3.577162e-02 -0.9994 0.9994 3.577162e-02 170.6708 446.372)" class="st9" width="5.9" height="43.2"/>
<rect x="308" y="273.5" transform="matrix(3.577162e-02 -0.9994 0.9994 3.577162e-02 4.8015 595.3239)" class="st9" width="5.9" height="43.2"/>
<rect x="307.5" y="285.3" transform="matrix(3.577162e-02 -0.9994 0.9994 3.577162e-02 -7.3848 606.2685)" class="st9" width="5.9" height="43.2"/>
<rect x="319.2" y="119.5" transform="matrix(3.577167e-02 -0.9994 0.9994 3.577167e-02 187.5545 440.6277)" class="st10" width="5.9" height="7.2"/>
<rect x="318.8" y="131.3" transform="matrix(3.577167e-02 -0.9994 0.9994 3.577167e-02 175.3728 451.5851)" class="st10" width="5.9" height="7.2"/>
<rect x="313" y="291.8" transform="matrix(3.577167e-02 -0.9994 0.9994 3.577167e-02 9.4979 600.5569)" class="st10" width="5.9" height="7.2"/>
<rect x="312.6" y="303.5" transform="matrix(3.577167e-02 -0.9994 0.9994 3.577167e-02 -2.6739 611.5046)" class="st10" width="5.9" height="7.2"/>
<polygon class="st11" points="335.9,102.6 299.7,101.4 299.7,104.3 335.7,105.6 "/>
<rect x="243.6" y="117.4" class="st12" width="43.3" height="232"/>
<rect x="284.3" y="117.4" class="st13" width="2.5" height="232"/>
<rect x="243.6" y="117.4" class="st13" width="7.3" height="232"/>
<rect x="266.6" y="117.4" class="st14" width="7.2" height="232"/>
<path class="st15" d="M248.2,108.9h34.1c0.6,0,1,0.4,1,1v7.5l0,0h-36l0,0v-7.5C247.2,109.4,247.6,108.9,248.2,108.9z"/>
<path class="st15" d="M262.4,67.3l-13.2,41.5h32l-12.9-41.5C267,63.9,263.2,63.9,262.4,67.3z"/>
<path class="st16" d="M264,68c-0.7,13.6-1.3,27.2-2,40.9h11.8c-2.4-13.6-4.8-27.3-7.2-40.9c-0.2-0.7-0.8-1.1-1.4-1.1
	C264.6,67,264.1,67.4,264,68z"/>
<rect x="243.6" y="132.4" class="st9" width="43.3" height="5.9"/>
<rect x="243.6" y="144.2" class="st9" width="43.3" height="5.9"/>
<rect x="243.6" y="304.8" class="st9" width="43.3" height="5.9"/>
<rect x="243.6" y="316.6" class="st9" width="43.3" height="5.9"/>
<rect x="266.6" y="132.4" class="st10" width="7.2" height="5.9"/>
<rect x="266.6" y="144.2" class="st10" width="7.2" height="5.9"/>
<rect x="266.6" y="304.8" class="st10" width="7.2" height="5.9"/>
<rect x="266.6" y="316.6" class="st10" width="7.2" height="5.9"/>
<rect x="247.2" y="116.1" class="st17" width="36" height="1.3"/>
<rect x="200.2" y="116.9" class="st18" width="43.2" height="232"/>
<rect x="241" y="116.9" class="st19" width="2.5" height="232"/>
<rect x="200.2" y="116.9" class="st19" width="7.3" height="232"/>
<rect x="223.3" y="116.9" class="st20" width="7.2" height="232"/>
<path class="st21" d="M204.8,108.3h34.1c0.6,0,1,0.4,1,1v7.5l0,0h-36l0,0v-7.5C203.9,108.8,204.3,108.4,204.8,108.3z"/>
<path class="st21" d="M219.1,66.8l-13.2,41.5h32l-13.2-41.5C222.4,61.8,220.2,63.4,219.1,66.8z"/>
<path class="st22" d="M220.7,67.5c-0.7,13.6-1.3,27.2-2,40.9h11.8l-7.2-40.9c-0.1-0.7-0.8-1.2-1.5-1.1
	C221.2,66.5,220.7,66.9,220.7,67.5L220.7,67.5z"/>
<rect x="200.2" y="131.9" class="st9" width="43.2" height="5.9"/>
<rect x="200.2" y="143.7" class="st9" width="43.2" height="5.9"/>
<rect x="200.2" y="304.3" class="st9" width="43.2" height="5.9"/>
<rect x="200.2" y="316.1" class="st9" width="43.2" height="5.9"/>
<rect x="223.3" y="131.9" class="st10" width="7.2" height="5.9"/>
<rect x="223.3" y="143.7" class="st10" width="7.2" height="5.9"/>
<rect x="223.3" y="304.3" class="st10" width="7.2" height="5.9"/>
<rect x="223.3" y="316.1" class="st10" width="7.2" height="5.9"/>
<rect x="203.9" y="115.6" class="st23" width="36" height="1.3"/>
<rect x="154.7" y="105.2" class="st24" width="43.2" height="232"/>
<rect x="195.4" y="105.2" class="st25" width="2.5" height="232"/>
<rect x="154.7" y="105.2" class="st25" width="7.3" height="232"/>
<rect x="177.8" y="105.2" class="st26" width="7.2" height="232"/>
<path class="st27" d="M159.3,96.7h34.1c0.6,0,1,0.4,1,1v7.5l0,0h-36l0,0v-7.6C158.4,97.2,158.8,96.8,159.3,96.7z"/>
<path class="st27" d="M173.8,55.2l-13.4,41.5h32l-13.9-41.5C176.9,51.5,174.7,52.1,173.8,55.2z"/>
<path class="st28" d="M175.1,55.8c-0.7,13.6-1.3,27.2-2,40.9H185l-7.2-40.9c-0.1-0.7-0.8-1.2-1.5-1.1
	C175.7,54.9,175.3,55.3,175.1,55.8L175.1,55.8z"/>
<rect x="154.7" y="120.3" class="st9" width="43.2" height="5.9"/>
<rect x="154.7" y="132.1" class="st9" width="43.2" height="5.9"/>
<rect x="154.7" y="292.6" class="st9" width="43.2" height="5.9"/>
<rect x="154.7" y="304.4" class="st9" width="43.2" height="5.9"/>
<rect x="177.8" y="120.3" class="st10" width="7.2" height="5.9"/>
<rect x="177.8" y="132.1" class="st10" width="7.2" height="5.9"/>
<rect x="177.8" y="292.6" class="st10" width="7.2" height="5.9"/>
<rect x="177.8" y="304.4" class="st10" width="7.2" height="5.9"/>
<rect x="158.3" y="100.2" class="st29" width="36" height="5.1"/>
<rect x="247.9" y="169.7" transform="matrix(9.271815e-02 -0.9957 0.9957 9.271815e-02 139.5958 535.8976)" class="st30" width="232" height="43.2"/>
<rect x="267.5" y="189.8" transform="matrix(8.963770e-02 -0.996 0.996 8.963770e-02 159.2203 556.3177)" class="st31" width="232.9" height="2.5"/>
<rect x="230" y="186" transform="matrix(9.271815e-02 -0.9957 0.9957 9.271815e-02 125.0219 516.5807)" class="st31" width="232" height="7.3"/>
<rect x="252.9" y="188.2" transform="matrix(9.271815e-02 -0.9957 0.9957 9.271815e-02 143.6615 541.308)" class="st32" width="232" height="7.2"/>
<path class="st33" d="M392.8,69L358,65.8c-0.3,0-0.5,0.2-0.5,0.5l-0.7,8l35.9,3.3l0.7-8C393.4,69.3,393.2,69,392.8,69
	C392.9,69,392.9,69,392.8,69z"/>
<path class="st33" d="M376.7,26l-17.2,40l31.9,3l-9.7-42.6C380.8,21.9,378,22.2,376.7,26z"/>
<path class="st34" d="M378,26.6c-1.9,13.5-3.8,27-5.7,40.5l11.7,1.1l-3.4-41.4c-0.1-0.7-0.6-1.2-1.3-1.2
	C378.7,25.7,378.2,26,378,26.6z"/>
<rect x="370" y="72.2" transform="matrix(9.271816e-02 -0.9957 0.9957 9.271816e-02 244.9409 456.4586)" class="st9" width="5.9" height="43.2"/>
<rect x="368.9" y="83.9" transform="matrix(9.271816e-02 -0.9957 0.9957 9.271816e-02 232.2617 466.0187)" class="st9" width="5.9" height="43.2"/>
<rect x="354" y="243.8" transform="matrix(9.271816e-02 -0.9957 0.9957 9.271816e-02 59.6026 596.2184)" class="st9" width="5.9" height="43.2"/>
<rect x="352.9" y="255.5" transform="matrix(9.271816e-02 -0.9957 0.9957 9.271816e-02 46.9126 605.7866)" class="st9" width="5.9" height="43.2"/>
<rect x="375" y="90.7" transform="matrix(9.271815e-02 -0.9957 0.9957 9.271815e-02 249.0249 461.8513)" class="st10" width="5.9" height="7.2"/>
<rect x="373.3" y="100.5" transform="matrix(8.963770e-02 -0.996 0.996 8.963770e-02 238.8593 469.5466)" class="st10" width="5.9" height="7.2"/>
<rect x="359" y="262.3" transform="matrix(9.271815e-02 -0.9957 0.9957 9.271815e-02 63.6834 601.6303)" class="st10" width="5.9" height="7.2"/>
<rect x="357.9" y="274" transform="matrix(9.271815e-02 -0.9957 0.9957 9.271815e-02 50.9998 611.1984)" class="st10" width="5.9" height="7.2"/>
<polygon class="st35" points="392.9,74.3 357.1,71.5 356.7,74.2 392.5,77.6 "/>
<rect x="110.4" y="73.1" transform="matrix(0.9988 -4.993762e-02 4.993762e-02 0.9988 -9.2854 6.8312)" class="st36" width="43.3" height="232.2"/>
<rect x="150.7" y="72.3" transform="matrix(0.9988 -4.832679e-02 4.832679e-02 0.9988 -8.9199 7.5625)" class="st37" width="2.5" height="232"/>
<rect x="110" y="74.1" transform="matrix(0.9988 -4.832679e-02 4.832679e-02 0.9988 -9.0544 5.7142)" class="st37" width="7.3" height="232"/>
<rect x="133" y="73" transform="matrix(0.9988 -4.832679e-02 4.832679e-02 0.9988 -8.974 6.8222)" class="st38" width="7.2" height="232"/>
<path class="st39" d="M108.5,65.7l34.1-1.6c0.6,0,1,0.4,1,1l0.4,7.5l0,0l-36,1.7l0,0l-0.4-7.6C107.7,66.2,108,65.8,108.5,65.7z"/>
<path class="st39" d="M120.1,26c-2.5,10-10.6,39.7-10.6,39.7l32-1.6L127,25.6C124.8,19.7,121.4,21,120.1,26z"/>
<path class="st40" d="M122.4,24.1c0,13.6,0,27.3,0,40.9l11.8-0.6L125,24c-0.2-0.7-0.9-1.2-1.6-1C122.9,23.1,122.5,23.6,122.4,24.1
	L122.4,24.1z"/>
<rect x="105.2" y="88.5" transform="matrix(0.9988 -4.832679e-02 4.832679e-02 0.9988 -4.269 6.2372)" class="st9" width="43.3" height="5.9"/>
<rect x="105.8" y="100.2" transform="matrix(0.9988 -4.832679e-02 4.832679e-02 0.9988 -4.8375 6.2789)" class="st9" width="43.2" height="5.9"/>
<rect x="113.6" y="260.6" transform="matrix(0.9988 -4.832679e-02 4.832679e-02 0.9988 -12.5771 6.8408)" class="st9" width="43.3" height="5.9"/>
<rect x="114.1" y="272.3" transform="matrix(0.9988 -4.832679e-02 4.832679e-02 0.9988 -13.1456 6.8825)" class="st9" width="43.2" height="5.9"/>
<rect x="128.3" y="88.2" transform="matrix(0.9988 -4.832679e-02 4.832679e-02 0.9988 -4.2509 6.4791)" class="st10" width="7.2" height="5.9"/>
<rect x="129.2" y="99.9" transform="matrix(0.9988 -4.993762e-02 4.993762e-02 0.9988 -4.9693 6.7581)" class="st10" width="7.2" height="5.9"/>
<rect x="136.6" y="260.3" transform="matrix(0.9988 -4.832679e-02 4.832679e-02 0.9988 -12.5595 7.0828)" class="st10" width="7.2" height="5.9"/>
<rect x="137.2" y="272.1" transform="matrix(0.9988 -4.832679e-02 4.832679e-02 0.9988 -13.1285 7.124)" class="st10" width="7.2" height="5.9"/>
<polygon class="st41" points="143.9,68.1 107.9,69.8 108,74.3 144,72.5 "/>
<path class="st1" d="M104.3,125.3V366c0,6.8,5.5,12.4,12.4,12.4c0,0,0,0,0,0h278.6c6.8,0,12.4-5.5,12.4-12.4c0,0,0,0,0,0V125.3
	H104.3z M256,216.8c-48.6,0-88-14.4-88-32s39.4-32.1,88-32.1s88,14.4,88,32.1S304.6,216.8,256,216.8z"/>
<path class="st42" d="M339.1,174.2c1,1.8,1.5,3.9,1.6,6c0,17.7-39.4,32.1-88,32.1c-38.4,0-71.1-9-83.1-21.5
	c7.8,14.8,43.5,26,86.4,26c48.6,0,88-14.4,88-32C343.9,181.1,342.2,177.5,339.1,174.2z"/>
<path class="st2" d="M403.3,125.8c0.1,2.3,0.1,4.1,0.1,6.5c0,125.1-101.4,226.6-226.6,226.6c-24.4,0-48.7-4-71.8-11.8V366
	c0,6.8,5,11.3,11.9,11.3h278.6c6.8,0,11.9-4.5,11.9-11.3V125.8H403.3z"/>
<path class="st3" d="M105.2,370.1c1.8,4.9,6.4,8.2,11.7,8.2h278.6c5.2,0,9.9-3.3,11.6-8.2c-48.6,3.4-100.6,5.4-155.7,5.3
	C199.8,375.3,151,373.3,105.2,370.1z"/>
<path class="st43" d="M393.5,137.4c4.7,0,8.9,0,13.6,0.1l-0.5-11.7H104.8v72C145.8,162.7,259.3,137.4,393.5,137.4z"/>
<path class="st44" d="M138.1,261.9v5.6h-22.7v-5.6c5.3-14.5,8.2-21.8,11.2-22S132.6,247,138.1,261.9z"/>
<path class="st45" d="M138.1,267.5h-22.7v-5.6c7.5-1.8,15.2-1.8,22.7,0V267.5z"/>
<polygon class="st46" points="125.6,242.5 123.6,259.6 119.7,260 "/>
<path class="st47" d="M138.1,261.9c-2-0.5-4-0.8-6.1-1.1l-5.4-20.9C129.6,239.7,132.6,247,138.1,261.9z"/>
<path class="st45" d="M115.3,364.1h22.7v4.5c0,0.7-0.5,1.2-1.1,1.4c-6.7,1.5-13.7,1.5-20.5,0c-0.7-0.1-1.1-0.7-1.1-1.4L115.3,364.1z
	"/>
<path class="st44" d="M139.9,265.1v101.5c-2.2,0.6-4.4,1.1-6.7,1.4c-3.7,0.5-7.4,0.6-11.2,0.2c-1.1-0.1-2.3-0.3-3.4-0.5
	c-1.7-0.3-3.4-0.7-5-1.1V265.1c1.7-0.5,3.4-0.8,5-1.1c1.1-0.2,2.3-0.3,3.4-0.5c3.7-0.4,7.5-0.3,11.2,0.2
	C135.4,264.1,137.7,264.5,139.9,265.1z"/>
<path class="st48" d="M122,361.5c-1.1-0.1-2.3-0.3-3.4-0.5c-1.7-0.3-3.4-0.7-5-1.1v3.4c1.7,0.5,3.4,0.8,5,1.1
	c1.1,0.2,2.3,0.4,3.4,0.5c3.7,0.4,7.5,0.3,11.1-0.2c2.3-0.3,4.5-0.8,6.7-1.4v-3.4c-2.2,0.6-4.4,1.1-6.7,1.4
	C129.5,361.8,125.7,361.9,122,361.5z"/>
<path class="st48" d="M122,355.3c-1.1-0.1-2.3-0.3-3.4-0.5c-1.7-0.3-3.4-0.7-5-1.1v4.4c1.7,0.5,3.4,0.8,5,1.1
	c1.1,0.2,2.3,0.4,3.4,0.5c3.7,0.4,7.5,0.3,11.1-0.2c2.3-0.3,4.5-0.8,6.7-1.4v-4.4c-2.2,0.6-4.4,1.1-6.7,1.4
	C129.5,355.6,125.7,355.7,122,355.3z"/>
<path class="st48" d="M133.2,272.6c-3.7-0.5-7.4-0.6-11.2-0.2c-1.1,0.1-2.3,0.3-3.4,0.5c-1.7,0.3-3.4,0.7-5,1.1v4.1
	c1.6-0.5,3.3-0.8,5-1.1c1.1-0.2,2.3-0.4,3.4-0.5c3.7-0.4,7.5-0.3,11.2,0.2c2.3,0.3,4.5,0.8,6.7,1.4v-4
	C137.7,273.3,135.4,272.9,133.2,272.6z"/>
<path class="st48" d="M133.2,279.2c-3.7-0.5-7.4-0.6-11.2-0.2c-1.1,0.1-2.3,0.3-3.4,0.5c-1.7,0.3-3.4,0.7-5,1.1v2.6
	c1.7-0.5,3.4-0.8,5-1.1c1.1-0.2,2.3-0.3,3.4-0.5c3.7-0.4,7.5-0.3,11.1,0.2c2.3,0.3,4.5,0.8,6.7,1.4v-2.6
	C137.7,280,135.4,279.5,133.2,279.2z"/>
<path class="st47" d="M139.9,265.1v101.5c-2.2,0.6-4.4,1.1-6.7,1.4V263.8C135.4,264.1,137.7,264.5,139.9,265.1z"/>
<path class="st46" d="M122,263.6v104.6c-1.1-0.1-2.3-0.3-3.4-0.5V264C119.7,263.8,120.9,263.7,122,263.6z"/>
<path class="st49" d="M167.1,261.9v5.6h-22.7v-5.6c5.3-14.5,8.2-21.8,11.2-22S161.6,247,167.1,261.9z"/>
<path class="st50" d="M167.1,267.5h-22.7v-5.6c7.5-1.8,15.2-1.8,22.7,0L167.1,267.5z"/>
<polygon class="st46" points="154.6,242.5 152.6,259.6 148.7,260 "/>
<path class="st47" d="M167.1,261.9c-2-0.5-4.1-0.8-6.1-1.1l-5.4-20.9C158.6,239.7,161.6,247,167.1,261.9z"/>
<path class="st50" d="M144.4,364.1h22.7v4.5c0,0.7-0.4,1.3-1.1,1.4c-6.7,1.5-13.7,1.5-20.5,0c-0.7-0.1-1.1-0.7-1.1-1.4L144.4,364.1z
	"/>
<path class="st49" d="M168.9,265.1v101.5c-2.2,0.6-4.4,1.1-6.7,1.4c-3.7,0.5-7.4,0.6-11.1,0.2c-1.1-0.1-2.3-0.3-3.4-0.5
	c-1.7-0.3-3.4-0.7-5.1-1.1V265.1c1.7-0.5,3.4-0.8,5.1-1.1c1.1-0.2,2.3-0.3,3.4-0.5c3.7-0.4,7.5-0.3,11.1,0.2
	C164.5,264.1,166.7,264.5,168.9,265.1z"/>
<path class="st48" d="M151.1,361.5c-1.1-0.1-2.3-0.3-3.4-0.5c-1.7-0.3-3.4-0.7-5.1-1.1v3.4c1.7,0.5,3.4,0.8,5.1,1.1
	c1.1,0.2,2.3,0.4,3.4,0.5c3.7,0.4,7.5,0.3,11.1-0.2c2.3-0.3,4.5-0.8,6.7-1.4v-3.4c-2.2,0.6-4.4,1.1-6.7,1.4
	C158.5,361.8,154.8,361.9,151.1,361.5z"/>
<path class="st48" d="M151.1,355.3c-1.1-0.1-2.3-0.3-3.4-0.5c-1.7-0.3-3.4-0.7-5.1-1.1v4.4c1.7,0.5,3.4,0.8,5.1,1.1
	c1.1,0.2,2.3,0.4,3.4,0.5c3.7,0.4,7.5,0.3,11.1-0.2c2.3-0.3,4.5-0.8,6.7-1.4v-4.4c-2.2,0.6-4.4,1.1-6.7,1.4
	C158.5,355.6,154.8,355.7,151.1,355.3z"/>
<path class="st48" d="M162.2,272.6c-3.7-0.5-7.4-0.6-11.1-0.2c-1.1,0.1-2.3,0.3-3.4,0.5c-1.7,0.3-3.4,0.7-5.1,1.1v4.1
	c1.7-0.5,3.4-0.8,5.1-1.1c1.1-0.2,2.3-0.4,3.4-0.5c3.7-0.4,7.5-0.3,11.1,0.2c2.3,0.3,4.5,0.8,6.7,1.4v-4
	C166.7,273.3,164.5,272.9,162.2,272.6z"/>
<path class="st48" d="M162.2,279.2c-3.7-0.5-7.4-0.6-11.1-0.2c-1.1,0.1-2.3,0.3-3.4,0.5c-1.7,0.3-3.4,0.7-5.1,1.1v2.6
	c1.7-0.5,3.4-0.8,5.1-1.1c1.1-0.2,2.3-0.3,3.4-0.5c3.7-0.4,7.5-0.3,11.1,0.2c2.3,0.3,4.5,0.8,6.7,1.4v-2.6
	C166.7,280,164.5,279.5,162.2,279.2z"/>
<path class="st47" d="M168.9,265.1v101.5c-2.2,0.6-4.4,1.1-6.7,1.4V263.8C164.5,264.1,166.7,264.5,168.9,265.1z"/>
<path class="st46" d="M151.1,263.6v104.6c-1.1-0.1-2.3-0.3-3.4-0.5V264C148.8,263.8,149.9,263.7,151.1,263.6z"/>
<path class="st51" d="M196.1,261.9v5.6h-22.7v-5.6c5.3-14.5,8.2-21.8,11.2-22S190.7,247,196.1,261.9z"/>
<path class="st52" d="M196.1,267.5h-22.7v-5.6c7.5-1.8,15.2-1.8,22.7,0V267.5z"/>
<polygon class="st46" points="183.6,242.5 181.7,259.6 177.8,260 "/>
<path class="st47" d="M196.1,261.9c-2-0.5-4.1-0.8-6.1-1.1l-5.4-20.9C187.7,239.7,190.7,247,196.1,261.9z"/>
<path class="st52" d="M173.4,364.1h22.7v4.5c0,0.7-0.5,1.3-1.1,1.4c-6.7,1.5-13.7,1.5-20.5,0c-0.7-0.1-1.1-0.7-1.1-1.4L173.4,364.1z
	"/>
<path class="st51" d="M198,265.1v101.5c-2.2,0.6-4.4,1.1-6.7,1.4c-3.7,0.5-7.4,0.6-11.1,0.2c-1.1-0.1-2.3-0.3-3.4-0.5
	c-1.7-0.3-3.4-0.7-5.1-1.1V265.1c1.7-0.5,3.4-0.8,5.1-1.1c1.1-0.2,2.3-0.3,3.4-0.5c3.7-0.4,7.5-0.3,11.1,0.2
	C193.6,264.1,195.8,264.5,198,265.1z"/>
<path class="st48" d="M180.1,361.5c-1.1-0.1-2.3-0.3-3.4-0.5c-1.7-0.3-3.4-0.7-5.1-1.1v3.4c1.7,0.5,3.4,0.8,5.1,1.1
	c1.1,0.2,2.3,0.4,3.4,0.5c3.7,0.4,7.5,0.3,11.1-0.2c2.3-0.3,4.5-0.8,6.7-1.4v-3.4c-2.2,0.6-4.4,1.1-6.7,1.4
	C187.6,361.8,183.8,361.9,180.1,361.5z"/>
<path class="st48" d="M180.1,355.3c-1.1-0.1-2.3-0.3-3.4-0.5c-1.7-0.3-3.4-0.7-5.1-1.1v4.4c1.7,0.5,3.4,0.8,5.1,1.1
	c1.1,0.2,2.3,0.4,3.4,0.5c3.7,0.4,7.5,0.3,11.1-0.2c2.3-0.3,4.5-0.8,6.7-1.4v-4.4c-2.2,0.6-4.4,1.1-6.7,1.4
	C187.6,355.6,183.8,355.7,180.1,355.3z"/>
<path class="st48" d="M191.3,272.6c-3.7-0.5-7.4-0.6-11.1-0.2c-1.1,0.1-2.3,0.3-3.4,0.5c-1.7,0.3-3.4,0.7-5.1,1.1v4.1
	c1.7-0.5,3.4-0.8,5.1-1.1c1.1-0.2,2.3-0.4,3.4-0.5c3.7-0.4,7.5-0.3,11.1,0.2c2.3,0.3,4.5,0.8,6.7,1.4v-4
	C195.8,273.3,193.5,272.9,191.3,272.6z"/>
<path class="st48" d="M191.3,279.2c-3.7-0.5-7.4-0.6-11.1-0.2c-1.1,0.1-2.3,0.3-3.4,0.5c-1.7,0.3-3.4,0.7-5.1,1.1v2.6
	c1.7-0.5,3.4-0.8,5.1-1.1c1.1-0.2,2.3-0.3,3.4-0.5c3.7-0.4,7.5-0.3,11.1,0.2c2.3,0.3,4.5,0.8,6.7,1.4v-2.6
	C195.8,280,193.5,279.5,191.3,279.2z"/>
<path class="st47" d="M198,265.1v101.5c-2.2,0.6-4.4,1.1-6.7,1.4V263.8C193.6,264.1,195.8,264.5,198,265.1z"/>
<path class="st46" d="M180.1,263.6v104.6c-1.1-0.1-2.3-0.3-3.4-0.5V264C177.8,263.8,179,263.7,180.1,263.6z"/>
<path class="st53" d="M225.2,261.9v5.6h-22.7v-5.6c5.3-14.5,8.2-21.8,11.2-22S219.7,247,225.2,261.9z"/>
<path class="st54" d="M225.2,267.5h-22.7v-5.6c7.5-1.8,15.2-1.8,22.7,0V267.5z"/>
<polygon class="st46" points="212.7,242.5 210.7,259.6 206.8,260 "/>
<path class="st47" d="M225.2,261.9c-2-0.5-4-0.8-6.1-1.1l-5.4-20.9C216.7,239.7,219.7,247,225.2,261.9z"/>
<path class="st54" d="M202.5,364.1h22.7v4.5c0,0.7-0.5,1.2-1.1,1.4c-6.7,1.5-13.7,1.5-20.5,0c-0.7-0.1-1.1-0.7-1.1-1.4V364.1z"/>
<path class="st53" d="M227,265.1v101.5c-2.2,0.6-4.4,1.1-6.7,1.4c-3.7,0.5-7.4,0.6-11.2,0.2c-1.1-0.1-2.3-0.3-3.4-0.5
	c-1.7-0.3-3.4-0.7-5.1-1.1V265.1c1.7-0.5,3.4-0.8,5.1-1.1c1.1-0.2,2.3-0.3,3.4-0.5c3.7-0.4,7.5-0.3,11.2,0.2
	C222.6,264.1,224.8,264.5,227,265.1z"/>
<path class="st48" d="M209.1,361.5c-1.1-0.1-2.3-0.3-3.4-0.5c-1.7-0.3-3.4-0.7-5.1-1.1v3.4c1.7,0.5,3.4,0.8,5.1,1.1
	c1.1,0.2,2.3,0.4,3.4,0.5c3.7,0.4,7.5,0.3,11.2-0.2c2.3-0.3,4.5-0.8,6.7-1.4v-3.4c-2.2,0.6-4.4,1.1-6.7,1.4
	C216.6,361.8,212.9,361.9,209.1,361.5z"/>
<path class="st48" d="M209.1,355.3c-1.1-0.1-2.3-0.3-3.4-0.5c-1.7-0.3-3.4-0.7-5.1-1.1v4.4c1.7,0.5,3.4,0.8,5.1,1.1
	c1.1,0.2,2.3,0.4,3.4,0.5c3.7,0.4,7.5,0.3,11.2-0.2c2.3-0.3,4.5-0.8,6.7-1.4v-4.4c-2.2,0.6-4.4,1.1-6.7,1.4
	C216.6,355.6,212.9,355.7,209.1,355.3z"/>
<path class="st48" d="M220.3,272.6c-3.7-0.5-7.4-0.6-11.2-0.2c-1.1,0.1-2.3,0.3-3.4,0.5c-1.7,0.3-3.4,0.7-5.1,1.1v4.1
	c1.7-0.5,3.4-0.8,5.1-1.1c1.1-0.2,2.3-0.4,3.4-0.5c3.7-0.4,7.5-0.3,11.2,0.2c2.3,0.3,4.5,0.8,6.7,1.4v-4
	C224.8,273.3,222.6,272.9,220.3,272.6z"/>
<path class="st48" d="M220.3,279.2c-3.7-0.5-7.4-0.6-11.2-0.2c-1.1,0.1-2.3,0.3-3.4,0.5c-1.7,0.3-3.4,0.7-5.1,1.1v2.6
	c1.7-0.5,3.4-0.8,5.1-1.1c1.1-0.2,2.3-0.3,3.4-0.5c3.7-0.4,7.5-0.3,11.2,0.2c2.3,0.3,4.5,0.8,6.7,1.4v-2.6
	C224.8,280,222.6,279.5,220.3,279.2z"/>
<path class="st47" d="M227,265.1v101.5c-2.2,0.6-4.4,1.1-6.7,1.4V263.8C222.6,264.1,224.8,264.5,227,265.1z"/>
<path class="st46" d="M209.1,263.6v104.6c-1.1-0.1-2.3-0.3-3.4-0.5V264C206.9,263.8,208,263.7,209.1,263.6z"/>
<path class="st55" d="M253.7,261.9v5.6H231v-5.6c5.3-14.5,8.2-21.8,11.2-22S248.2,247,253.7,261.9z"/>
<path class="st56" d="M253.7,267.5H231v-5.6c7.5-1.8,15.2-1.8,22.7,0L253.7,267.5z"/>
<polygon class="st46" points="241.2,242.5 239.2,259.6 235.3,260 "/>
<path class="st47" d="M253.7,261.9c-2-0.5-4-0.8-6.1-1.1l-5.4-20.9C245.2,239.7,248.2,247,253.7,261.9z"/>
<path class="st56" d="M231,364.1h22.7v4.5c0,0.7-0.5,1.2-1.1,1.4c-6.7,1.5-13.7,1.5-20.5,0c-0.7-0.1-1.1-0.7-1.1-1.4V364.1z"/>
<path class="st55" d="M255.5,265.1v101.5c-2.2,0.6-4.4,1.1-6.7,1.4c-3.7,0.5-7.4,0.6-11.1,0.2c-1.1-0.1-2.3-0.3-3.4-0.5
	c-1.7-0.3-3.4-0.7-5-1.1V265.1c1.7-0.5,3.4-0.8,5-1.1c1.1-0.2,2.3-0.3,3.4-0.5c3.7-0.4,7.5-0.3,11.1,0.2
	C251.1,264.1,253.3,264.5,255.5,265.1z"/>
<path class="st48" d="M237.7,361.5c-1.1-0.1-2.3-0.3-3.4-0.5c-1.7-0.3-3.4-0.7-5-1.1v3.4c1.7,0.5,3.4,0.8,5,1.1
	c1.1,0.2,2.3,0.4,3.4,0.5c3.7,0.4,7.5,0.3,11.1-0.2c2.3-0.3,4.5-0.8,6.7-1.4v-3.4c-2.2,0.6-4.4,1.1-6.7,1.4
	C245.1,361.8,241.4,361.9,237.7,361.5z"/>
<path class="st48" d="M237.7,355.3c-1.1-0.1-2.3-0.3-3.4-0.5c-1.7-0.3-3.4-0.7-5-1.1v4.4c1.7,0.5,3.4,0.8,5,1.1
	c1.1,0.2,2.3,0.4,3.4,0.5c3.7,0.4,7.5,0.3,11.1-0.2c2.3-0.3,4.5-0.8,6.7-1.4v-4.4c-2.2,0.6-4.4,1.1-6.7,1.4
	C245.1,355.6,241.4,355.7,237.7,355.3z"/>
<path class="st48" d="M248.8,272.6c-3.7-0.5-7.4-0.6-11.1-0.2c-1.1,0.1-2.3,0.3-3.4,0.5c-1.7,0.3-3.4,0.7-5,1.1v4.1
	c1.6-0.5,3.3-0.8,5-1.1c1.1-0.2,2.3-0.4,3.4-0.5c3.7-0.4,7.5-0.3,11.1,0.2c2.3,0.3,4.5,0.8,6.7,1.4v-4
	C253.3,273.3,251.1,272.9,248.8,272.6z"/>
<path class="st48" d="M248.8,279.2c-3.7-0.5-7.4-0.6-11.1-0.2c-1.1,0.1-2.3,0.3-3.4,0.5c-1.7,0.3-3.4,0.7-5,1.1v2.6
	c1.7-0.5,3.4-0.8,5-1.1c1.1-0.2,2.3-0.3,3.4-0.5c3.7-0.4,7.5-0.3,11.1,0.2c2.3,0.3,4.5,0.8,6.7,1.4v-2.6
	C253.3,280,251.1,279.5,248.8,279.2z"/>
<path class="st47" d="M255.5,265.1v101.5c-2.2,0.6-4.4,1.1-6.7,1.4V263.8C251.1,264.1,253.3,264.5,255.5,265.1z"/>
<path class="st46" d="M237.7,263.6v104.6c-1.1-0.1-2.3-0.3-3.4-0.5V264C235.4,263.8,236.6,263.7,237.7,263.6z"/>
<path class="st57" d="M282,261.9v5.6h-22.7v-5.6c5.3-14.5,8.2-21.8,11.2-22S276.5,247.1,282,261.9z"/>
<path class="st47" d="M282,267.5h-22.7v-5.6c7.5-1.8,15.2-1.8,22.7,0L282,267.5z"/>
<polygon class="st46" points="269.5,242.6 267.5,259.6 263.6,260.1 "/>
<path class="st47" d="M282,261.9c-2-0.5-4-0.8-6.1-1.1l-5.4-20.9C273.5,239.7,276.5,247.1,282,261.9z"/>
<path class="st45" d="M259.3,364.1H282v4.5c0,0.7-0.5,1.2-1.1,1.4c-6.7,1.5-13.7,1.5-20.5,0c-0.7-0.1-1.1-0.7-1.1-1.4L259.3,364.1z"
	/>
<path class="st57" d="M283.9,265.2v101.4c-2.2,0.6-4.4,1.1-6.7,1.4c-3.7,0.5-7.4,0.6-11.2,0.2c-1.1-0.1-2.3-0.3-3.4-0.5
	c-1.7-0.3-3.4-0.7-5.1-1.1V265.2c1.7-0.5,3.4-0.8,5.1-1.1c1.1-0.2,2.3-0.4,3.4-0.5c3.7-0.4,7.5-0.3,11.2,0.2
	C279.4,264.1,281.7,264.6,283.9,265.2z"/>
<path class="st48" d="M266,361.6c-1.1-0.1-2.3-0.3-3.4-0.5c-1.7-0.3-3.4-0.7-5.1-1.1v3.4c1.7,0.5,3.4,0.8,5.1,1.1
	c1.1,0.2,2.3,0.4,3.4,0.5c3.7,0.4,7.5,0.3,11.2-0.2c2.3-0.3,4.5-0.8,6.7-1.4V360c-2.2,0.6-4.4,1.1-6.7,1.4
	C273.5,361.9,269.7,361.9,266,361.6z"/>
<path class="st48" d="M266,355.4c-1.1-0.1-2.3-0.3-3.4-0.5c-1.7-0.3-3.4-0.7-5.1-1.1v4.4c1.7,0.5,3.4,0.8,5.1,1.1
	c1.1,0.2,2.3,0.4,3.4,0.5c3.7,0.4,7.5,0.3,11.2-0.2c2.3-0.3,4.5-0.8,6.7-1.4v-4.4c-2.2,0.6-4.4,1.1-6.7,1.4
	C273.5,355.7,269.7,355.7,266,355.4z"/>
<path class="st48" d="M277.1,272.6c-3.7-0.5-7.4-0.6-11.2-0.2c-1.1,0.1-2.3,0.3-3.4,0.5c-1.7,0.3-3.4,0.7-5.1,1.1v4
	c1.7-0.5,3.4-0.8,5.1-1.1c1.1-0.2,2.3-0.3,3.4-0.5c3.7-0.4,7.5-0.3,11.2,0.2c2.3,0.3,4.5,0.8,6.7,1.4v-4
	C281.6,273.4,279.4,272.9,277.1,272.6z"/>
<path class="st48" d="M277.1,279.2c-3.7-0.5-7.4-0.6-11.1-0.2c-1.1,0.1-2.3,0.3-3.4,0.5c-1.7,0.3-3.4,0.7-5.1,1.1v2.7
	c1.7-0.5,3.4-0.8,5.1-1.1c1.1-0.2,2.3-0.4,3.4-0.5c3.7-0.4,7.5-0.3,11.2,0.2c2.3,0.3,4.5,0.8,6.7,1.4v-2.6
	C281.7,280,279.4,279.5,277.1,279.2z"/>
<path class="st47" d="M283.9,265.2v101.4c-2.2,0.6-4.4,1.1-6.7,1.4V263.8C279.4,264.1,281.7,264.6,283.9,265.2z"/>
<path class="st46" d="M266,263.6v104.6c-1.1-0.1-2.3-0.3-3.4-0.5V264.1C263.7,263.9,264.9,263.7,266,263.6z"/>
<path class="st58" d="M311.1,261.9v5.6h-22.7v-5.6c5.3-14.5,8.2-21.8,11.2-22S305.6,247.1,311.1,261.9z"/>
<path class="st47" d="M311.1,267.5h-22.7v-5.6c7.5-1.8,15.2-1.8,22.7,0V267.5z"/>
<polygon class="st46" points="298.6,242.6 296.6,259.6 292.7,260.1 "/>
<path class="st47" d="M311.1,261.9c-2-0.5-4-0.8-6.1-1.1l-5.4-20.9C302.6,239.7,305.6,247.1,311.1,261.9z"/>
<path class="st50" d="M288.4,364.1h22.7v4.5c0,0.7-0.4,1.2-1.1,1.4c-6.7,1.5-13.7,1.5-20.5,0c-0.7-0.1-1.1-0.7-1.1-1.4L288.4,364.1z
	"/>
<path class="st58" d="M312.9,265.2v101.4c-2.2,0.6-4.4,1.1-6.7,1.4c-3.7,0.5-7.4,0.6-11.2,0.2c-1.1-0.1-2.3-0.3-3.4-0.5
	c-1.7-0.3-3.4-0.7-5.1-1.1V265.2c1.7-0.5,3.4-0.8,5.1-1.1c1.1-0.2,2.3-0.4,3.4-0.5c3.7-0.4,7.5-0.3,11.2,0.2
	C308.5,264.1,310.7,264.6,312.9,265.2z"/>
<path class="st48" d="M295,361.6c-1.1-0.1-2.3-0.3-3.4-0.5c-1.7-0.3-3.4-0.7-5.1-1.1v3.4c1.7,0.5,3.4,0.8,5.1,1.1
	c1.1,0.2,2.3,0.4,3.4,0.5c3.7,0.4,7.5,0.3,11.2-0.2c2.3-0.3,4.5-0.8,6.7-1.4V360c-2.2,0.6-4.4,1.1-6.7,1.4
	C302.5,361.9,298.7,361.9,295,361.6z"/>
<path class="st48" d="M295,355.4c-1.1-0.1-2.3-0.3-3.4-0.5c-1.7-0.3-3.4-0.7-5.1-1.1v4.4c1.7,0.5,3.4,0.8,5.1,1.1
	c1.1,0.2,2.3,0.4,3.4,0.5c3.7,0.4,7.5,0.3,11.2-0.2c2.3-0.3,4.5-0.8,6.7-1.4v-4.4c-2.2,0.6-4.4,1.1-6.7,1.4
	C302.5,355.7,298.7,355.7,295,355.4z"/>
<path class="st48" d="M306.2,272.6c-3.7-0.5-7.4-0.6-11.2-0.2c-1.1,0.1-2.3,0.3-3.4,0.5c-1.7,0.3-3.4,0.7-5.1,1.1v4
	c1.7-0.5,3.4-0.8,5.1-1.1c1.1-0.2,2.3-0.3,3.4-0.5c3.7-0.4,7.5-0.3,11.2,0.2c2.3,0.3,4.5,0.8,6.7,1.4v-4
	C310.7,273.4,308.5,272.9,306.2,272.6z"/>
<path class="st48" d="M306.2,279.2c-3.7-0.5-7.5-0.6-11.2-0.2c-1.1,0.1-2.3,0.3-3.4,0.5c-1.7,0.3-3.4,0.7-5.1,1.1v2.7
	c1.7-0.5,3.4-0.8,5.1-1.1c1.1-0.2,2.3-0.4,3.4-0.5c3.7-0.4,7.5-0.3,11.2,0.2c2.3,0.3,4.5,0.8,6.7,1.4v-2.6
	C310.7,280,308.4,279.5,306.2,279.2z"/>
<path class="st47" d="M312.9,265.2v101.4c-2.2,0.6-4.4,1.1-6.7,1.4V263.8C308.5,264.1,310.7,264.6,312.9,265.2z"/>
<path class="st46" d="M295,263.6v104.6c-1.1-0.1-2.3-0.3-3.4-0.5V264.1C292.8,263.9,293.9,263.7,295,263.6z"/>
<path class="st59" d="M340.1,261.9v5.6h-22.7v-5.6c5.3-14.5,8.2-21.8,11.2-22S334.6,247.1,340.1,261.9z"/>
<path class="st47" d="M340.1,267.5h-22.7v-5.6c7.5-1.8,15.2-1.8,22.7,0V267.5z"/>
<polygon class="st46" points="327.6,242.6 325.6,259.6 321.7,260.1 "/>
<path class="st47" d="M340.1,261.9c-2-0.5-4.1-0.8-6.1-1.1l-5.4-20.9C331.6,239.7,334.6,247.1,340.1,261.9z"/>
<path class="st52" d="M317.4,364.1h22.7v4.5c0,0.7-0.5,1.3-1.1,1.4c-6.7,1.5-13.7,1.5-20.5,0c-0.7-0.1-1.1-0.7-1.1-1.4L317.4,364.1z
	"/>
<path class="st59" d="M341.9,265.2v101.4c-2.2,0.6-4.4,1.1-6.7,1.4c-3.7,0.5-7.4,0.6-11.1,0.2c-1.1-0.1-2.3-0.3-3.4-0.5
	c-1.7-0.3-3.4-0.7-5-1.1V265.2c1.7-0.5,3.3-0.8,5-1.1c1.1-0.2,2.3-0.4,3.4-0.5c3.7-0.4,7.5-0.3,11.1,0.2
	C337.5,264.1,339.7,264.6,341.9,265.2z"/>
<path class="st48" d="M324.1,361.6c-1.1-0.1-2.3-0.3-3.4-0.5c-1.7-0.3-3.4-0.7-5-1.1v3.4c1.7,0.5,3.3,0.8,5,1.1
	c1.1,0.2,2.3,0.4,3.4,0.5c3.7,0.4,7.5,0.3,11.1-0.2c2.3-0.3,4.5-0.8,6.7-1.4V360c-2.2,0.6-4.4,1.1-6.7,1.4
	C331.5,361.9,327.8,361.9,324.1,361.6z"/>
<path class="st48" d="M324.1,355.4c-1.1-0.1-2.3-0.3-3.4-0.5c-1.7-0.3-3.4-0.7-5-1.1v4.4c1.7,0.5,3.3,0.8,5,1.1
	c1.1,0.2,2.3,0.4,3.4,0.5c3.7,0.4,7.5,0.3,11.1-0.2c2.3-0.3,4.5-0.8,6.7-1.4v-4.4c-2.2,0.6-4.4,1.1-6.7,1.4
	C331.5,355.7,327.8,355.7,324.1,355.4z"/>
<path class="st48" d="M335.2,272.6c-3.7-0.5-7.4-0.6-11.1-0.2c-1.1,0.1-2.3,0.3-3.4,0.5c-1.7,0.3-3.4,0.7-5,1.1v4
	c1.7-0.5,3.4-0.8,5-1.1c1.1-0.2,2.3-0.3,3.4-0.5c3.7-0.4,7.5-0.3,11.1,0.2c2.3,0.3,4.5,0.8,6.7,1.4v-4
	C339.7,273.4,337.5,272.9,335.2,272.6z"/>
<path class="st48" d="M335.2,279.2c-3.7-0.5-7.4-0.6-11.1-0.2c-1.1,0.1-2.3,0.3-3.4,0.5c-1.7,0.3-3.4,0.7-5,1.1v2.7
	c1.7-0.5,3.3-0.8,5-1.1c1.1-0.2,2.3-0.4,3.4-0.5c3.7-0.4,7.5-0.3,11.1,0.2c2.3,0.3,4.5,0.8,6.7,1.4v-2.7
	C339.7,280,337.5,279.5,335.2,279.2z"/>
<path class="st47" d="M341.9,265.2v101.4c-2.2,0.6-4.4,1.1-6.7,1.4V263.8C337.5,264.1,339.7,264.6,341.9,265.2z"/>
<path class="st46" d="M324.1,263.6v104.6c-1.1-0.1-2.3-0.3-3.4-0.5V264.1C321.8,263.9,323,263.7,324.1,263.6z"/>
<path class="st60" d="M369.2,261.9v5.6h-22.7v-5.6c5.3-14.5,8.2-21.8,11.2-22S363.7,247.1,369.2,261.9z"/>
<path class="st47" d="M369.2,267.5h-22.7v-5.6c7.5-1.8,15.2-1.8,22.7,0V267.5z"/>
<polygon class="st46" points="356.7,242.6 354.7,259.6 350.8,260.1 "/>
<path class="st47" d="M369.2,261.9c-2-0.5-4.1-0.8-6.1-1.1l-5.4-20.9C360.7,239.7,363.7,247.1,369.2,261.9z"/>
<path class="st54" d="M346.5,364.1h22.7v4.5c0,0.7-0.5,1.2-1.1,1.4c-6.7,1.5-13.7,1.5-20.5,0c-0.7-0.1-1.1-0.7-1.1-1.4L346.5,364.1z
	"/>
<path class="st60" d="M371,265.2v101.4c-2.2,0.6-4.4,1.1-6.7,1.4c-3.7,0.5-7.4,0.6-11.1,0.2c-1.1-0.1-2.3-0.3-3.4-0.5
	c-1.7-0.3-3.4-0.7-5.1-1.1V265.2c1.7-0.5,3.4-0.8,5.1-1.1c1.1-0.2,2.3-0.4,3.4-0.5c3.7-0.4,7.5-0.3,11.1,0.2
	C366.6,264.1,368.8,264.6,371,265.2z"/>
<path class="st48" d="M353.1,361.6c-1.1-0.1-2.3-0.3-3.4-0.5c-1.7-0.3-3.4-0.7-5.1-1.1v3.4c1.7,0.5,3.4,0.8,5.1,1.1
	c1.1,0.2,2.3,0.4,3.4,0.5c3.7,0.4,7.5,0.3,11.1-0.2c2.3-0.3,4.5-0.8,6.7-1.4V360c-2.2,0.6-4.4,1.1-6.7,1.4
	C360.6,361.9,356.9,361.9,353.1,361.6z"/>
<path class="st48" d="M353.1,355.4c-1.1-0.1-2.3-0.3-3.4-0.5c-1.7-0.3-3.4-0.7-5.1-1.1v4.4c1.7,0.5,3.4,0.8,5.1,1.1
	c1.1,0.2,2.3,0.4,3.4,0.5c3.7,0.4,7.5,0.3,11.1-0.2c2.3-0.3,4.5-0.8,6.7-1.4v-4.4c-2.2,0.6-4.4,1.1-6.7,1.4
	C360.6,355.7,356.9,355.7,353.1,355.4z"/>
<path class="st48" d="M364.3,272.6c-3.7-0.5-7.4-0.6-11.1-0.2c-1.1,0.1-2.3,0.3-3.4,0.5c-1.7,0.3-3.4,0.7-5.1,1.1v4
	c1.7-0.5,3.4-0.8,5.1-1.1c1.1-0.2,2.3-0.3,3.4-0.5c3.7-0.4,7.5-0.3,11.1,0.2c2.3,0.3,4.5,0.8,6.7,1.4v-4
	C368.8,273.4,366.6,272.9,364.3,272.6z"/>
<path class="st48" d="M364.3,279.2c-3.7-0.5-7.4-0.6-11.1-0.2c-1.1,0.1-2.3,0.3-3.4,0.5c-1.7,0.3-3.4,0.7-5.1,1.1v2.7
	c1.7-0.5,3.4-0.8,5.1-1.1c1.1-0.2,2.3-0.4,3.4-0.5c3.7-0.4,7.5-0.3,11.1,0.2c2.3,0.3,4.5,0.8,6.7,1.4v-2.7
	C368.8,280,366.6,279.5,364.3,279.2z"/>
<path class="st47" d="M371,265.2v101.4c-2.2,0.6-4.4,1.1-6.7,1.4V263.8C366.6,264.1,368.8,264.6,371,265.2z"/>
<path class="st46" d="M353.1,263.6v104.6c-1.1-0.1-2.3-0.3-3.4-0.5V264.1C350.9,263.9,352,263.7,353.1,263.6z"/>
<path class="st55" d="M397.7,261.9v5.6H375v-5.6c5.3-14.5,8.2-21.8,11.2-22S392.2,247.1,397.7,261.9z"/>
<path class="st56" d="M397.7,267.5H375v-5.6c7.5-1.8,15.2-1.8,22.7,0L397.7,267.5z"/>
<polygon class="st46" points="385.2,242.6 383.2,259.6 379.3,260.1 "/>
<path class="st47" d="M397.7,261.9c-2-0.5-4-0.8-6.1-1.1l-5.4-20.9C389.2,239.7,392.2,247.1,397.7,261.9z"/>
<path class="st56" d="M375,364.1h22.7v4.5c0,0.7-0.5,1.2-1.1,1.4c-6.7,1.5-13.7,1.5-20.5,0c-0.7-0.1-1.1-0.7-1.1-1.4V364.1z"/>
<path class="st55" d="M399.5,265.2v101.4c-2.2,0.6-4.4,1.1-6.7,1.4c-3.7,0.5-7.4,0.6-11.2,0.2c-1.1-0.1-2.3-0.3-3.4-0.5
	c-1.7-0.3-3.4-0.7-5.1-1.1V265.2c1.7-0.5,3.4-0.8,5.1-1.1c1.1-0.2,2.3-0.4,3.4-0.5c3.7-0.4,7.5-0.3,11.2,0.2
	C395.1,264.1,397.3,264.6,399.5,265.2z"/>
<path class="st48" d="M381.7,361.6c-1.1-0.1-2.3-0.3-3.4-0.5c-1.7-0.3-3.4-0.7-5.1-1.1v3.4c1.7,0.5,3.4,0.8,5.1,1.1
	c1.1,0.2,2.3,0.4,3.4,0.5c3.7,0.4,7.5,0.3,11.2-0.2c2.3-0.3,4.5-0.8,6.7-1.4V360c-2.2,0.6-4.4,1.1-6.7,1.4
	C389.1,361.9,385.4,361.9,381.7,361.6z"/>
<path class="st48" d="M381.7,355.4c-1.1-0.1-2.3-0.3-3.4-0.5c-1.7-0.3-3.4-0.7-5.1-1.1v4.4c1.7,0.5,3.4,0.8,5.1,1.1
	c1.1,0.2,2.3,0.4,3.4,0.5c3.7,0.4,7.5,0.3,11.2-0.2c2.3-0.3,4.5-0.8,6.7-1.4v-4.4c-2.2,0.6-4.4,1.1-6.7,1.4
	C389.1,355.7,385.4,355.7,381.7,355.4z"/>
<path class="st48" d="M392.8,272.6c-3.7-0.5-7.4-0.6-11.2-0.2c-1.1,0.1-2.3,0.3-3.4,0.5c-1.7,0.3-3.4,0.7-5.1,1.1v4
	c1.7-0.5,3.4-0.8,5.1-1.1c1.1-0.2,2.3-0.3,3.4-0.5c3.7-0.4,7.5-0.3,11.2,0.2c2.3,0.3,4.5,0.8,6.7,1.4v-4
	C397.3,273.4,395.1,272.9,392.8,272.6z"/>
<path class="st48" d="M392.8,279.2c-3.7-0.5-7.4-0.6-11.2-0.2c-1.1,0.1-2.3,0.3-3.4,0.5c-1.7,0.3-3.4,0.7-5.1,1.1v2.7
	c1.7-0.5,3.4-0.8,5.1-1.1c1.1-0.2,2.3-0.4,3.4-0.5c3.7-0.4,7.5-0.3,11.2,0.2c2.3,0.3,4.5,0.8,6.7,1.4v-2.7
	C397.3,280,395.1,279.5,392.8,279.2z"/>
<path class="st47" d="M399.5,265.2v101.4c-2.2,0.6-4.4,1.1-6.7,1.4V263.8C395.1,264.1,397.3,264.6,399.5,265.2z"/>
<path class="st46" d="M381.7,263.6v104.6c-1.1-0.1-2.3-0.3-3.4-0.5V264.1C379.4,263.9,380.5,263.7,381.7,263.6z"/>
</svg>
