<?xml version="1.0" encoding="UTF-8"?><svg id="a" xmlns="http://www.w3.org/2000/svg" viewBox="0 0 135 45"><defs><style>.b{fill:#fffde9;}</style></defs><path class="b" d="M38.14,25.34c0,1.68-.56,3.01-1.69,4-1.13,.99-2.72,1.48-4.77,1.48-1.42,0-2.77-.13-4.06-.4-1.29-.27-2.35-.63-3.2-1.08l.68-4.08c2.32,1.2,4.35,1.8,6.08,1.8,.59,0,1.01-.13,1.26-.38s.38-.54,.38-.86c0-.4-.1-.73-.3-.98-.2-.25-.69-.57-1.46-.94-1.09-.48-2.03-.96-2.82-1.44-.79-.48-1.43-.98-1.92-1.5-.49-.52-.85-1.07-1.08-1.66-.23-.59-.34-1.25-.34-2,0-1.68,.64-2.98,1.93-3.9,1.29-.92,2.97-1.38,5.05-1.38,1.11,0,2.1,.09,2.98,.26,.88,.17,1.88,.51,2.99,1.02l-.64,4.04c-.92-.53-1.83-.9-2.75-1.1-.92-.2-1.79-.3-2.63-.3-.62,0-1.05,.11-1.27,.34-.23,.23-.34,.53-.34,.9,0,.45,.18,.82,.55,1.1,.37,.28,1.08,.65,2.13,1.1,.95,.48,1.76,.94,2.43,1.38s1.21,.89,1.64,1.36,.73,.96,.91,1.48c.18,.52,.27,1.1,.27,1.74Z"/><path class="b" d="M49.42,7.79c0,.7-.31,1.29-.92,1.78-.61,.49-1.35,.73-2.2,.73s-1.63-.25-2.24-.75c-.61-.5-.93-1.11-.96-1.83-.03-.72,.27-1.33,.88-1.83,.61-.5,1.39-.75,2.32-.75,.4,0,.79,.07,1.18,.2,.39,.14,.72,.32,1,.56,.28,.24,.51,.52,.68,.85,.17,.33,.26,.67,.26,1.04Zm-6,22.43V12.62h5.32V30.22h-5.32Z"/><path class="b" d="M71.58,30.78c0,2.16-.22,3.97-.67,5.42-.45,1.45-1.06,2.62-1.84,3.5-.78,.88-1.69,1.51-2.75,1.9s-2.22,.58-3.47,.58c-1.17,0-2.36-.07-3.57-.22-1.21-.15-2.33-.43-3.37-.86v-4.04c1.05,.37,2.07,.66,3.06,.86,.99,.2,1.85,.3,2.58,.3s1.34-.13,1.91-.4c.58-.27,1.07-.69,1.49-1.28,.42-.59,.74-1.36,.97-2.32,.23-.96,.34-2.12,.34-3.48v-1.76c-.8,.69-1.56,1.14-2.28,1.34-.72,.2-1.55,.3-2.48,.3-1.15,0-2.19-.2-3.12-.6-.93-.4-1.73-.96-2.38-1.68s-1.16-1.59-1.52-2.62c-.36-1.03-.54-2.17-.54-3.42,0-1.55,.28-2.94,.83-4.18,.55-1.24,1.34-2.3,2.37-3.18s2.27-1.55,3.73-2.02,3.11-.7,4.95-.7c.57,0,1.07,0,1.5,.02,.43,.01,.86,.05,1.28,.1s.87,.13,1.34,.22c.47,.09,1.02,.22,1.64,.38V30.78Zm-5.32-13.36c-.47-.08-.82-.13-1.05-.16s-.54-.04-.93-.04c-1.57,0-2.79,.43-3.69,1.3-.89,.87-1.34,2.06-1.34,3.58,0,1.09,.29,1.93,.88,2.52s1.32,.88,2.2,.88c.49,0,.97-.05,1.44-.16,.47-.11,.88-.35,1.25-.72,.37-.37,.67-.91,.89-1.62,.22-.71,.33-1.66,.33-2.86v-2.72Z"/><path class="b" d="M88.54,30.22v-9.95c0-.64-.06-1.16-.18-1.54-.12-.39-.29-.68-.51-.89-.22-.21-.46-.34-.74-.41s-.56-.1-.86-.1c-.46,0-.91,.13-1.33,.41-.42,.27-.8,.64-1.12,1.1-.33,.46-.59,1.01-.8,1.64-.2,.63-.31,1.29-.31,1.99v7.75h-5.32V2.82h5.28V14.62c.68-.72,1.42-1.23,2.21-1.54,.79-.31,1.68-.46,2.68-.46,.79,0,1.56,.1,2.31,.31,.75,.21,1.42,.54,2.01,.99,.59,.46,1.07,1.06,1.44,1.81,.37,.75,.55,1.67,.55,2.76v11.72h-5.32Z"/><path class="b" d="M100.82,30.22v-13.8h-3.52v-3.8h3.52v-4.44h5.24v4.44h4.52v3.8h-4.52v13.8h-5.24Z"/></svg>