<?xml version="1.0" encoding="utf-8"?>
<!-- Generator: Adobe Illustrator 25.2.3, SVG Export Plug-In . SVG Version: 6.00 Build 0)  -->
<svg version="1.1" id="Layer_1" xmlns="http://www.w3.org/2000/svg" xmlns:xlink="http://www.w3.org/1999/xlink" x="0px" y="0px"
	 viewBox="0 0 300 350" style="enable-background:new 0 0 300 350;" xml:space="preserve">
<style type="text/css">
	.st0{fill:#CBFDFF;}
	.st1{clip-path:url(#SVGID_2_);}
	.st2{fill:#301108;}
	.st3{fill:#C975EF;stroke:#422714;stroke-miterlimit:10;}
	.st4{fill:#A025CE;stroke:#422714;stroke-miterlimit:10;}
	.st5{fill:#FBD3C7;stroke:#9E673F;stroke-miterlimit:10;}
	.st6{fill:#E8B6AA;}
	.st7{fill:#B223B1;}
	.st8{fill:#D4A0EF;stroke:#422714;stroke-miterlimit:10;}
	.st9{fill:none;stroke:#422714;stroke-miterlimit:10;}
	.st10{fill:#F1F7F0;}
	.st11{fill:#172D14;}
	.st12{fill:#FBD3C7;}
	.st13{fill:#9E673F;}
	.st14{fill:#F58778;}
	.st15{fill:#84211C;}
	.st16{fill:#E8524B;}
	.st17{fill:#E59876;}
	.st18{fill:#F48F78;stroke:#C46455;stroke-miterlimit:10;}
	.st19{fill:#15CC19;stroke:#21100A;stroke-width:2;stroke-miterlimit:10;}
	.st20{fill:none;stroke:#21100A;stroke-width:2;stroke-miterlimit:10;}
	.st21{fill:#FEAB03;}
	.st22{fill:#E10F10;}
	.st23{fill:#FFFEFF;}
	.st24{fill:#46DBB4;stroke:#9E673F;stroke-miterlimit:10;}
	.st25{fill:#B64527;stroke:#7C2413;stroke-miterlimit:10;}
	.st26{fill:none;stroke:#2CA0CE;stroke-width:3;stroke-miterlimit:10;}
</style>
<g>
	<path class="st0" d="M37.5,10h225c13.8,0,25,11.2,25,25v280c0,13.8-11.2,25-25,25h-225c-13.8,0-25-11.2-25-25V35
		C12.5,21.2,23.7,10,37.5,10z"/>
	<g>
		<defs>
			<path id="SVGID_1_" d="M37.5,10h225c13.8,0,25,11.2,25,25v280c0,13.8-11.2,25-25,25h-225c-13.8,0-25-11.2-25-25V35
				C12.5,21.2,23.7,10,37.5,10z"/>
		</defs>
		<clipPath id="SVGID_2_">
			<use xlink:href="#SVGID_1_"  style="overflow:visible;"/>
		</clipPath>
		<g class="st1">
			<g>
				<path class="st2" d="M202.8,100.3c0,0,13.7,24.9,14.2,49.2s13.5,57.1,13.5,57.1l-9.9-2.9c1.5,3.8-15,7.5-15,7.5l-4.2-7.9
					l-1.5,10.6c0,0-24.9,11.9-36.9,2.2c0,0-30.2,18.1-56.3,17.9s-36.8-73.5-36.8-73.5S85,82.9,135.1,85.1S199.7,77.4,202.8,100.3z"
					/>
				<path class="st3" d="M107.7,324.9l-0.8,15.6c0,0,39.8,21.3,97.3,1.6c0,0,5.8-7.8,0.8-20.1L107.7,324.9z"/>
				<path class="st3" d="M197.6,289.7c0,0,12.9,31.2,39.4,36.4c0,0,24.5-3.1,16.4-33.9l-19.4-10.6c0,0-6.3,8.4-35.6-35.6
					c0,0-5.8-13.7-16.4-15S197.6,289.7,197.6,289.7z"/>
				<path class="st4" d="M114.2,232.5c0,0,8.8-8.5,26.3-10.7s43.2,3.6,43.2,3.6s23.8,25.5,21.1,99.1c0,0-17,10.9-49.8,10.4
					s-46.3-7.1-46.3-7.1s3.6-45.2,5.8-60.8S100.2,241,114.2,232.5z"/>
				<g>
					<path class="st3" d="M140.7,215.3c0,0-12.7,0.3-9.4,14.2s21.7,17.4,21.7,17.4s14-1.9,9.2-16.1L140.7,215.3z"/>
					<path class="st3" d="M160.4,228.7c0,0,2.6,11.2,13.4,14s12.9-18.2,5.1-22.4s-12.9-2.8-12.9-2.8L160.4,228.7z"/>
				</g>
				<path class="st5" d="M171.4,219.5c-0.8,4.9-3.8,8.2-9.3,10.4s-21.9-7.7-20.9-12.6c0-0.2,0.1-0.4,0.1-0.5l0,0
					c0.8-4.4-0.4-5.4-0.4-5.4c11.6-10.5,29.6-1.2,29.6-1.2c-0.8,4.1-0.7,6.5-0.3,7.8C170.6,219.4,171.4,219.5,171.4,219.5z"/>
				<path class="st6" d="M170.1,217.9c-11.3,3.2-22.4,1-28.9-1.1c0.8-4.4-0.4-5.4-0.4-5.4c11.6-10.5,29.6-1.2,29.6-1.2
					C169.6,214.2,169.7,216.6,170.1,217.9z"/>
				<ellipse class="st7" cx="198.7" cy="230.1" rx="6.1" ry="5.5"/>
				<g>
					<g>
						<path class="st5" d="M120.4,316.3c0,0-12.7-3.1-15.9,3s0.3,8.8,0.3,8.8s9.7,8.6,17.7,8.6c0,0,3.8,0.8,5.3-1.8
							c-1.4,0.7-2,2.4-1.4,3.8c0.1,0.2,0.2,0.3,0.3,0.4c2.9,3.7,8.2,4.4,11.9,1.5c0.1-0.1,0.3-0.2,0.4-0.3l1-2c0,0,2.2,4.2,7.4-0.3
							c0,0,1.2-0.5,1.1-4c0,0,4.8,4,8.4-3.7c0,0,5.5,1.9,4.4-6.8s-7.8-19.6-13-20.7c0,0-2.6,0.5-11.8,8.5s-12.2,9.7-12.2,9.7
							L120.4,316.3z"/>
						<path class="st5" d="M125,320.7c0,0-2.3,0.1-2.5,4.7"/>
						<path class="st5" d="M139.6,338.7c0,0,1.6-8.5,1.4-14.1"/>
						<path class="st5" d="M148.5,334.1c0.4-3.6,0.6-7.3,0.4-10.9"/>
						<path class="st5" d="M156.3,331.2c0,0,1-7.3,0.1-11.9"/>
					</g>
					<path class="st3" d="M127.4,262.3c0,0-3.5,18.1-11.9,6.8l-19.3,9.9c3.6,7.7,7.9,15.2,12.6,22.3c3.6,5.5,7.7,10.7,12.2,15.5
						c0,0-16.6-1.6-17.3,10.7c-5.7-3.1-11.1-6.8-16-11.1c-11.8-10-21-22.8-26.7-37.1c0,0-0.4-5.1,8.4-14.4s25.7-25.7,25.7-25.7
						s12.5-13.1,27.1-10.3C122.3,228.8,131.5,238.1,127.4,262.3z"/>
					<path class="st8" d="M121.1,316.7c0,0-16.6-1.6-17.3,10.7c-5.7-3.1-11.1-6.8-16-11.1c1.3-5.6,5-10.5,10-13.3
						c3.3-1.9,7.2-2.5,11-1.7C112.5,306.7,116.6,311.9,121.1,316.7z"/>
					<path class="st3" d="M96.2,278.9c0,0-8.8-6.2-16.2,2.3"/>
					<line class="st9" x1="114.8" y1="269.5" x2="123.5" y2="264.8"/>
				</g>
				<path class="st5" d="M207,161.2c-1.6,38.2-30.7,55.8-57.6,53.8c-32-2.4-55.6-29.2-55.6-62.8s9.9-71.6,73.5-66.1
					C207.7,89.7,208.4,127.7,207,161.2z"/>
				<g>
					<g>
						
							<ellipse transform="matrix(0.9994 -3.420178e-02 3.420178e-02 0.9994 -4.8065 6.5177)" class="st10" cx="188.1" cy="143.8" rx="12.7" ry="14.4"/>
						<path class="st11" d="M189.8,158.1c-3.6,0.5-7.3-0.7-9.9-3.2c-2.7-2.5-4.4-5.8-4.9-9.5c-0.5-3.7,0.2-7.5,2.2-10.7
							c2-3.3,5.3-5.6,9.1-6.2c3.8-0.5,7.7,0.9,10.4,3.6c2.6,2.7,4.2,6.2,4.5,9.9c0.3,3.6-0.6,7.3-2.7,10.3
							C196.6,155.5,193.4,157.5,189.8,158.1z M189.8,158c3.5-0.6,6.7-2.7,8.6-5.7c1.9-3,2.7-6.6,2.3-10.1c-0.4-3.5-2-6.9-4.5-9.3
							c-2.6-2.5-6.1-3.7-9.7-3.2c-3.5,0.6-6.7,2.6-8.6,5.7c-1.9,3-2.7,6.6-2.3,10.1c0.4,3.6,2,6.9,4.5,9.4
							C182.7,157.2,186.2,158.4,189.8,158L189.8,158z"/>
					</g>
					<ellipse class="st11" cx="189.9" cy="149.7" rx="7.2" ry="8.2"/>
					<ellipse class="st10" cx="186.2" cy="154.1" rx="1.3" ry="1.4"/>
				</g>
				<g>
					<g>
						
							<ellipse transform="matrix(0.9917 -0.1288 0.1288 0.9917 -18.4901 19.4801)" class="st10" cx="141.4" cy="152.7" rx="13.9" ry="14.4"/>
						<path class="st11" d="M143.2,167c-3.8,0.5-7.6-0.5-10.5-2.9c-6.3-5-7.7-14-3.1-20.6c4.4-6.4,13.2-8,19.7-3.6
							c0.4,0.3,0.8,0.6,1.2,0.9c6.1,5.2,7.1,14.3,2.3,20.7C150.4,164.6,147,166.6,143.2,167z M143.2,166.9c3.7-0.5,7.1-2.5,9.3-5.5
							c4.5-6.3,3.4-15-2.6-19.9c-5.8-4.7-14.3-3.9-19.1,1.9c-0.2,0.2-0.4,0.4-0.5,0.7c-4.6,6.3-3.5,15.1,2.6,20
							C135.7,166.4,139.5,167.4,143.2,166.9L143.2,166.9z"/>
					</g>
					<ellipse class="st11" cx="143.3" cy="158.7" rx="7.8" ry="8.2"/>
					<ellipse class="st10" cx="140.9" cy="164" rx="1.4" ry="1.4"/>
				</g>
				<g>
					<path class="st5" d="M171.1,151.4l-0.3,1.3c-0.7,3-0.5,6.2,0.6,9.1l0,0c0.5,1.3,1.7,2.2,3.1,2.2c1.7,0.1,3.8,0.3,4.4,1.3
						c1.1,1.6-0.7,6.1-5.9,7.7c-3,0.9-6.2,0-8.2-2.5"/>
					<g>
						<path class="st12" d="M174.5,164.1c0,0-3.5-0.6-5.8,1"/>
						<path class="st13" d="M174.4,164.6c-0.9-0.2-1.9-0.3-2.9-0.3c-1,0-2,0.3-2.8,0.8c0.8-0.6,1.7-1.1,2.8-1.3
							c0.5-0.1,1-0.2,1.5-0.2c0.5,0,1.1,0,1.6,0L174.4,164.6z"/>
					</g>
				</g>
				<g>
					<path class="st14" d="M144.1,182.7c0,0,7.9,11.3,18.3,13.6c0,0,6.6,1.1,12.1-0.4c2.3-0.6,4.1-2.2,5.2-4.3l6.6-13.2
						C186.3,178.4,168.8,187,144.1,182.7z"/>
					<path class="st15" d="M144.8,182.6c0,0,7.2,8.9,17.5,11.3c0,0,7.5,0.9,13.1-1.5c1.5-0.7,2.8-1.8,3.6-3.2l5.8-10
						C184.8,179.2,169.5,186.9,144.8,182.6z"/>
					<path class="st10" d="M181,180.3c-1.4,1.6-2.7,3.3-3.7,5.2c0,0-15.7,7-30.6-2.1l18.5,0.3L181,180.3z"/>
					<path class="st14" d="M143.9,182.4c0,0,24.3,4,45.3-5.5C189.2,176.9,168.8,190,143.9,182.4z"/>
					<path class="st16" d="M153.5,189.8c0,0,6.7-2,11.4-0.7c0,0,4.3-1.3,7.3,0.8c0,0,2.3,1.3,2.3,2.8
						C167.5,195.4,159.6,194.3,153.5,189.8z"/>
					<path class="st17" d="M145.2,180.3c0,0-2.1,3.5-2.1,6.1c0,0-1.2-4.4,2.1-6.4"/>
				</g>
				<path class="st2" d="M214.9,115.8l-19.9-3.1l-4.4-11.3l0.9,10.8l-19.6,2.4l-4-11.9l1.8,12.8l-23,4l-3.5-10.4l-0.1,11.4
					c0,0-31.8,6.4-37.3,17.7c0,0-3.3,21.6,4.2,30.2c-5.2-3.2-11-5.2-17-5.9c-4.4-0.6-6.5-1.8-7.4-3c2.3,12.3,6.5,55.4,27,69.9
					c0,0-6.6-1-12.9,5.3l-8.2,8.3l-6,1l-15.8,1.4c0,0-22.1-42.6-23.6-93.7s19.7-95.3,64.2-100.8c34.2-4.2,49.7,2.2,55,5.4
					c0.9,0.5,1.7,1.1,2.4,1.7c0,0,12.1,2.4,15.6,8.7c0.1,0.2,0.1,0.4,0.1,0.5c0,0,11.7,2.9,18.3,12.1
					C216.5,100.4,214.9,115.8,214.9,115.8z"/>
				<path class="st18" d="M183.1,66.7c-28.1-7.5-70.2,2.3-89,29.2c-20.5,29.3-8.6,64.9-8.6,64.9h-5.5c0,0-22.3-33.8,9.3-74.1
					c22.8-29.2,57.4-31.2,78.3-29.4l0,0C167.5,57.3,179.4,58.2,183.1,66.7z"/>
				<path class="st11" d="M176.8,122.8c7.4-0.7,14.8-0.3,22.1,1.3l-0.2-1.5C198.6,122.6,178.1,112.9,176.8,122.8z"/>
				<path class="st11" d="M147.7,127.5c-6.9,1.3-13.6,3.8-19.8,7.3l-0.2-1.5C127.7,133.3,143.6,118.4,147.7,127.5z"/>
				<g>
					<g>
						<path class="st5" d="M104.1,161.2c0,0-9.6-15.2-23-11s-6.7,24,3.9,28.6s17.1-2.4,17.1-2.4"/>
						<path class="st5" d="M77.6,161.8c0,0,5.3-11.5,17.4,5.7c0,0-6.6-1.8-7.7,3.3s6,2.9,6,2.9"/>
					</g>
					<g>
						<circle class="st19" cx="98.2" cy="190.6" r="5.2"/>
						<path class="st20" d="M95.5,175.7c0,0-3.1,7.5,1.1,13.2"/>
						<line class="st20" x1="98.1" y1="179" x2="98.2" y2="185.4"/>
					</g>
				</g>
				<g>
					<path class="st21" d="M238.5,219.3c0,14.4-12.8,24.8-29.8,24.8s-32.1-14.7-32.1-29s14.1-25,31.1-25S238.5,204.9,238.5,219.3z"
						/>
					<ellipse class="st7" cx="225.7" cy="210.3" rx="6.1" ry="5.5"/>
					<ellipse class="st7" cx="198.7" cy="230.1" rx="6.1" ry="5.5"/>
					<ellipse class="st22" cx="203.6" cy="212.2" rx="6.1" ry="5.5"/>
					<ellipse class="st23" cx="186.2" cy="209.6" rx="6.1" ry="5.5"/>
					<ellipse class="st23" cx="199.4" cy="196.9" rx="6.1" ry="5.5"/>
					<ellipse class="st22" cx="212" cy="189.2" rx="6.1" ry="5.5"/>
					<g>
						
							<ellipse transform="matrix(0.9173 -0.3983 0.3983 0.9173 -76.7328 106.3571)" class="st24" cx="217.6" cy="237.9" rx="30.5" ry="9.2"/>
						
							<ellipse transform="matrix(0.9173 -0.3983 0.3983 0.9173 -76.7328 106.3571)" class="st25" cx="217.6" cy="237.9" rx="30.5" ry="9.2"/>
						<path class="st25" d="M242.1,233.5c1.5,3.5,20.8,80.2,11.9,82.5c-7,1.8-51.3-60.4-52.8-63.9s6.2-9.8,18.1-15
							S240.6,230,242.1,233.5z"/>
						<g>
							<path class="st25" d="M207.8,261.7c9.1-10.3,20.6-18.2,33.5-23c2.2-0.8,4.6,0.3,5.4,2.5c0.4,1,0.3,2.1-0.1,3.1l-0.1,0.1
								c-12.9,5.4-24.5,13.5-34,23.7c0,0-2.8,0.8-4.7-1C206.5,265.6,206.4,263.2,207.8,261.7z"/>
							<path class="st25" d="M216.7,275.4c8.2-9.3,18.5-16.4,30.1-20.7c2-0.7,4.1,0.3,4.9,2.2c0.3,0.9,0.3,1.9-0.1,2.8l-0.1,0.1
								c-11.6,4.8-22,12.1-30.5,21.3c-1.5,0.4-3,0.1-4.2-0.9C215.5,278.9,215.5,276.8,216.7,275.4z"/>
							<path class="st25" d="M227.2,289.4c7.2-8.1,16.2-14.4,26.4-18.1c1.7-0.6,3.6,0.2,4.3,2c0.3,0.8,0.3,1.6,0,2.4
								c0,0,0,0.1,0,0.1c-10.2,4.2-19.3,10.6-26.8,18.7c-1.3,0.3-2.7,0-3.7-0.8C226.2,292.4,226.1,290.6,227.2,289.4z"/>
							<path class="st25" d="M237.3,301.8c4.4-5.3,10.1-9.3,16.6-11.5c1.9-0.7,3.1,1.7,2.3,3.4c0,0-0.7,0.4-0.7,0.4
								s-7.2,2.1-15.6,11c-0.9,0.2-1.8,0-2.5-0.5C236.6,303.8,236.5,302.6,237.3,301.8z"/>
						</g>
						<g>
							<path class="st5" d="M232.6,274.8c0,0-3.5,4.7,1.4,6.8s6.6-3.9,13.4,1.2s8.4,10.1,8.4,10.1s6.6-14.6-1.9-38.8
								c0,0-5.3-14.4-22.6-11.7c0,0-12.1,1-10.5,6.8c0.8,3,4.3,3.4,11.5,4.4c0,0-10.3,1.6-7.4,7.8c0,0,1.2,3.1,8,2.7
								c0,0-5.1,2.7-4.7,6.4S232.6,274.8,232.6,274.8z"/>
							<path class="st5" d="M231.6,276.3c0,0,0.8-3.7,10.1-3.8s10.4,4.9,10.4,4.9"/>
							<path class="st5" d="M231.1,265.4c0,0,8.2-6,20.4,1.4"/>
							<path class="st5" d="M230.8,254.2c0,0,10.2-3.3,22.2,3.1"/>
						</g>
					</g>
				</g>
			</g>
		</g>
	</g>
	<path class="st26" d="M37.5,10h225c13.8,0,25,11.2,25,25v280c0,13.8-11.2,25-25,25h-225c-13.8,0-25-11.2-25-25V35
		C12.5,21.2,23.7,10,37.5,10z"/>
</g>
</svg>
