<?xml version="1.0" encoding="utf-8"?>
<!-- Generator: Adobe Illustrator 25.0.0, SVG Export Plug-In . SVG Version: 6.00 Build 0)  -->
<svg version="1.1" id="Layer_1" xmlns="http://www.w3.org/2000/svg" xmlns:xlink="http://www.w3.org/1999/xlink" x="0px" y="0px"
	 viewBox="0 0 512 400" style="enable-background:new 0 0 512 400;" xml:space="preserve">
<style type="text/css">
	.st0{opacity:0.3;enable-background:new    ;}
	.st1{fill:#F2DCE9;}
	.st2{fill:#EED1E4;}
	.st3{fill:#EECFE1;}
	.st4{fill:#FFEBF7;}
	.st5{fill:#E6BFD9;}
	.st6{fill:#CF99BD;}
	.st7{fill:#EED8E5;}
	.st8{fill:#FFFFFF;}
	.st9{fill:#769E37;}
	.st10{fill:#8BB44B;}
	.st11{fill:#9CCC50;}
</style>
<g>
	<defs>
		<path id="SVGID_1_" d="M595-450.9v361.8C595-57,569-31,536.9-31H63.1C31-31,5-57,5-89.1v-361.8C5-483,31-509,63.1-509h473.8
			C569-509,595-483,595-450.9z"/>
	</defs>
	<clipPath id="SVGID_2_">
		<use xlink:href="#SVGID_1_"  style="overflow:visible;"/>
	</clipPath>
</g>
<path class="st0" d="M296.8,188.9c0.2-0.2,0.4-0.5,0.6-0.7s0.5-0.5,0.7-0.8s0.4-0.5,0.6-0.8s0.4-0.6,0.6-0.8s0.4-0.6,0.6-0.9
	s0.4-0.6,0.6-0.9s0.4-0.6,0.6-0.9s0.4-0.6,0.5-0.9s0.4-0.6,0.5-1l0.5-0.9c0.2-0.3,0.3-0.7,0.5-1s0.3-0.6,0.4-1s0.3-0.7,0.4-1.1
	s0.3-0.6,0.4-1s0.3-0.7,0.4-1.1s0.2-0.7,0.3-1s0.2-0.8,0.3-1.1s0.2-0.7,0.3-1.1s0.2-0.8,0.3-1.2s0.1-0.7,0.2-1.1s0.1-0.8,0.2-1.2
	s0.1-0.7,0.1-1.1s0.1-0.9,0.1-1.3s0.1-0.8,0.1-1.2s0-0.9,0.1-1.3s0-0.8,0-1.2s0-0.9,0-1.4s0-0.8,0-1.2s-0.1-1-0.1-1.4
	s-0.1-0.8-0.1-1.2s-0.1-1-0.2-1.5s-0.1-0.8-0.2-1.2s-0.2-1-0.3-1.6s-0.2-0.8-0.2-1.2s-0.3-1.1-0.4-1.7s-0.2-0.8-0.3-1.2
	c-0.2-0.6-0.4-1.2-0.5-1.8c-0.1-0.4-0.2-0.8-0.4-1.2c-0.2-0.7-0.5-1.3-0.7-2c-0.1-0.4-0.2-0.7-0.4-1c-0.4-1-0.8-2.1-1.3-3.1
	c-15.2-34.6-53-37-72.1-52.8c-0.6-0.5-1.2-1-1.8-1.6c-0.2-0.2-0.4-0.4-0.6-0.6c-0.4-0.3-0.7-0.7-1.1-1s-0.4-0.4-0.6-0.7
	s-0.6-0.6-0.9-1l-0.6-0.8c-0.3-0.3-0.5-0.6-0.8-0.9l-0.6-0.8c-0.2-0.3-0.5-0.6-0.7-0.9l-0.6-0.8c-0.2-0.3-0.4-0.6-0.6-0.9
	s-0.4-0.6-0.6-0.9s-0.4-0.6-0.5-0.9s-0.4-0.6-0.5-0.9l-0.5-0.9c-0.2-0.3-0.3-0.6-0.5-0.9s-0.3-0.6-0.4-0.9l-0.4-1
	c-0.1-0.3-0.3-0.6-0.4-0.9s-0.3-0.7-0.4-1s-0.2-0.6-0.3-0.9s-0.2-0.7-0.4-1s-0.2-0.6-0.3-0.9s-0.2-0.7-0.3-1l-0.2-0.8
	c-0.1-0.4-0.2-0.7-0.3-1.1l-0.2-0.8l-0.2-1.1c-0.1-0.3-0.1-0.6-0.2-0.8s-0.1-0.7-0.2-1.1c-2-10.9-1-21.9-0.3-30.7
	c2.4-7.3-40-17.7-41-5.7c-0.2,10.8-2.6,30-5.8,44.1c-1.1,5-3.2,9.7-6,13.9c-1.2,1.8-2.5,3.5-3.9,5.2l-0.4,0.4
	c-0.7,0.8-1.4,1.6-2.2,2.3l-0.3,0.3c-0.7,0.7-1.5,1.4-2.2,2.1l-0.3,0.2c-0.8,0.7-1.6,1.4-2.5,2.1l-0.4,0.4c-1.7,1.4-3.5,2.7-5.4,4
	l-0.4,0.3c-0.9,0.6-1.8,1.2-2.8,1.9l-0.3,0.2c-0.9,0.6-1.8,1.2-2.7,1.7l-0.3,0.2c-1,0.6-1.9,1.2-2.9,1.8l-0.5,0.3
	c-2.1,1.3-4.2,2.5-6.2,3.7l-2.7,1.6l-0.5,0.3l-2.4,1.5l-0.5,0.3c-0.9,0.5-1.7,1.1-2.6,1.6l-0.6,0.4c-0.9,0.6-1.8,1.1-2.6,1.7
	c-21.1,14.3-37.8,36.4-31,68.3c0.3,1.5,0.7,3,1.2,4.5c0.2,0.5,0.3,1,0.5,1.4c0.3,1,0.7,1.9,1,2.9c0.2,0.6,0.5,1.1,0.7,1.6
	c0.4,0.8,0.7,1.7,1.1,2.5c0.3,0.6,0.6,1.1,0.9,1.6c0.4,0.8,0.8,1.5,1.2,2.2c0.3,0.5,0.7,1.1,1,1.6c0.4,0.7,0.9,1.4,1.4,2.1
	c0.4,0.5,0.7,1,1.1,1.5c0.5,0.7,1,1.3,1.5,1.9c0.4,0.5,0.8,1,1.2,1.4c0.5,0.6,1.1,1.2,1.6,1.8c0.4,0.4,0.8,0.9,1.2,1.3
	c0.6,0.6,1.2,1.2,1.8,1.8c0.4,0.4,0.8,0.8,1.2,1.1c0.7,0.6,1.3,1.2,2,1.7c0.4,0.3,0.7,0.6,1.1,0.9c1,0.8,2,1.5,3,2.3l0.4,0.3
	c1,0.7,2,1.3,2.9,1.9c0.4,0.2,0.8,0.4,1.2,0.6c0.7,0.4,1.4,0.8,2,1.1l0,0l0,0l0.1,0.1c0.3,0.2,0.7,0.3,1,0.5l0.4,0.2
	c0.4,0.2,0.8,0.4,1.2,0.6l0.4,0.2c0.4,0.2,0.8,0.3,1.2,0.5l0.2,0.1l1,0.4c0.2,0.1,0.4,0.1,0.6,0.2c0.4,0.1,0.9,0.3,1.3,0.4
	s0.6,0.2,0.9,0.3l0,0l0,0c0.2,0.1,0.5,0.1,0.8,0.2c0.4,0.1,0.8,0.2,1.3,0.3l0.6,0.1l-0.1-0.1c0.6,0.1,1.3,0.2,1.9,0.3
	c1,0.1,1.9,0.1,2.9,0.1h0.9c0.4,0,0.7,0,1.1-0.1h0.6h0.3c0.6-0.1,1.2-0.1,1.9-0.2l0,0l0,0c0.6,0.6,1.1,1.2,1.7,1.7
	c0.2,0.2,0.4,0.4,0.6,0.6c0.4,0.4,0.8,0.7,1.2,1.1l0.8,0.6c0.4,0.3,0.8,0.6,1.2,0.9l0.9,0.6l1.2,0.8l0.9,0.6
	c0.4,0.2,0.8,0.5,1.2,0.7l1,0.5c0.4,0.2,0.9,0.4,1.3,0.6l0.5,0.3l0.5,0.2l1.3,0.6l0.6,0.3l0.4,0.1l1.4,0.5l1.1,0.4l1.5,0.4
	c0.3,0.1,0.5,0.2,0.8,0.2l0.2,0.1c0.5,0.1,1.1,0.3,1.6,0.4l0.9,0.2c0.7,0.1,1.3,0.3,2,0.4l0.6,0.1c0.9,0.1,1.8,0.3,2.6,0.4h0.1
	c0.3,0,0.6,0.1,0.8,0.1c0.6,0.1,1.2,0.1,1.7,0.2l1.1,0.1l1.5,0.1h1.2h1.9h0.8l1.4-0.1l1.3-0.1l1.4-0.1c0.4,0,0.9-0.1,1.3-0.1
	l1.4-0.1l1.3-0.2l1.4-0.2l1.3-0.2l1.3-0.3c0.4-0.1,0.9-0.2,1.3-0.3s0.9-0.2,1.3-0.3l1.3-0.3c0.4-0.1,0.8-0.2,1.2-0.4
	s0.9-0.2,1.3-0.4l1.4-0.5l1-0.4l1.2-0.4l1.1-0.4c0.4-0.2,0.8-0.3,1.2-0.5l1.1-0.5l1.2-0.6l1-0.5l1.1-0.6l1-0.6l1.1-0.6
	c0.3-0.2,0.6-0.4,0.9-0.6s0.7-0.5,1-0.7s0.6-0.4,0.9-0.6l1-0.7l0.3-0.2l0,0c0.4-0.3,0.8-0.6,1.2-0.9c1.2-1,2.3-2.1,3.3-3.3
	c13.7,9.4,34.1,9.1,48.3-0.7l0,0l0,0c0.8-0.5,1.5-1.1,2.3-1.7l0.3-0.2c0.6-0.5,1.2-1,1.8-1.6l0.2-0.1l0,0c5.6-5.3,9.5-12.2,11-19.8
	l1.2-0.4l0.5-0.2c0.3-0.1,0.5-0.2,0.8-0.3h0.1l0,0l1-0.4l0.2-0.1l1-0.4l0.7-0.3l1-0.4l0.6-0.3l1-0.5l0.6-0.4l1-0.6l0.6-0.4
	c0.3-0.2,0.7-0.4,1-0.6l0.6-0.4l1-0.7l0.5-0.3c1.3-0.9,2.5-1.9,3.6-3c0.1-0.1,0.3-0.2,0.4-0.4c0.3-0.3,0.5-0.5,0.8-0.8l0.6-0.6
	L296.8,188.9z"/>
<path class="st1" d="M171.8,15c11.2,2,38.5,3.9,41.1,5.7c-1.2,16.9-4,42,16,58.4c19.1,15.8,53.6,18,69.9,52.3
	c18.2,38.3-10.4,58.7-22.2,62.3c-6.3,30.2-42.9,38.5-63.8,24.1c-16,18.3-58.6,22.5-77.2,2.1c-2.5,0.4-5.1,0.4-7.6,0.2
	c-15.7-1.6-39-19-44.3-44.4c-6.8-31.9,9.9-54.1,31-68.3c18.8-12.7,45.7-22.9,51.5-48.4C169.2,45,171.5,25.8,171.8,15z"/>
<path class="st2" d="M119.3,217c-8.7-5.8-16.5-13.3-21.6-22.4c-9.1-16.2-7.5-37.4,1.2-53.5c5.4-9.7,12.1-18.6,19.9-26.5
	c3.7-3.9,7.7-7.4,11.9-10.7c4.2-3.2,8.7-6.1,12.7-9.5c7-6,12.8-13.4,16.8-21.7c-10.4,16-30.6,24.6-45.7,34.8
	c-21.1,14.2-37.8,36.4-31,68.4c4.9,23.1,24.6,39.6,39.9,43.6C122,218.7,120.6,217.9,119.3,217z"/>
<path class="st3" d="M301,131.9c-15.2-34.6-53-37-72.1-52.8c-20-16.5-17.2-41.6-16-58.4c-0.9-0.6-4.8-1.3-9.9-1.9
	c-0.9-0.1-4.1,23.6-2.2,33.2c1.8,9.3,4.8,18.7,10.4,26.5c6.5,8.8,15.3,15.4,23.3,22.8c8.3,7.6,15.8,15.9,22.5,24.9
	c6.6,8.9,12.4,18.3,16.4,28.7c3,7.8,6.2,24.8,4.2,38.3C295.6,187.8,315.9,166.1,301,131.9z"/>
<path class="st4" d="M301,131.9c-15.2-34.6-53-37-72.1-52.8c-9.8-8-14.1-18.1-15.8-28.3c0.3,4.3,1,8.5,2.1,12.6
	c2.1,7.9,6.5,14.9,12.6,20.2c4.1,3.2,8.5,5.8,13.3,7.8c4.8,2.2,9.6,4.5,14.2,7.1c5.1,2.7,10,5.8,14.7,9.1c3.9,2.7,7.7,5.6,11.3,8.7
	c6.9,6.2,12.9,13.5,16.4,22.1c1.7,4.3,2.7,8.8,3,13.4c0.2,5.6-0.6,11.3-2.5,16.6c-1.4,4.7-3.5,9.1-6.3,13.1
	c-2.5,3.3-5.4,6.2-8.8,8.7c-1,0.7-2.1,1.4-3.1,2.1C297.3,186,315.3,164.6,301,131.9z"/>
<path class="st3" d="M191.2,103.4c0.2-26.6,0.7-54.6-4.4-87.1c-5.3-0.6-4.6,0.1-9.2-0.5c-0.6,5.5-0.1,11.2-0.1,16.8
	c0,6.8-1.1,13.7-2,20.4s-1.9,13.7-4.2,20.1s-5.8,12.6-9.4,18.5c-3.8,6.2-8,12.1-12.3,17.9c-3.6,5-7.6,9.7-11.8,14.2
	c-4.3,4.6-8.8,9-12.8,13.9c-4.2,4.9-7.2,10.6-9,16.7c-1.9,6.7-2.5,13.7-1.9,20.7c0.7,6.9,2.5,13.7,5.4,20c1.5,3.3,3.3,6.3,4.9,9.6
	s2.8,6.4,4.1,9.6c0.8,2,1.5,4,2.4,6c1.6,0,3.1-0.1,4.7-0.3c18.6,20.4,61.2,16.1,77.2-2.1C192.3,184.3,191.1,117.8,191.2,103.4z"/>
<path class="st5" d="M175.9,225.7c-7.5-0.6-15.2-2.1-22-5.4c-7.3-3.5-13.1-9.4-16.6-16.7c-3.5-7.2-4.7-15.3-4.7-23.2
	c0.1-9.2,1.8-18.3,5.1-26.9c7.5-19.5,20.9-35.9,29.5-54.9c4.6-10.2,12.5-28.9,12.7-49.5c0.6-11,0.6-22.1,0.9-33.1c-1,0-2-0.1-3-0.3
	c-0.6,5.5-0.1,11.2-0.1,16.8c0,6.8-1.1,13.7-2,20.4s-1.9,13.7-4.2,20.1s-5.8,12.6-9.4,18.5c-3.8,6.2-8,12.1-12.3,17.9
	c-3.6,5-7.6,9.7-11.8,14.2c-4.3,4.6-8.8,9-12.8,13.9c-4.2,4.9-7.2,10.6-9,16.7c-1.9,6.7-2.5,13.7-1.9,20.7c0.7,6.9,2.5,13.7,5.4,20
	c1.5,3.3,3.3,6.3,4.9,9.6s2.8,6.4,4.1,9.6c0.8,2,1.5,4,2.4,6c1.6,0,3.1-0.1,4.7-0.3c17.1,18.7,54.4,16.6,72.8,2
	C197.8,225.4,186.8,226.7,175.9,225.7z"/>
<path class="st6" d="M276.5,193.8c0.9-0.3,1.8-0.6,2.6-1c3.2-15.7,3.4-29.2,2-36.3c-1.1-5.7-2.9-11.2-5.3-16.5
	c-4.5-9.5-10.6-18.1-18-25.5c-7.4-7.5-15.5-14.2-23.6-20.9c-4.2-3.5-8.3-6.9-12.4-10.5c-4.2-3.5-7.9-7.5-10.9-12
	c-9.8-15.5-9-34.3-6.4-52c-1.3-0.2-1.2-0.4-2.8-0.6c-2.6,15.2-7,40.6,8.7,60.6c10,12.7,33.3,31,41.3,40.8
	C259.5,129.2,275.7,148.4,276.5,193.8z"/>
<path class="st6" d="M180.2,16.2c-1.5-0.2-2.9-0.4-4.2-0.5c0.3,14.7-0.8,29.3-3.4,43.8c-1.1,6.7-3.4,13.3-6.6,19.3
	c-3.3,5.8-7,11.3-11.1,16.4c-4,5.1-8.4,9.9-12.9,14.7c-4.3,4.6-8.9,8.9-13.2,13.5c-7.2,7.7-13.7,16.2-17.3,26.2
	c-3.8,10.8-5,22.4-3.4,33.8c1.4,9.7,7.7,24.5,23.6,37.2c1.3,0,2.6-0.1,3.8-0.3c-16.9-19-20.3-52.2-4.1-80.4
	c5.1-9,31.9-44.8,37.7-54.4C182.3,63.3,179.8,35,180.2,16.2z"/>
<path class="st4" d="M103.4,197.6c-8.6-14.8-10.7-32.6-5.9-49c2.3-8,6.1-15.5,11-22.2c4.5-5.9,9.8-11.2,15.7-15.7
	c11.5-9,24.5-16.4,34.2-27.5c8.1-9.2,12.9-20.9,15.4-32.9c1.2-6.1,1.9-12.3,2.1-18.6c0.3-5.4,0.1-10.8-0.4-16.2l-1-0.1
	c0,3.1,0.1,6.1,0.1,9.2c0,4-0.2,7.9-0.6,11.9c-0.7,7.9-2.2,15.7-4.7,23.2c-2.4,7.3-6.2,14.2-11.1,20.2c-4.8,5.4-10.1,10.2-16,14.4
	c-11.7,8.7-24.6,16.3-33.8,27.8c-10.5,13.1-16.7,29.7-16.2,46.6c0.5,13.8,5.3,27.2,13.8,38.1c2.6,3.4,5.6,6.4,8.9,9.2
	c3.5,1.9,7.3,3.2,11.2,4c-2.6-1.5-5.1-3.2-7.5-5.1C112.5,210.2,107.3,204.3,103.4,197.6z"/>
<path class="st4" d="M264.1,161.3c-8.6-25.7-27.3-46.7-45.2-66.4c-3.1-3.4-6.2-6.8-9.1-10.3c-3.7-4.5-6.6-9.6-8.5-15
	c-4.9-13.3-5.5-28.2-4.1-42.1c0.3-3.1,0.8-6.2,1.3-9.3l-0.8-0.1c-1.9,9.5-2.7,19.2-2.2,28.9c0.6,13,3.7,26.5,11.7,37
	c6,7.9,13.1,14.9,19.6,22.4c9,10.4,17.5,21.3,24.4,33.3c7.3,12.6,12.7,26.2,14.1,40.8c0.8,8.4,0.5,16.9-0.9,25.2
	c-0.6,3.9-1.7,7.8-3.2,11.5c1.6-1.1,3.1-2.3,4.6-3.7c0.5-1.8,0.9-3.6,1.3-5.4C269.7,192.8,269,176.2,264.1,161.3z"/>
<path class="st4" d="M171.8,15c1-12,43.4-1.6,41.1,5.7C210.1,28.9,171,24.5,171.8,15z"/>
<path class="st7" d="M174.4,14.9c1.4-8.6,37.3-0.5,35.4,5.4C207.7,27,173.2,22.6,174.4,14.9z"/>
<path class="st3" d="M178.2,15.4c1.1-6.8,29.5-0.4,27.9,4.3C204.4,25,177.2,21.5,178.2,15.4z"/>
<path class="st4" d="M181.6,15.9c0.8-5.2,22.4-0.3,21.2,3.2C201.5,23.1,180.9,20.5,181.6,15.9z"/>
<path class="st2" d="M185.3,16.4c0.5-3.4,14.5-0.2,13.7,2.1C198.2,21.1,184.9,19.4,185.3,16.4z"/>
<path class="st1" d="M142,189.4c3.2,11.7,16.1,24.8,28,25.7c25,2,21.2-22.9,18.9-36.3c-3.1-18.4-6.8-35.3-5.6-54.1
	c0.6-9.4,3-42.2-1.4-42.3c-4.1-0.2-11.4,26.7-21.5,44.4C149.6,145.6,135.9,167,142,189.4z"/>
<path class="st4" d="M222.2,200.6c-20.6-8.6-19.4-46-23.4-64.7c-2.3-11-3.1-23.5-3.3-34.9c-0.2-14.2,8.3-6.2,13.6-0.9
	c16.5,16.3,31.1,31.5,38.4,53.7C254,173.3,253.2,213.5,222.2,200.6z"/>
<path class="st8" d="M207.5,110.1c8.8-5,21,17.8,12.8,21.1C210.3,135.3,200.6,114.1,207.5,110.1z"/>
<path class="st8" d="M222.6,135.3c5.8-1.6,11.9,10.7,4.9,11.7S216.8,136.9,222.6,135.3z"/>
<path class="st0" d="M429,175.1c0.1-0.8,0.2-1.7,0.2-2.5c0-0.2,0-0.4,0-0.6c0-0.6,0-1.1,0-1.7s0.1-1.2,0.1-1.9c0-0.3,0-0.6,0-0.9
	c0-0.6,0-1.1,0-1.7s0-1,0-1.4s-0.1-0.8-0.1-1.2c0-0.6-0.1-1.1-0.1-1.6c0-0.4,0-0.7-0.1-1.1c0-0.5-0.1-1-0.2-1.5l-0.2-1.5
	c0-0.2-0.1-0.5-0.1-0.8c-0.1-0.5-0.2-1-0.3-1.6l-0.1-0.3c-0.1-0.4-0.1-0.9-0.2-1.3l-0.1-0.5c-0.1-0.5-0.2-1-0.3-1.5
	s-0.2-0.9-0.3-1.4c0-0.1-0.1-0.3-0.1-0.4l-0.1-0.2c-0.1-0.5-0.3-1-0.4-1.5c-0.2-0.7-0.4-1.3-0.5-2c0-0.1,0-0.1,0-0.2l0,0
	c-0.1-0.4-0.3-0.8-0.4-1.3c-0.2-0.6-0.4-1.3-0.6-1.9c-0.2-0.5-0.3-0.9-0.5-1.4c-0.2-0.6-0.5-1.2-0.7-1.9c-0.2-0.4-0.4-0.9-0.6-1.3
	c-0.2-0.6-0.5-1.2-0.8-1.8s-0.4-0.9-0.6-1.3c-0.3-0.6-0.5-1.1-0.8-1.7s-0.4-0.8-0.6-1.2s-0.6-1.1-0.9-1.6s-0.5-0.8-0.7-1.2
	s-0.6-1-0.9-1.5s-0.5-0.8-0.7-1.2s-0.6-1-0.9-1.4l-0.8-1.1c-0.3-0.5-0.6-0.9-1-1.4s-0.5-0.7-0.8-1.1s-0.6-0.9-1-1.3s-0.5-0.7-0.8-1
	l-1-1.2l-0.8-1l-1-1.1l-0.8-0.9c-0.3-0.3-0.6-0.7-0.9-1l-0.9-0.9l-0.9-0.9l-0.9-0.8l-0.9-0.8l-0.9-0.8c-0.3-0.2-0.5-0.5-0.8-0.7
	l-0.9-0.7l-0.8-0.6l-0.9-0.7l-0.7-0.6l-0.9-0.6l-0.6-0.5l-0.8-0.6l-0.6-0.4l-0.8-0.5l-0.5-0.3l-0.8-0.4c-0.1-0.1-0.3-0.2-0.5-0.2
	l-0.7-0.3l-0.4-0.2l-0.2-0.1l-0.8-0.5l0.1,0.2l-0.2-0.1c-0.1,0.2-0.3,0.3-0.4,0.5c-3.2-7.5-8.9-14.1-16.7-17.3
	c0.8,1.4,1.5,2.8,2.2,4.2c0.1,0.2,0.1,0.3,0.2,0.5l0.4,1l0.2,0.6c0.1,0.3,0.2,0.6,0.4,0.9c0,0.1,0.1,0.3,0.2,0.4
	c-1.1-0.6-2.3-1.1-3.5-1.4c3.3,4.4,5.2,9.7,5.3,15.2l-0.9-0.2c0,1.3-0.1,2.5-0.4,3.8c-0.1,0.6-0.2,1.3-0.4,2.1v0.2
	c-0.2,0.7-0.3,1.5-0.5,2.3c0,0.1,0,0.2-0.1,0.4c-0.2,0.8-0.4,1.7-0.7,2.6l-0.1,0.4c-0.2,0.9-0.5,1.9-0.8,2.9c-0.4,1.5,0,0.1,0,0.1
	c-0.3,1-0.6,2.1-0.9,3.1c0,0.1-0.1,0.2-0.1,0.3c-0.3,1.1-0.7,2.2-1,3.3c-0.1,0.2-0.1,0.4-0.2,0.6c-0.4,1.1-0.8,2.3-1.1,3.5l-0.2,0.6
	c-0.4,1.2-0.9,2.5-1.3,3.8v0.1c-0.5,1.3-0.9,2.6-1.4,3.9c-0.1,0.2-0.1,0.4-0.2,0.5c-0.5,1.3-1,2.6-1.5,3.9c-0.1,0.2-0.2,0.5-0.3,0.7
	c-0.5,1.3-1,2.7-1.6,4l-0.3,0.6c-0.6,1.4-1.1,2.9-1.8,4.3c0,0,0,0.1,0,0.1c-0.6,1.4-1.2,2.9-1.8,4.3l-0.3,0.6
	c-0.6,1.4-1.2,2.8-1.9,4.2l-0.4,0.8c-0.7,1.4-1.3,2.8-2,4.2c-0.1,0.2-0.2,0.4-0.3,0.7c-0.7,1.5-1.4,3-2.2,4.5
	c-0.8,1.5-1.5,3-2.3,4.4l-0.4,0.7c-0.7,1.3-1.4,2.6-2.2,3.9l-0.4,0.7c-0.7,1.3-1.5,2.5-2.2,3.7l-0.2,0.3c-0.7,1.1-1.4,2.2-2.1,3.3
	l-0.3,0.5c-0.7,1.1-1.5,2.1-2.2,3.1l-0.4,0.6c-0.7,1-1.4,1.9-2.1,2.8l-0.3,0.4c-0.7,0.9-1.4,1.7-2.1,2.5l-0.2,0.3
	c-0.7,0.8-1.4,1.6-2.1,2.4l-0.4,0.4c-0.7,0.7-1.4,1.4-2,2.1l-0.4,0.4c-0.7,0.7-1.4,1.4-2,2l0,0c-0.7,0.7-1.3,1.3-2,1.8l-0.3,0.3
	c-0.6,0.6-1.2,1.1-1.9,1.6l-0.4,0.3c-0.6,0.5-1.2,1-1.8,1.5l-0.1,0.1l-1.7,1.3l-0.2,0.2l-1.6,1.2l-0.3,0.2l-1.6,1.1
	c-1.6,1.1-3,2.1-4.2,2.9c-1.6,3.1-1.1,7.6,0.6,11.5l0,0v0.1c0.1,0.3,0.3,0.6,0.5,0.9s0.2,0.4,0.3,0.6s0.3,0.4,0.4,0.6l0,0
	c0.1,0.1,0.2,0.3,0.3,0.4l0.2,0.3c0,0.1,0.1,0.1,0.1,0.2c0.2,0.3,0.4,0.5,0.6,0.8c0.1,0.1,0.1,0.2,0.2,0.3l0.1,0.1
	c0.3,0.4,0.6,0.7,0.9,1l0.1,0.1l0.3,0.2c0.2,0.2,0.5,0.4,0.7,0.6c0,0,0.1,0.1,0.1,0.1l0.3,0.2l0.3,0.2l0,0l0,0
	c0.1,0.1,0.3,0.2,0.4,0.3c0.1,0.1,0.2,0.1,0.2,0.2l0.2,0.1l0.6,0.3l0.3,0.1l0.2,0.1h0.1c0.4,0.2,0.8,0.3,1.3,0.4l0.4,0.1h0.1
	c8.2,2.8,16.7,4.7,25.4,5.7l0,0l0.7,0.1l1.4,0.1l0.8,0.1l1.5,0.1h0.4c1,0.1,2.1,0.1,3.1,0.1h1.1h2.4h1.2h1.2l1.2-0.1l1.3-0.1
	l1.2-0.1l1.3-0.1l1.1-0.1l1.3-0.2l1.1-0.2l1.3-0.2l1.1-0.2c0.5-0.1,0.9-0.2,1.3-0.3l1.1-0.3l1.4-0.4l1-0.3l1.4-0.5l1-0.3
	c0.5-0.2,1-0.4,1.6-0.6l0.8-0.3c0.8-0.3,1.6-0.7,2.3-1.1c1.3-0.6,2.6-1.3,4-2.1c4.8-2.6,9.3-5.7,13.4-9.4l1.5-1.4c1-1,2-2,3-3.1
	c4.5-4.9,8.3-10.4,11.2-16.4c0.8-1.7,1.6-3.4,2.4-5.3c2.9-7.3,5-14.9,6.2-22.7c0.2-1.5,0.4-2.9,0.6-4.4c0-0.1,0-0.2,0-0.3
	C428.9,176.1,429,175.6,429,175.1z"/>
<path class="st9" d="M380.5,102.4c0.9-4.3-1-11.8-5.2-17.3c7,2,12.1,7.3,15.4,13.4C391,105.1,381.6,102.6,380.5,102.4z"/>
<path class="st10" d="M382.4,101.5c0.1-4.5-2.9-15.5-7.1-22.5c8,3.3,13.7,10.2,16.9,17.9C391.8,104.6,383.7,101.9,382.4,101.5z"/>
<path class="st11" d="M383.2,92.9c-1.3-3.5-3.1-6.7-5.4-9.7c-0.4-0.5-0.7-0.9-1.1-1.4c3.4,6.9,5.7,15.7,5.6,19.7
	c0.3,0.1,1,0.3,1.8,0.5C385.2,99.1,384.3,95.7,383.2,92.9z"/>
<path class="st1" d="M315.3,214.6c8.1-5.7,25-15.3,40.6-47c14.8-29.9,24-60.7,23.9-67.5c4.7,1,8.7,1.2,12.6-4.3
	c9,2.8,44.3,31.6,36.6,79.1c-6.5,40.1-28.3,53.6-41.7,60.3c-25.4,12.6-58.9,0.3-62.5-0.8C317.2,232.8,312.1,220.9,315.3,214.6z"/>
<path class="st4" d="M320.3,214.8c1.1,1.1,2.6,1.7,4.1,1.6c4.5,0.2,9.2-1.4,13.4-3c4.1-1.5,8.1-3.3,12-5.4c2.1-1.1,4.1-2.5,6.1-3.8
	c3.5-2.2,7-4.4,10.3-6.8c6.7-4.8,13.1-10.3,17.2-17.6c2.6-4.5,6.6-15.1,6.9-20.2c0.7-13-0.1-33.6-3.9-43.8c-1.7-4.5-2.9-9.4-7-11.9
	c-1.9,10.9-10.6,37.6-23.5,63.7c-13.3,26.9-27.5,37.8-36.4,44C319.3,212.7,319.6,213.9,320.3,214.8z"/>
<path class="st4" d="M394.4,105.8c6,32.1,9.6,54.6-1.6,81.2c-6.7,16-14.6,20.3-31.9,26.7c-14.4,5.3-31.1,5.9-45,12.4
	c1.8,4,5,7.5,8.7,8.3c3.6,1.1,37.2,13.4,62.5,0.8c13.5-6.7,35.2-20.1,41.7-60.3c7.6-47-26.9-75.7-36.3-79
	C393.3,99.2,393.8,102.5,394.4,105.8z"/>
<path class="st5" d="M390.1,98.3c1.5,3.1,3,6.3,4.3,9.5c3.6,8.6,6.1,17.7,7.4,27c1.3,9,1.5,18.1,0.7,27.1
	c-0.8,9.1-2.7,18.2-6.6,26.5c-1.8,3.9-4.1,7.5-6.9,10.7c-2.7,3.1-5.9,5.9-9.3,8.4c-6.6,4.6-13.9,8-21.5,10.3
	c-13.5,4.3-27.7,6.1-41.2,10.4c1.9,3.1,4.5,5.5,7.6,6.2c3.6,1.1,37.2,13.4,62.5,0.8c13.5-6.7,35.2-20.1,41.7-60.3
	c7.7-47.5-27.6-76.3-36.6-79.1C391.7,96.8,390.9,97.6,390.1,98.3z"/>
<path class="st6" d="M427.5,144.8c2.1,17.8-1,35.8-8.7,51.9c-4.2,8.6-9.7,16.4-16.4,23.1c-6,6.2-13.2,11.2-21.2,14.5
	c-9.8,3.9-20.2,5.5-30.7,6c11.5,1.2,24.9,0.8,36.6-5.1c13.5-6.7,35.2-20.1,41.7-60.3c2-11.8,1.3-24-2.2-35.5
	C427,141.2,427.3,143,427.5,144.8z"/>
<path class="st6" d="M327.3,235.3c9.7-0.8,19.2-2.5,28.6-5.1c10.1-2.7,20.3-6.2,29.3-11.7c9.6-5.9,17.2-15.7,22.7-25.6
	c5.2-9.4,7.7-20,8.2-30.7c0.6-11.5-0.8-21.3-3.9-32.3c-4.3-15.3-13-27.6-16-31.9c-1.3-0.9-2.7-1.7-3.8-2.3
	c8.8,12.8,17,30.2,20.2,48.3c1.7,9.8,0.6,20-1.6,29.7c-2.2,9.4-5.5,19-11.4,26.7c-6.2,8.1-14.5,15.3-27.2,21.1
	c-16.8,7.6-33.9,10.3-38.8,11.2c-3.5,0.7-8.5,1.2-12.3,0.2c1,0.7,2.2,1.2,3.4,1.5C325.1,234.6,326,234.9,327.3,235.3z"/>
<path class="st0" d="M336.3,320.6c-1.5,1-3,2-4.5,2.9l-0.6,0.3l-1,0.6l-0.7,0.3l-1,0.5l-0.4,0.2c0.5-1.3,1-2.7,1.3-4.1
	c-5,4.4-11.7,7.1-16.6,7.5c0-0.3,0.1-0.7,0.1-1c-1.8,0.1-3.5,0-5.3-0.2l-0.7-0.1l-0.9-0.1l-0.7-0.1l-0.9-0.1l-0.8-0.1l-0.9-0.1
	l-0.8-0.1l-1-0.2l-0.9-0.1l-1.1-0.2l-0.9-0.2l-1.2-0.2l-0.8-0.1l-2.1-0.4l-0.7-0.1l-1.5-0.3l-0.9-0.2l-1.4-0.3l-1-0.2l-1.4-0.3
	l-1-0.2l-1.5-0.4l-1-0.2l-1.6-0.4l-1-0.2l-2-0.5l-0.6-0.2l-2.7-0.7l-0.8-0.2L273,320l-1.1-0.3l-1.8-0.5l-1.1-0.3l-1.7-0.5l-1.1-0.4
	l-1.8-0.5l-1.1-0.4l-1.9-0.6l-1-0.3l-2.5-0.8l-0.4-0.1l-3-1l-0.9-0.3l-2.1-0.7l-1.2-0.4l-1.9-0.7l-1.2-0.4l-1.9-0.7l-1.2-0.5
	l-1.9-0.7l-1.2-0.4l-2.1-0.8l-1.1-0.4l-3.1-1.2c-1.8-0.7-3.5-1.4-5.2-2.1l-0.9-0.4c-1.6-0.7-3.1-1.4-4.6-2.1l-0.9-0.4
	c-1.5-0.7-2.9-1.4-4.4-2.2l-0.4-0.2c-1.3-0.7-2.6-1.4-3.9-2.1l-0.6-0.3c-1.3-0.7-2.5-1.4-3.7-2.2l-0.7-0.4c-1.2-0.7-2.3-1.4-3.4-2.2
	l-0.4-0.3c-1.1-0.7-2.1-1.4-3-2.1l-0.3-0.2c-1-0.7-2-1.4-2.9-2.2l-0.5-0.4c-0.9-0.7-1.8-1.4-2.6-2.1l-0.4-0.4
	c-0.8-0.7-1.6-1.4-2.4-2.1h-0.1c-0.8-0.7-1.5-1.4-2.2-2.1l-0.4-0.4c-0.7-0.7-1.3-1.3-2-2l-0.3-0.4c-0.6-0.6-1.2-1.3-1.8-1.9
	l-0.1-0.1c-0.6-0.6-1.1-1.2-1.6-1.8l-0.2-0.2l-1.5-1.7l-0.2-0.3c-0.5-0.6-0.9-1.1-1.4-1.6c-1.4-1.7-2.6-3.2-3.7-4.5
	c-3.7-1.5-8.7-0.6-12.9,1.8l0,0h-0.1c-0.3,0.2-0.7,0.4-1,0.6l-0.6,0.4c-0.2,0.2-0.5,0.3-0.7,0.5l0,0l-0.5,0.4l-0.3,0.3l-0.2,0.2
	c-0.3,0.2-0.6,0.5-0.9,0.8l-0.3,0.3l-0.1,0.1c-0.4,0.4-0.7,0.8-1.1,1.2l-0.1,0.1c-0.1,0.1-0.2,0.2-0.2,0.3c-0.2,0.3-0.4,0.6-0.7,0.9
	c0,0.1-0.1,0.1-0.1,0.2s-0.1,0.2-0.2,0.3s-0.1,0.2-0.2,0.3l0,0v0l-0.2,0.4c0,0-0.1,0.1-0.1,0.1L157,275c0,0,0,0.1,0,0.1
	c0,0.1-0.1,0.2-0.1,0.3s-0.1,0.3-0.2,0.5l-0.2,0.6c0,0.1,0,0.1-0.1,0.2c0,0,0,0.1,0,0.1l-0.1,0.3c-0.1,0.4-0.2,0.8-0.2,1.2
	c-0.1,0.4-0.2,1.1-0.5,2v0c-0.1,0.3-0.1,0.6-0.2,0.9c0,0.1,0,0.1,0,0.2l0,0c-2,8.8-3.2,17.7-3.5,26.7l0,0c0,0.3,0,0.5,0,0.8
	c0,0.5,0,1,0,1.5c0,0.3,0,0.7,0,1c0,0.5,0,1,0,1.6c0,0.2,0,0.5,0,0.8c0,1,0.1,2.1,0.1,3.1c0,0.4,0,0.9,0.1,1.3l0.1,1.3
	c0,0.5,0.1,0.9,0.1,1.4s0.1,0.9,0.1,1.3s0.1,1,0.2,1.4s0.1,0.9,0.2,1.3s0.1,1,0.2,1.5s0.1,0.9,0.2,1.3s0.2,1,0.3,1.5
	s0.2,0.9,0.3,1.3s0.2,1,0.3,1.5s0.2,0.8,0.3,1.3s0.3,1,0.4,1.5l0.4,1.2c0.2,0.5,0.3,1,0.5,1.5s0.3,0.8,0.4,1.2s0.4,1,0.6,1.5
	s0.3,0.8,0.4,1.1c0.2,0.5,0.4,1,0.7,1.6c0.1,0.4,0.3,0.7,0.5,1c0.3,0.6,0.6,1.1,0.9,1.7l0.4,0.9c0.4,0.8,0.9,1.7,1.4,2.5
	c0.8,1.4,1.7,2.8,2.7,4.3c1.8,2.7,3.7,5.3,5.8,7.8c0.9,1.1,1.8,2.1,2.9,3.2c7.1,7.6,15.7,13.7,25.2,17.9c0.9,0.4,1.9,0.8,2.9,1.2
	c2,0.8,4,1.5,6.2,2.2c3.4,1.1,6.8,1.9,10.3,2.6c2.4,0.5,5,0.9,7.6,1.3s5.4,0.7,8.3,0.9c1.7,0.1,3.4,0.2,5,0.3h2c0.9,0,1.9,0,2.8,0
	h0.7c0.6,0,1.3-0.1,1.9-0.1s1.4-0.1,2.1-0.1l1-0.1c0.6,0,1.3-0.1,1.9-0.2s1.1-0.1,1.6-0.2s0.9-0.1,1.4-0.2l1.8-0.3l1.2-0.2l1.7-0.4
	c0.6-0.1,1.2-0.2,1.7-0.4l0.9-0.2c0.6-0.1,1.2-0.3,1.7-0.5l0.4-0.1l1.4-0.4l0.5-0.1c0.6-0.2,1.1-0.4,1.7-0.5l1.5-0.5l0.5-0.2
	l0.3-0.1c0.6-0.2,1.1-0.4,1.6-0.6c0.7-0.3,1.5-0.5,2.2-0.8l0.2-0.1l0,0c0.5-0.2,0.9-0.4,1.4-0.6c0.7-0.3,1.4-0.6,2.1-0.9l1.5-0.7
	c0.7-0.3,1.3-0.6,2-1c0.5-0.2,1-0.5,1.4-0.8c0.6-0.3,1.3-0.7,1.9-1c0.5-0.3,0.9-0.5,1.4-0.8c0.6-0.4,1.2-0.7,1.8-1.1l1.3-0.9
	c0.6-0.4,1.2-0.7,1.7-1.1l1.3-0.9c0.5-0.4,1.1-0.8,1.6-1.1s0.8-0.6,1.2-0.9s1-0.8,1.6-1.2l1.2-1c0.5-0.4,1-0.8,1.4-1.2l1.1-1
	l1.3-1.2l1.1-1l1.2-1.2l1-1c0.4-0.4,0.8-0.8,1.1-1.2l1-1l1-1.1l0.9-1.1l0.9-1.1c0.3-0.4,0.6-0.7,0.9-1s0.6-0.7,0.9-1l0.8-1.1
	c0.2-0.3,0.5-0.7,0.7-1s0.5-0.7,0.8-1.1l0.6-0.9l0.7-1c0.2-0.3,0.4-0.6,0.5-0.8s0.4-0.7,0.6-1l0.5-0.8c0.2-0.3,0.4-0.7,0.6-1
	s0.3-0.5,0.4-0.7s0.3-0.6,0.5-1l0.3-0.6c0.1-0.3,0.3-0.6,0.4-0.9s0.2-0.4,0.2-0.5s0.2-0.5,0.3-0.8l0.2-0.5c0-0.1,0.1-0.2,0.1-0.3
	l0.5-1c-0.1,0.1-0.2,0.1-0.2,0.2l0.1-0.2c-0.2-0.1-0.4-0.3-0.6-0.4C326.4,336.8,333.4,329.8,336.3,320.6z"/>
<path class="st9" d="M311.7,319.4c5,0.5,13.2-2.3,19-7.5c-1.6,8-7.1,14.3-13.7,18.6C309.7,331.6,311.5,320.7,311.7,319.4z"/>
<path class="st10" d="M312.8,321.5c5.2-0.3,17.2-4.7,24.8-10.2c-3,9.3-10.2,16.5-18.6,20.8C310.2,332.4,312.5,323,312.8,321.5z"/>
<path class="st11" d="M322.6,321.6c3.8-1.8,7.3-4.2,10.4-7l1.5-1.4c-7.4,4.5-17.2,7.9-21.7,8.2c-0.2,0.7-0.3,1.4-0.4,2.1
	C315.8,324.4,319.6,323.1,322.6,321.6z"/>
<path class="st1" d="M178.9,256.4c7.2,8.6,19.7,26.8,56.9,41.4c35.1,13.9,70.8,21.4,78.4,20.6c-0.7,5.4-0.5,9.9,6,13.8
	c-2.4,10.4-31.5,53-85.9,48.7c-45.9-3.6-63.1-26.9-72-41.4c-16.6-27.4-5.9-66.5-5-70.7C158.5,260.2,171.5,253.3,178.9,256.4z"/>
<path class="st4" d="M179.1,262c-1.1,1.3-1.7,3.1-1.4,4.8c0.2,5.1,2.5,10.2,4.7,14.8c2.1,4.5,4.5,8.8,7.2,13
	c1.5,2.3,3.2,4.4,4.9,6.5c2.8,3.7,5.6,7.4,8.6,11c6,7.2,12.9,13.8,21.4,17.8c5.3,2.5,17.6,6,23.5,5.9c14.7-0.4,38-3.3,49.1-8.5
	c4.9-2.3,10.4-4.1,12.8-9c-12.5-1.1-43.5-8.4-74.1-20.5c-31.6-12.5-45.3-27.4-53.1-36.9C181.3,260.8,180.1,261.2,179.1,262z"/>
<path class="st4" d="M309.2,335.4c-35.7,9.8-60.8,16-91.9,5.8c-18.7-6.1-24.3-14.6-33.1-33.5c-7.3-15.8-9.6-34.5-18.2-49.6
	c-4.4,2.4-8,6.3-8.6,10.7c-0.9,4.2-11.6,43.2,5,70.7c8.8,14.6,26,37.9,72,41.4c53.8,4.2,82.9-37.5,85.8-48.4
	C316.5,333.6,312.8,334.4,309.2,335.4z"/>
<path class="st5" d="M317.1,329.9c-3.4,2-6.8,3.9-10.3,5.7c-9.4,4.9-19.4,8.6-29.7,10.9c-10,2.3-20.3,3.4-30.6,3.3
	c-10.3-0.1-20.8-1.4-30.5-5c-4.5-1.7-8.9-3.9-12.8-6.7c-3.8-2.8-7.3-6.1-10.3-9.7c-5.8-7-10.4-14.9-13.7-23.3
	c-6.1-14.9-9.5-30.7-15.6-45.5c-3.3,2.4-5.8,5.6-6.2,9.2c-0.9,4.2-11.6,43.2,5,70.7c8.8,14.6,26,37.9,72,41.4
	c54.3,4.2,83.5-38.3,85.9-48.7C319.1,331.5,318.1,330.8,317.1,329.9z"/>
<path class="st6" d="M268.3,376.5c-19.9,4-40.5,2.3-59.4-5c-10.1-3.9-19.4-9.4-27.7-16.3c-7.6-6.2-13.9-13.8-18.4-22.5
	c-5.4-10.7-8.1-22.3-9.7-34.1c-0.3,13,1.5,28.2,9.2,40.9c8.8,14.6,26,37.9,72,41.4c13.6,1.2,27.2-0.8,39.9-5.8
	C272.3,375.6,270.3,376.1,268.3,376.5z"/>
<path class="st6" d="M156.7,271.9c1.8,10.8,4.6,21.5,8.4,31.8c4,11.2,8.9,22.3,16,32c7.5,10.3,19.3,18,31,23.2
	c11.1,5,23.3,6.8,35.5,6.4c13-0.4,24-2.9,36.1-7.5c16.9-6.3,29.9-17.3,34.5-21c0.9-1.6,1.6-3.2,2.2-4.5
	c-13.6,11.1-32.4,22.1-52.6,27.3c-10.9,2.8-22.5,2.6-33.7,1c-10.9-1.6-22-4.4-31.2-10.3c-9.7-6.2-18.7-15-26.3-28.7
	c-10.2-18.3-14.8-37.3-16.3-42.8c-1.1-3.9-2.2-9.4-1.4-13.9c-0.7,1.2-1.2,2.6-1.4,4C157.2,269.3,157,270.4,156.7,271.9z"/>
</svg>
