<?xml version="1.0" encoding="utf-8"?>
<!-- Generator: Adobe Illustrator 25.0.0, SVG Export Plug-In . SVG Version: 6.00 Build 0)  -->
<svg version="1.1" id="Layer_1" xmlns="http://www.w3.org/2000/svg" xmlns:xlink="http://www.w3.org/1999/xlink" x="0px" y="0px"
	 viewBox="0 0 512 400" style="enable-background:new 0 0 512 400;" xml:space="preserve">
<style type="text/css">
	.st0{opacity:0.3;enable-background:new    ;}
	.st1{fill:#EFE0E3;}
	.st2{fill:#E0CED3;}
	.st3{fill:#D1C1C6;}
	.st4{fill:#FFF3F6;}
	.st5{fill:#BAAEB2;}
	.st6{fill:#87727A;}
	.st7{fill:#5B4C52;}
	.st8{opacity:0.5;}
	.st9{fill:#F4B4B2;stroke:#CE9191;stroke-width:0.75;stroke-miterlimit:10;}
	.st10{opacity:0.3;}
	.st11{fill:#FFFFFF;}
	.st12{opacity:0.8;}
	.st13{fill:#F9D5D5;stroke:#D39C9C;stroke-width:0.75;stroke-miterlimit:10;}
	.st14{fill:#D89C9C;}
	.st15{fill:#DFC5C8;}
	.st16{opacity:0.6;}
	.st17{clip-path:url(#SVGID_2_);}
	.st18{fill:#FC826B;}
	.st19{fill:#FC836C;}
	.st20{fill:#FC846C;}
	.st21{fill:#FC856D;}
	.st22{fill:#FC866D;}
	.st23{fill:#FC876E;}
	.st24{fill:#FC886E;}
	.st25{fill:#FC896F;}
	.st26{fill:#FD8A6F;}
	.st27{fill:#FD8B70;}
	.st28{fill:#FD8C70;}
	.st29{fill:#FD8D71;}
	.st30{fill:#FD8E71;}
	.st31{fill:#FD8F72;}
	.st32{fill:#FD9072;}
	.st33{fill:#FD9173;}
	.st34{fill:#FD9273;}
	.st35{fill:#FD9374;}
	.st36{fill:#FD9474;}
	.st37{fill:#FD9575;}
	.st38{fill:#FD9675;}
	.st39{fill:#FD9776;}
	.st40{fill:#FD9876;}
	.st41{fill:#FE9A77;}
	.st42{fill:#FE9B78;}
	.st43{fill:#FE9C78;}
	.st44{fill:#FE9D79;}
	.st45{fill:#FE9E79;}
	.st46{fill:#FE9F7A;}
	.st47{fill:#FEA07A;}
	.st48{fill:#FEA17B;}
	.st49{fill:#FEA27B;}
	.st50{fill:#FEA37C;}
	.st51{fill:#FEA47C;}
	.st52{fill:#FEA57D;}
	.st53{fill:#FEA67D;}
	.st54{fill:#FEA77E;}
	.st55{fill:#FEA87E;}
	.st56{fill:#FEA97F;}
	.st57{fill:#FFAA7F;}
	.st58{fill:#FFAB80;}
	.st59{fill:#FFAC80;}
	.st60{fill:#FFAD81;}
	.st61{fill:#FFAE81;}
	.st62{fill:#FFAF82;}
	.st63{fill:#FFB082;}
	.st64{fill:#FFB183;}
	.st65{fill:#DBA2A2;}
	.st66{fill:#F7DADA;}
	.st67{fill:#F4A966;}
	.st68{fill:#A50202;}
</style>
<ellipse class="st0" cx="256" cy="332.8" rx="120" ry="14"/>
<rect x="235" y="95.5" class="st1" width="45.3" height="37.6"/>
<rect x="242.7" y="63.2" class="st1" width="29.9" height="32.3"/>
<rect x="260.3" y="63.2" class="st2" width="7.3" height="32.3"/>
<rect x="258.8" y="95.5" class="st2" width="9.8" height="37.6"/>
<rect x="270.9" y="63.2" class="st3" width="1.8" height="32.3"/>
<rect x="271.7" y="95.5" class="st3" width="8.6" height="37.6"/>
<rect x="245.9" y="63.2" class="st4" width="7" height="32.3"/>
<rect x="254.7" y="63.2" class="st4" width="1.4" height="32.3"/>
<rect x="238.2" y="95.5" class="st4" width="10.9" height="37.6"/>
<rect x="251.4" y="95.5" class="st4" width="2.3" height="37.6"/>
<polygon class="st5" points="242.7,95.5 272.6,95.5 272.6,94.4 244,94.4 242.7,84.7 "/>
<circle class="st6" cx="263.9" cy="78.2" r="5.2"/>
<path class="st7" d="M266.4,78.2c0,1.1-0.9,1.9-1.9,1.9c-1.1,0-1.9-0.9-1.9-1.9c0-1.1,0.9-1.9,1.9-1.9c0,0,0,0,0,0
	C265.5,76.3,266.4,77.2,266.4,78.2C266.4,78.2,266.4,78.2,266.4,78.2z"/>
<g class="st8">
	<rect x="213.2" y="53.2" class="st9" width="88.9" height="79.9"/>
</g>
<g class="st10">
	<rect x="223.3" y="53.2" class="st11" width="25.5" height="79.9"/>
</g>
<g class="st12">
	<path class="st13" d="M173.5,133h168.3c9.1,0,16.5,7.4,16.5,16.5v168.3c0,9.1-7.4,16.5-16.5,16.5H173.5c-9.1,0-16.5-7.4-16.5-16.5
		V149.5C157.1,140.4,164.4,133,173.5,133z"/>
</g>
<path class="st14" d="M324.7,319.2c0,2.4-30,4.4-67.1,4.4s-67-2-67-4.4s30-4.4,67-4.4S324.7,316.8,324.7,319.2z"/>
<path class="st15" d="M258.6,133.7c0,0-7.9,105.1,11,162.8l-5.1,2.5c0,0-20.6-62.2-11.4-166.8L258.6,133.7z"/>
<g class="st16">
	<g>
		<defs>
			<path id="SVGID_1_" d="M257.7,299.1h27.8c10.5,0,19.7-7.2,22.2-17.5l26-107.9c1.6-6.5-2.5-13.1-9-14.7c-0.9-0.2-1.9-0.3-2.8-0.3
				h-15.4c-7.9,0-14.9-5.1-17.4-12.5l-4.5-13.2h-53.8l-4.3,12.9c-2.6,7.6-9.7,12.8-17.8,12.8h-16.2c-6.2,0-11.3,5-11.3,11.3
				c0,0.9,0.1,1.8,0.3,2.7l26.4,109.2c2.4,10.1,11.5,17.2,21.9,17.2H257.7z"/>
		</defs>
		<clipPath id="SVGID_2_">
			<use xlink:href="#SVGID_1_"  style="overflow:visible;"/>
		</clipPath>
		<g class="st17">
			<polygon class="st18" points="190.9,299.1 188,276.8 335.5,257.3 335.5,299.1 			"/>
			<polygon class="st18" points="188,276.8 187.7,274.4 335.5,254.9 335.5,257.3 			"/>
			<polygon class="st19" points="187.7,274.4 187.4,272.1 335.5,252.6 335.5,254.9 			"/>
			<polygon class="st20" points="187.4,272.1 187.1,269.7 335.5,250.2 335.5,252.6 			"/>
			<polygon class="st21" points="187.1,269.7 186.8,267.4 335.5,247.8 335.5,250.2 			"/>
			<polygon class="st22" points="186.8,267.4 186.5,265.1 335.5,245.4 335.5,247.8 			"/>
			<polygon class="st23" points="186.5,265.1 186.1,262.7 335.5,243.1 335.5,245.4 			"/>
			<polygon class="st24" points="186.1,262.7 185.8,260.4 335.5,240.7 335.5,243.1 			"/>
			<polygon class="st25" points="185.8,260.4 185.5,258 335.5,238.3 335.5,240.7 			"/>
			<polygon class="st26" points="185.5,258 185.2,255.7 335.5,235.9 335.5,238.3 			"/>
			<polygon class="st27" points="185.2,255.7 184.9,253.4 335.5,233.5 335.5,235.9 			"/>
			<polygon class="st28" points="184.9,253.4 184.6,251 335.5,231.2 335.5,233.5 			"/>
			<polygon class="st29" points="184.6,251 184.3,248.7 335.5,228.8 335.5,231.2 			"/>
			<polygon class="st30" points="184.3,248.7 184,246.4 335.5,226.4 335.5,228.8 			"/>
			<polygon class="st31" points="184,246.4 183.7,244 335.5,224 335.5,226.4 			"/>
			<polygon class="st32" points="183.7,244 183.4,241.7 335.5,221.6 335.5,224 			"/>
			<polygon class="st33" points="183.4,241.7 183.1,239.4 335.5,219.3 335.5,221.6 			"/>
			<polygon class="st34" points="183.1,239.4 182.8,237 335.5,216.9 335.5,219.3 			"/>
			<polygon class="st35" points="182.8,237 182.5,234.7 335.5,214.5 335.5,216.9 			"/>
			<polygon class="st36" points="182.5,234.7 182.1,232.3 335.5,212.1 335.5,214.5 			"/>
			<polygon class="st37" points="182.1,232.3 181.8,230 335.5,209.8 335.5,212.1 			"/>
			<polygon class="st38" points="181.8,230 181.5,227.7 335.5,207.4 335.5,209.8 			"/>
			<polygon class="st39" points="181.5,227.7 181.2,225.3 335.5,205 335.5,207.4 			"/>
			<polygon class="st40" points="181.2,225.3 180.9,223 335.5,202.6 335.5,205 			"/>
			<polygon class="st41" points="180.9,223 180.6,220.6 335.5,200.2 335.5,202.6 			"/>
			<polygon class="st42" points="180.6,220.6 180.3,218.3 335.5,197.9 335.5,200.2 			"/>
			<polygon class="st43" points="180.3,218.3 180,216 335.5,195.5 335.5,197.9 			"/>
			<polygon class="st44" points="180,216 179.8,214.2 179.8,213.6 335.5,193.1 335.5,195.5 			"/>
			<polygon class="st45" points="179.8,211.2 335.5,190.7 335.5,193.1 179.8,213.6 			"/>
			<polygon class="st46" points="179.8,208.9 335.5,188.4 335.5,190.7 179.8,211.2 			"/>
			<polygon class="st47" points="179.8,206.5 335.5,186 335.5,188.4 179.8,208.9 			"/>
			<polygon class="st48" points="179.8,204.1 335.5,183.6 335.5,186 179.8,206.5 			"/>
			<polygon class="st49" points="179.8,201.7 335.5,181.2 335.5,183.6 179.8,204.1 			"/>
			<polygon class="st50" points="179.8,199.4 335.5,178.8 335.5,181.2 179.8,201.7 			"/>
			<polygon class="st51" points="179.8,197 335.5,176.5 335.5,178.8 179.8,199.4 			"/>
			<polygon class="st52" points="179.8,194.6 335.5,174.1 335.5,176.5 179.8,197 			"/>
			<polygon class="st53" points="179.8,192.2 335.5,171.7 335.5,174.1 179.8,194.6 			"/>
			<polygon class="st54" points="179.8,189.9 335.5,169.3 335.5,171.7 179.8,192.2 			"/>
			<polygon class="st55" points="179.8,187.5 335.5,167 335.5,169.3 179.8,189.9 			"/>
			<polygon class="st56" points="179.8,185.1 335.5,164.6 335.5,167 179.8,187.5 			"/>
			<polygon class="st57" points="179.8,182.7 335.5,162.2 335.5,164.6 179.8,185.1 			"/>
			<polygon class="st58" points="179.8,180.3 335.5,159.8 335.5,162.2 179.8,182.7 			"/>
			<polygon class="st59" points="179.8,178 335.5,157.4 335.5,159.8 179.8,180.3 			"/>
			<polygon class="st60" points="179.8,175.6 335.5,155.1 335.5,157.4 179.8,178 			"/>
			<polygon class="st61" points="179.8,173.2 335.5,152.7 335.5,155.1 179.8,175.6 			"/>
			<polygon class="st62" points="179.8,170.8 335.5,150.3 335.5,152.7 179.8,173.2 			"/>
			<polygon class="st63" points="179.8,168.4 335.5,147.9 335.5,150.3 179.8,170.8 			"/>
			<polygon class="st64" points="179.8,166.1 335.5,145.6 335.5,147.9 179.8,168.4 			"/>
			<polygon class="st64" points="335.5,145.6 179.8,166.1 179.8,133 335.5,133 			"/>
		</g>
	</g>
</g>
<g class="st10">
	<path class="st11" d="M187,234.4c-0.6-9.1-1.1-18.2-1-27.3c0.1-12.1,0.6-25.4,4.4-37.5c2.1-6.5,4.6-12.8,7.5-19c1-2.6,2-5.3,2.8-8
		c1-3.3,2.4-6.5,4.1-9.5h-27.5c-11,0-20,9-20,20v162c0,10.7,8.6,19.3,19.3,19.3c0,0,0,0,0,0h19C184.9,302.1,189.4,267.6,187,234.4z"
		/>
</g>
<g class="st8">
	<path class="st65" d="M337.6,133h-34.3c2.9,6.3,4.9,13,5.9,19.9c1.1,8.5,1.4,17,1,25.6c-0.7,15.2-0.9,30.5-1.5,45.8
		c-1.2,33.1-7.1,65.9-7.2,99.1c0,3.7-0.5,7.4-1.5,10.9h37.4c11.5,0,20.8-9.3,20.8-20.8V153.7C358.3,142.3,349.1,133,337.6,133
		C337.6,133,337.6,133,337.6,133z"/>
</g>
<rect x="191.8" y="188.7" class="st65" width="131.7" height="49.2"/>
<rect x="197.2" y="194.1" class="st66" width="121" height="38.2"/>
<path class="st67" d="M319.9,234.2H195.2v-42h124.7V234.2z M198.9,230.5h117.3V196H199L198.9,230.5z"/>
<path class="st68" d="M221.8,208.2c0,0.8-0.2,1.6-0.5,2.3c-0.3,0.7-0.8,1.3-1.4,1.8c-0.7,0.5-1.5,0.9-2.4,1.1
	c-1.1,0.3-2.1,0.4-3.2,0.4h-1.1h-0.6l-0.8-0.1v8.1h-4.4v-19.4h5.4c2.3-0.1,4.7,0.3,6.8,1.4C221,204.7,221.9,206.4,221.8,208.2z
	 M217,208.1c0-0.3-0.1-0.7-0.2-1c-0.1-0.3-0.3-0.6-0.6-0.8c-0.4-0.2-0.8-0.4-1.2-0.5c-0.6-0.1-1.2-0.2-1.9-0.1h-0.6
	c-0.2,0-0.5,0-0.7,0.1v4.6c0.4,0,0.6,0.1,0.8,0.1h0.8C215.8,210.4,217,209.6,217,208.1L217,208.1z"/>
<path class="st68" d="M234,212.9c0,0.6-0.2,1.2-0.5,1.7c-0.4,0.5-0.8,1-1.4,1.3c-0.7,0.4-1.4,0.7-2.2,0.9c-0.9,0.2-1.9,0.3-2.8,0.3
	h-0.8c0.1,0.6,0.4,1.2,0.8,1.6c0.5,0.4,1.1,0.6,1.8,0.6c1.4-0.1,2.9-0.5,4.1-1.2v2.9c-0.6,0.4-1.3,0.7-2,0.9
	c-0.7,0.2-1.4,0.3-2.2,0.3c-0.9,0-1.7-0.1-2.5-0.4c-0.7-0.3-1.4-0.7-1.9-1.2c-0.5-0.5-0.9-1.2-1.2-1.9c-0.3-0.8-0.4-1.6-0.4-2.5
	c0-1,0.2-1.9,0.5-2.8c0.3-0.8,0.8-1.5,1.4-2.2c0.6-0.6,1.3-1.1,2.1-1.4c0.9-0.3,1.8-0.5,2.7-0.5c1.2-0.1,2.3,0.3,3.3,1
	C233.6,210.9,234,211.9,234,212.9z M230.3,213.1c0-0.3-0.1-0.6-0.4-0.8c-0.3-0.2-0.6-0.3-1-0.3c-0.6,0-1.2,0.2-1.6,0.6
	c-0.5,0.5-0.8,1.1-0.9,1.8c0.1,0,0.3,0.1,0.4,0.1h0.4C229.3,214.6,230.3,214.1,230.3,213.1z"/>
<path class="st68" d="M245.4,212.9c-0.2,0-0.4-0.1-0.6-0.1c-0.2,0-0.3,0-0.5,0c-0.9-0.1-1.8,0.3-2.4,1.1c-0.6,1-0.9,2.1-0.8,3.2v4.6
	h-3.7v-8c0-0.4,0-0.9,0-1.2s0-0.6-0.1-0.9c0-0.3-0.1-0.6-0.2-0.9c-0.1-0.3-0.1-0.6-0.3-1h3.5c0,0.2,0.1,0.4,0.1,0.6
	c0,0.2,0.1,0.3,0.1,0.5l0.1,0.4c0,0.2,0,0.4,0,0.6c0.4-0.7,0.9-1.3,1.6-1.8c0.5-0.4,1.1-0.5,1.8-0.5c0.2,0,0.4,0,0.6,0.1
	c0.3,0.1,0.5,0.2,0.7,0.3L245.4,212.9z"/>
<path class="st68" d="M257,205.8c-0.3-0.2-0.7-0.3-1-0.4c-0.3-0.1-0.6-0.1-0.9-0.1c-0.4,0-0.8,0.1-1.1,0.2c-0.3,0.2-0.5,0.4-0.7,0.7
	c-0.2,0.4-0.3,0.8-0.4,1.3c-0.1,0.7-0.1,1.3-0.1,2h2.9v2.7h-2.9v9.5h-3.7v-9.6h-2.3v-2.6h2.2c0-1.2,0.1-2.3,0.3-3.4
	c0.1-0.8,0.5-1.5,0.9-2.2c0.4-0.5,0.9-0.9,1.6-1.2c0.7-0.2,1.4-0.4,2.1-0.3c1.1,0,2.2,0.2,3.3,0.6L257,205.8z"/>
<path class="st68" d="M266.2,221.4c-0.1-0.3-0.2-0.5-0.2-0.6c-0.1-0.2-0.1-0.5-0.1-0.7c-1,1.1-2.4,1.7-3.9,1.7c-1.1,0-2.2-0.4-3-1.3
	c-0.4-0.4-0.7-0.9-0.9-1.4c-0.2-0.6-0.3-1.2-0.3-1.9c0-0.8,0-1.5,0-2.1s0.1-1.3,0.1-1.9s0-1.2,0-1.8s-0.1-1.2-0.1-1.9h3.7
	c0.1,0.6,0.1,1.2,0.1,1.8s0,1.1,0,1.7s0,1.1-0.1,1.7s0,1.2,0,1.8c0,0.4,0,0.8,0.2,1.1c0.1,0.2,0.2,0.5,0.4,0.6
	c0.2,0.1,0.4,0.2,0.6,0.2c0.2,0,0.3,0,0.5,0c0.2,0,0.4,0,0.6-0.1c0.3-0.1,0.6-0.3,0.8-0.5c0.3-0.3,0.6-0.7,0.7-1.2
	c0.2-0.7,0.3-1.4,0.3-2.1v-5.1h3.7v8.1c0,0.7,0.1,1.4,0.2,2.1c0.1,0.6,0.2,1.2,0.4,1.7L266.2,221.4z"/>
<path class="st68" d="M289.7,221.7v-6c0.1-0.8-0.1-1.6-0.5-2.3c-0.3-0.4-0.8-0.6-1.3-0.6c-0.3,0-0.6,0.1-0.8,0.2
	c-0.3,0.2-0.6,0.4-0.8,0.6c-0.3,0.4-0.5,0.8-0.6,1.2c-0.1,0.6-0.2,1.3-0.2,1.9v5H282v-6c0.1-0.8-0.1-1.5-0.4-2.2
	c-0.3-0.5-0.9-0.8-1.4-0.7c-0.7,0-1.3,0.4-1.6,0.9c-0.5,0.9-0.8,2-0.7,3v5h-3.7v-7.7c0-0.4,0-0.9,0-1.2c0-0.4,0-0.7-0.1-1
	c0-0.3-0.1-0.7-0.2-1c-0.1-0.3-0.2-0.6-0.3-1h3.7c0.1,0.3,0.2,0.5,0.2,0.6s0.1,0.4,0.1,0.6c0.6-0.5,1.2-0.9,1.9-1.2
	c0.8-0.3,1.7-0.5,2.5-0.5c0.7,0,1.3,0.1,1.9,0.4c0.5,0.2,1,0.6,1.3,1.1c0.5-0.5,1.1-1,1.8-1.2c0.8-0.3,1.6-0.4,2.4-0.4
	c1.1-0.1,2.2,0.3,3,1.1c0.8,0.9,1.1,2,1,3.2v7.9H289.7z"/>
<path class="st68" d="M308.4,212.9c0,0.6-0.2,1.2-0.5,1.7c-0.4,0.5-0.8,1-1.4,1.3c-0.7,0.4-1.4,0.7-2.2,0.9
	c-0.9,0.2-1.9,0.3-2.8,0.3h-0.8c0.1,1.3,1.3,2.3,2.6,2.2c1.4,0,2.9-0.5,4.1-1.2v2.9c-0.6,0.4-1.3,0.7-2,0.9
	c-0.7,0.2-1.4,0.3-2.2,0.3c-0.9,0-1.7-0.1-2.5-0.4c-0.7-0.3-1.4-0.7-1.9-1.2c-0.5-0.5-0.9-1.2-1.2-1.9c-0.3-0.8-0.4-1.6-0.4-2.5
	c0-1,0.2-1.9,0.5-2.8c0.3-0.8,0.8-1.6,1.4-2.2c0.6-0.6,1.3-1.1,2.1-1.4c0.9-0.3,1.8-0.5,2.7-0.5c1.2-0.1,2.3,0.3,3.3,1
	C308,210.9,308.4,211.9,308.4,212.9z M304.7,213.1c0-0.3-0.1-0.6-0.4-0.8c-0.3-0.2-0.6-0.3-1-0.3c-0.6,0-1.2,0.2-1.6,0.6
	c-0.5,0.5-0.8,1.1-0.9,1.8c0.1,0,0.3,0.1,0.4,0.1h0.4C303.8,214.6,304.7,214.1,304.7,213.1z"/>
</svg>
